# Blender 4.0.2
# www.blender.org
mtllib mbump.mtl
o mbump
v -5.000000 -0.000000 -4.000000
v -5.000000 -0.000000 -5.000000
v -5.000000 1.000000 -4.000000
v -5.000000 2.000000 -5.000000
v -5.000000 2.000000 -4.000000
v 5.000000 -0.000000 -5.000002
v 5.000000 -0.000000 -4.000002
v 5.000000 2.000000 -5.000002
v 5.000000 1.000000 -4.000002
v 5.000000 2.000000 -4.000002
v -3.222683 2.000000 -5.000001
v -3.222683 2.000000 -4.000001
v -3.222682 2.000000 3.999999
v -3.222682 2.000000 5.000000
v -5.000000 2.000000 4.000000
v -5.000000 2.000000 5.000000
v -5.000000 1.000000 4.000000
v -2.500000 1.000000 3.999999
v -2.878498 2.288490 3.999999
v -2.360336 2.621171 3.999999
v -2.147866 1.295153 3.999999
v -1.804253 2.885635 3.999999
v -1.761226 1.543392 3.999999
v -1.219185 3.077632 3.999999
v -1.346291 1.740728 3.999999
v -0.909726 1.883991 3.999999
v -0.614528 3.194078 3.999999
v -0.458546 1.970881 3.999999
v 0.000000 3.233103 3.999999
v 0.000000 2.000000 3.999999
v 0.458547 1.970881 3.999999
v 0.614529 3.194078 3.999999
v 0.909727 1.883991 3.999999
v 1.219185 3.077632 3.999999
v 1.346292 1.740728 3.999999
v 1.804254 2.885635 3.999999
v 1.761227 1.543392 3.999999
v 2.147867 1.295153 3.999999
v 2.360337 2.621171 3.999999
v 2.500000 1.000000 3.999999
v 2.878499 2.288490 3.999999
v 3.222683 2.000000 3.999999
v 5.000000 1.000000 3.999998
v 5.000000 2.000000 3.999998
v 5.000000 0.000000 3.999998
v -5.000000 0.000000 4.000000
v 5.000000 0.000000 4.999998
v -5.000000 0.000000 5.000000
v -2.878499 2.288490 -5.000001
v -2.360337 2.621171 -5.000001
v -1.804255 2.885634 -5.000001
v -1.219186 3.077631 -5.000001
v -0.614529 3.194077 -5.000001
v -0.000001 3.233103 -5.000001
v 0.614528 3.194077 -5.000001
v 1.219184 3.077631 -5.000001
v 1.804253 2.885634 -5.000001
v 2.360336 2.621171 -5.000001
v 2.878498 2.288490 -5.000002
v 3.222682 2.000000 -5.000002
v 5.000000 2.000000 4.999998
v -2.878498 2.288491 5.000000
v -2.360336 2.621171 4.999999
v -1.804253 2.885635 4.999999
v -1.219184 3.077632 4.999999
v -0.614528 3.194078 4.999999
v 0.000001 3.233104 4.999999
v 0.614529 3.194078 4.999999
v 1.219186 3.077632 4.999999
v 1.804255 2.885635 4.999999
v 2.360337 2.621171 4.999999
v 2.878499 2.288491 4.999999
v 3.222683 2.000000 4.999999
v -2.500000 1.000000 -4.000001
v -2.878499 2.288490 -4.000001
v -2.360337 2.621171 -4.000001
v -2.147867 1.295153 -4.000001
v -1.804254 2.885635 -4.000001
v -1.761227 1.543392 -4.000001
v -1.219185 3.077632 -4.000001
v -1.346292 1.740728 -4.000001
v -0.909727 1.883991 -4.000001
v -0.614529 3.194078 -4.000001
v -0.458547 1.970881 -4.000001
v -0.000000 3.233103 -4.000001
v -0.000000 2.000000 -4.000001
v 0.458546 1.970881 -4.000001
v 0.614528 3.194078 -4.000001
v 0.909726 1.883991 -4.000001
v 1.219185 3.077632 -4.000001
v 1.346291 1.740728 -4.000001
v 1.804253 2.885635 -4.000001
v 1.761226 1.543392 -4.000001
v 2.147866 1.295153 -4.000001
v 2.360336 2.621171 -4.000001
v 2.500000 1.000000 -4.000001
v 2.878498 2.288490 -4.000001
v 3.222682 2.000000 -4.000001
vn -1.0000 -0.0000 -0.0000
vn 1.0000 -0.0000 -0.0000
vn -0.0000 1.0000 -0.0000
vn -0.0000 -0.0000 -1.0000
vn -0.0000 -1.0000 -0.0000
vn -0.0000 -0.0000 1.0000
vn -0.6424 0.7664 -0.0000
vn -0.5925 0.8056 -0.0000
vn 0.5925 0.8056 -0.0000
vn 0.6424 0.7664 -0.0000
vn 0.4859 0.8740 -0.0000
vn 0.3714 0.9285 -0.0000
vn 0.2510 0.9680 -0.0000
vn 0.1265 0.9920 -0.0000
vn -0.2510 0.9680 -0.0000
vn -0.1265 0.9920 -0.0000
vn -0.3714 0.9285 -0.0000
vn -0.4859 0.8740 -0.0000
vn -0.3418 0.9398 -0.0000
vn 0.3418 0.9398 -0.0000
vt 0.200130 0.533896
vt 0.166884 0.500650
vt 0.200130 0.500650
vt 0.166884 0.567143
vt 0.200130 0.567143
vt 0.166884 0.567143
vt 0.133637 0.500650
vt 0.166884 0.500650
vt 0.133637 0.533896
vt 0.133637 0.567143
vt 0.166884 0.666882
vt 0.107794 0.700129
vt 0.107794 0.666882
vt 0.166884 0.700129
vt 0.166884 0.633636
vt 0.107794 0.666882
vt 0.107794 0.633636
vt 0.166884 0.666882
vt 0.107794 0.567143
vt 0.166884 0.533896
vt 0.083767 0.533896
vt 0.096351 0.576734
vt 0.079124 0.587795
vt 0.072060 0.543709
vt 0.060636 0.596587
vt 0.059206 0.551962
vt 0.041185 0.602970
vt 0.045411 0.558523
vt 0.030896 0.563286
vt 0.021082 0.606842
vt 0.015896 0.566175
vt 0.348361 0.566175
vt 0.353547 0.606842
vt 0.333116 0.608139
vt 0.333116 0.567143
vt 0.317871 0.566175
vt 0.312685 0.606842
vt 0.302871 0.563286
vt 0.292583 0.602970
vt 0.288357 0.558523
vt 0.273131 0.596587
vt 0.274562 0.551962
vt 0.261707 0.543709
vt 0.254643 0.587795
vt 0.250000 0.533896
vt 0.237416 0.576734
vt 0.225973 0.567143
vt 0.166884 0.633636
vt 0.499349 0.666883
vt 0.166884 0.666883
vt 0.499349 0.633636
vt 0.499349 0.966101
vt 0.166884 0.966101
vt 0.166884 0.700129
vt 0.499349 0.700129
vt 0.166884 0.666883
vt 0.499349 0.666883
vt 0.107794 0.567143
vt 0.166884 0.500650
vt 0.166884 0.567143
vt 0.499349 0.500650
vt 0.440259 0.567143
vt 0.428816 0.576734
vt 0.411589 0.587795
vt 0.393102 0.596587
vt 0.373650 0.602970
vt 0.353547 0.606842
vt 0.333116 0.608139
vt 0.312685 0.606842
vt 0.292583 0.602970
vt 0.273131 0.596587
vt 0.254643 0.587795
vt 0.237416 0.576734
vt 0.225973 0.567143
vt 0.133637 0.500650
vt 0.133637 0.533896
vt 0.133637 0.567143
vt 0.200130 0.533896
vt 0.166884 0.500650
vt 0.200130 0.500650
vt 0.166884 0.567143
vt 0.200130 0.567143
vt 0.000651 0.608139
vt 0.021082 0.606842
vt 0.041185 0.602970
vt 0.060636 0.596587
vt 0.079124 0.587795
vt 0.096351 0.576734
vt 0.096351 0.666882
vt 0.096351 0.700129
vt 0.237416 0.700129
vt 0.225973 0.666882
vt 0.237416 0.666882
vt 0.225973 0.700129
vt 0.254643 0.700129
vt 0.254643 0.666882
vt 0.273131 0.700129
vt 0.273131 0.666882
vt 0.292583 0.700129
vt 0.292583 0.666882
vt 0.312685 0.700129
vt 0.312685 0.666882
vt 0.041185 0.700129
vt 0.021082 0.666882
vt 0.041185 0.666882
vt 0.021082 0.700129
vt 0.060636 0.700129
vt 0.060636 0.666882
vt 0.079124 0.700129
vt 0.079124 0.666882
vt 0.292583 0.666882
vt 0.273131 0.633636
vt 0.292583 0.633636
vt 0.273131 0.666882
vt 0.254643 0.633636
vt 0.254643 0.666882
vt 0.353547 0.666882
vt 0.333116 0.633636
vt 0.353547 0.633636
vt 0.333116 0.666882
vt 0.079124 0.666882
vt 0.060636 0.633636
vt 0.079124 0.633636
vt 0.060636 0.666882
vt 0.096351 0.633636
vt 0.096351 0.666882
vt 0.237416 0.633636
vt 0.237416 0.666882
vt 0.225973 0.633636
vt 0.225973 0.666882
vt 0.312685 0.666882
vt 0.312685 0.633636
vt 0.041185 0.666882
vt 0.021082 0.633636
vt 0.041185 0.633636
vt 0.021082 0.666882
vt 0.166884 0.633636
vt 0.166884 0.666882
vt 0.333116 0.700129
vt 0.333116 0.666882
vt 0.000651 0.666882
vt 0.000651 0.700129
vt 0.966104 0.533898
vt 0.700131 0.500651
vt 0.966104 0.500651
vt 0.700131 0.533898
vt 0.966104 0.533898
vt 0.700131 0.500651
vt 0.966104 0.500651
vt 0.700131 0.533898
vt 0.666885 0.966102
vt 0.583769 0.700130
vt 0.666885 0.700130
vt 0.583769 0.966102
vt 0.750001 0.966102
vt 0.666885 0.700130
vt 0.750001 0.700130
vt 0.761708 0.966102
vt 0.761708 0.700130
vt 0.774563 0.966102
vt 0.774563 0.700130
vt 0.788358 0.966102
vt 0.788358 0.700130
vt 0.802872 0.966102
vt 0.802872 0.700130
vt 0.817872 0.966102
vt 0.817872 0.700130
vt 0.833117 0.966102
vt 0.833117 0.700130
vt 0.515897 0.966102
vt 0.500652 0.700130
vt 0.515897 0.700130
vt 0.848363 0.966102
vt 0.530897 0.966102
vt 0.530897 0.700130
vt 0.545412 0.966102
vt 0.545412 0.700130
vt 0.559207 0.966102
vt 0.559207 0.700130
vt 0.572061 0.966102
vt 0.572061 0.700130
s 0
usemtl material_atlas_00005_1
f 3/1/1 2/2/1 1/3/1
f 2/2/1 3/1/1 4/4/1
f 4/4/1 3/1/1 5/5/1
f 8/6/2 7/7/2 6/8/2
f 7/7/2 8/6/2 9/9/2
f 9/9/2 8/6/2 10/10/2
f 4/11/3 12/12/3 11/13/3
f 12/12/3 4/11/3 5/14/3
f 15/15/3 14/16/3 13/17/3
f 14/16/3 15/15/3 16/18/3
f 13/19/4 17/20/4 15/4/4
f 17/20/4 13/19/4 18/21/4
f 18/21/4 13/19/4 19/22/4
f 18/21/4 19/22/4 20/23/4
f 18/21/4 20/23/4 21/24/4
f 21/24/4 20/23/4 22/25/4
f 21/24/4 22/25/4 23/26/4
f 23/26/4 22/25/4 24/27/4
f 23/26/4 24/27/4 25/28/4
f 25/28/4 24/27/4 26/29/4
f 26/29/4 24/27/4 27/30/4
f 26/29/4 27/30/4 28/31/4
f 28/32/4 27/33/4 29/34/4
f 28/32/4 29/34/4 30/35/4
f 30/35/4 29/34/4 31/36/4
f 31/36/4 29/34/4 32/37/4
f 31/36/4 32/37/4 33/38/4
f 33/38/4 32/37/4 34/39/4
f 33/38/4 34/39/4 35/40/4
f 35/40/4 34/39/4 36/41/4
f 35/40/4 36/41/4 37/42/4
f 37/42/4 36/41/4 38/43/4
f 38/43/4 36/41/4 39/44/4
f 38/43/4 39/44/4 40/45/4
f 40/45/4 39/44/4 41/46/4
f 40/45/4 41/46/4 42/47/4
f 40/45/4 42/47/4 43/20/4
f 43/20/4 42/47/4 44/4/4
f 7/48/5 2/49/5 6/50/5
f 2/49/5 7/48/5 1/51/5
f 1/52/5 7/53/5 45/54/5
f 1/52/5 45/54/5 46/55/5
f 46/55/5 45/54/5 47/56/5
f 46/55/5 47/56/5 48/57/5
f 11/58/4 2/59/4 4/60/4
f 2/61/4 11/62/4 6/59/4
f 6/59/4 11/62/4 49/63/4
f 6/59/4 49/63/4 50/64/4
f 6/59/4 50/64/4 51/65/4
f 6/59/4 51/65/4 52/66/4
f 6/59/4 52/66/4 53/67/4
f 6/59/4 53/67/4 54/68/4
f 6/59/4 54/68/4 55/69/4
f 6/59/4 55/69/4 56/70/4
f 6/59/4 56/70/4 57/71/4
f 6/59/4 57/71/4 58/72/4
f 6/59/4 58/72/4 59/73/4
f 6/59/4 59/73/4 60/74/4
f 6/59/4 60/74/4 8/60/4
f 16/4/1 46/75/1 48/2/1
f 46/75/1 16/4/1 17/76/1
f 17/76/1 16/4/1 15/77/1
f 43/78/2 47/79/2 45/80/2
f 47/79/2 43/78/2 61/81/2
f 61/81/2 43/78/2 44/82/2
f 47/61/6 16/60/6 48/59/6
f 16/60/6 47/61/6 14/74/6
f 14/74/6 47/61/6 62/73/6
f 62/73/6 47/61/6 63/72/6
f 63/72/6 47/61/6 64/71/6
f 64/71/6 47/61/6 65/70/6
f 65/70/6 47/61/6 66/69/6
f 66/69/6 47/61/6 67/68/6
f 67/83/6 47/59/6 68/84/6
f 68/84/6 47/59/6 69/85/6
f 69/85/6 47/59/6 70/86/6
f 70/86/6 47/59/6 71/87/6
f 71/87/6 47/59/6 72/88/6
f 72/88/6 47/59/6 73/58/6
f 73/58/6 47/59/6 61/60/6
f 74/45/6 5/4/6 3/20/6
f 5/4/6 74/45/6 12/47/6
f 12/47/6 74/45/6 75/46/6
f 75/46/6 74/45/6 76/44/6
f 76/44/6 74/45/6 77/43/6
f 76/44/6 77/43/6 78/41/6
f 78/41/6 77/43/6 79/42/6
f 78/41/6 79/42/6 80/39/6
f 80/39/6 79/42/6 81/40/6
f 80/39/6 81/40/6 82/38/6
f 80/39/6 82/38/6 83/37/6
f 83/37/6 82/38/6 84/36/6
f 83/37/6 84/36/6 85/34/6
f 85/34/6 84/36/6 86/35/6
f 85/34/6 86/35/6 87/32/6
f 85/34/6 87/32/6 88/33/6
f 88/30/6 87/31/6 89/29/6
f 88/30/6 89/29/6 90/27/6
f 90/27/6 89/29/6 91/28/6
f 90/27/6 91/28/6 92/25/6
f 92/25/6 91/28/6 93/26/6
f 92/25/6 93/26/6 94/24/6
f 92/25/6 94/24/6 95/23/6
f 95/23/6 94/24/6 96/21/6
f 95/23/6 96/21/6 97/22/6
f 97/22/6 96/21/6 98/19/6
f 98/19/6 96/21/6 9/20/6
f 98/19/6 9/20/6 10/4/6
f 12/12/7 49/89/8 11/13/7
f 49/89/8 12/12/7 75/90/8
f 97/91/9 60/92/10 59/93/9
f 60/92/10 97/91/9 98/94/10
f 95/95/11 59/93/9 58/96/11
f 59/93/9 95/95/11 97/91/9
f 92/97/12 58/96/11 57/98/12
f 58/96/11 92/97/12 95/95/11
f 90/99/13 57/98/12 56/100/13
f 57/98/12 90/99/13 92/97/12
f 88/101/14 56/100/13 55/102/14
f 56/100/13 88/101/14 90/99/13
f 80/103/15 53/104/16 52/105/15
f 53/104/16 80/103/15 83/106/16
f 78/107/17 52/105/15 51/108/17
f 52/105/15 78/107/17 80/103/15
f 76/109/18 51/108/17 50/110/18
f 51/108/17 76/109/18 78/107/17
f 75/90/8 50/110/18 49/89/8
f 50/110/18 75/90/8 76/109/18
f 98/94/3 8/11/3 60/92/3
f 8/11/3 98/94/3 10/14/3
f 69/111/13 36/112/12 34/113/13
f 36/112/12 69/111/13 70/114/12
f 70/114/12 39/115/11 36/112/12
f 39/115/11 70/114/12 71/116/11
f 66/117/16 29/118/3 27/119/16
f 29/118/3 66/117/16 67/120/3
f 63/121/18 22/122/17 20/123/18
f 22/122/17 63/121/18 64/124/17
f 14/16/7 19/125/8 13/17/7
f 19/125/8 14/16/7 62/126/8
f 71/116/11 41/127/9 39/115/11
f 41/127/9 71/116/11 72/128/9
f 72/128/9 42/129/10 41/127/9
f 42/129/10 72/128/9 73/130/10
f 68/131/14 34/113/13 32/132/14
f 34/113/13 68/131/14 69/111/13
f 67/120/3 32/132/14 29/118/3
f 32/132/14 67/120/3 68/131/14
f 65/133/15 27/134/16 24/135/15
f 27/134/16 65/133/15 66/136/16
f 62/126/8 20/123/18 19/125/8
f 20/123/18 62/126/8 63/121/18
f 64/124/17 24/135/15 22/122/17
f 24/135/15 64/124/17 65/133/15
f 73/130/3 44/137/3 42/129/3
f 44/137/3 73/130/3 61/138/3
f 85/139/3 55/102/14 54/140/3
f 55/102/14 85/139/3 88/101/14
f 83/106/16 54/141/3 53/104/16
f 54/141/3 83/106/16 85/142/3
f 9/143/2 45/144/2 7/145/2
f 45/144/2 9/143/2 43/146/2
f 17/147/1 1/148/1 46/149/1
f 1/148/1 17/147/1 3/150/1
f 17/151/3 74/152/19 3/153/3
f 74/152/19 17/151/3 18/154/19
f 40/155/20 9/156/3 96/157/20
f 9/156/3 40/155/20 43/151/3
f 38/158/9 96/157/20 94/159/9
f 96/157/20 38/158/9 40/155/20
f 37/160/11 94/159/9 93/161/11
f 94/159/9 37/160/11 38/158/9
f 35/162/12 93/161/11 91/163/12
f 93/161/11 35/162/12 37/160/11
f 33/164/13 91/163/12 89/165/13
f 91/163/12 33/164/13 35/162/12
f 31/166/14 89/165/13 87/167/14
f 89/165/13 31/166/14 33/164/13
f 30/168/3 87/167/14 86/169/3
f 87/167/14 30/168/3 31/166/14
f 28/170/16 86/171/3 84/172/16
f 86/169/3 28/173/16 30/168/3
f 26/174/15 84/172/16 82/175/15
f 84/172/16 26/174/15 28/170/16
f 25/176/17 82/175/15 81/177/17
f 82/175/15 25/176/17 26/174/15
f 23/178/18 81/177/17 79/179/18
f 81/177/17 23/178/18 25/176/17
f 21/180/8 79/179/18 77/181/8
f 79/179/18 21/180/8 23/178/18
f 18/154/19 77/181/8 74/152/19
f 77/181/8 18/154/19 21/180/8
