# Blender 4.0.2
# www.blender.org
mtllib mgoal.mtl
o mgoal
v -5.000033 0.000000 5.000034
v -5.000034 -0.000000 -5.000033
v -5.000033 2.000000 5.000034
v -5.000034 2.000000 -5.000033
v 5.000033 -0.000000 -5.000034
v 5.000033 -0.000000 -4.000028
v 5.000033 2.000000 -5.000034
v 5.000033 1.000000 -4.000028
v 5.000033 2.000000 -4.000028
v -4.000028 1.000000 -4.000027
v -4.000028 2.000000 -4.000027
v -4.000027 2.000000 4.000028
v 5.000034 2.000000 4.000027
v 5.000034 2.000000 5.000033
v -4.000027 1.000000 4.000028
v 5.000034 1.000000 4.000027
v 0.027778 -0.000000 -0.800005
v 0.234835 -0.000000 -0.772746
v 0.427781 -0.000000 -0.692825
v 0.593467 -0.000000 -0.565689
v 5.000034 0.000000 4.000027
v 0.720603 -0.000000 -0.400003
v 0.800524 -0.000000 -0.207057
v 0.827783 -0.000000 -0.000000
v 0.800524 0.000000 0.207057
v 0.720603 0.000000 0.400003
v 0.593467 0.000000 0.565689
v 0.427781 0.000000 0.692825
v 0.234835 0.000000 0.772746
v 0.027778 0.000000 0.800005
v -0.179279 -0.000000 -0.772746
v -0.372225 -0.000000 -0.692825
v -0.537911 -0.000000 -0.565689
v -0.665047 -0.000000 -0.400003
v -0.744968 -0.000000 -0.207057
v -0.772227 0.000000 0.000000
v -0.744968 0.000000 0.207057
v -0.665047 0.000000 0.400003
v -0.537911 0.000000 0.565689
v -0.372225 0.000000 0.692825
v -0.179279 0.000000 0.772746
v 5.000034 0.000000 5.000033
v -0.372225 1.000000 -0.692825
v -0.179279 1.000000 -0.772746
v 0.427781 1.000000 -0.692825
v 0.593467 1.000000 -0.565689
v -0.772227 1.000000 0.000000
v -0.744968 1.000000 0.207057
v -0.537911 1.000000 -0.565689
v -0.665047 1.000000 -0.400003
v -0.537911 1.000000 0.565689
v -0.372225 1.000000 0.692825
v 0.593467 1.000000 0.565689
v 0.720603 1.000000 0.400003
v -0.179279 1.000000 0.772746
v 0.027778 1.000000 0.800005
v 0.234835 1.000000 0.772746
v 0.800524 1.000000 -0.207057
v 0.720603 1.000000 -0.400003
v 0.427781 1.000000 0.692825
v 0.234835 1.000000 -0.772746
v 0.827783 1.000000 -0.000000
v 0.800524 1.000000 0.207057
v -0.665047 1.000000 0.400003
v 0.027778 1.000000 -0.800005
v -0.744968 1.000000 -0.207057
vn -1.0000 -0.0000 -0.0000
vn 1.0000 -0.0000 -0.0000
vn -0.0000 -0.0000 1.0000
vn -0.0000 1.0000 -0.0000
vn -0.0000 -0.0000 -1.0000
vn -0.0000 -1.0000 -0.0000
vn 0.2588 -0.0000 0.9659
vn 0.5000 -0.0000 0.8660
vn -0.7071 -0.0000 0.7071
vn -0.5000 -0.0000 0.8660
vn 0.9659 -0.0000 -0.2588
vn 0.7071 -0.0000 0.7071
vn 0.8660 -0.0000 0.5000
vn 0.5000 -0.0000 -0.8660
vn 0.7071 -0.0000 -0.7071
vn -0.7071 -0.0000 -0.7071
vn -0.8660 -0.0000 -0.5000
vn 0.2588 -0.0000 -0.9659
vn -0.2588 -0.0000 -0.9659
vn -0.9659 -0.0000 0.2588
vn -0.8660 -0.0000 0.5000
vn -0.5000 -0.0000 -0.8660
vn -0.2588 -0.0000 0.9659
vn -0.9659 -0.0000 -0.2588
vn 0.8660 -0.0000 -0.5000
vn 0.9659 -0.0000 0.2588
vt 0.499350 0.567143
vt 0.166883 0.500650
vt 0.499350 0.500650
vt 0.166883 0.567143
vt 0.166885 0.567143
vt 0.133638 0.500650
vt 0.166885 0.500650
vt 0.133638 0.533896
vt 0.133638 0.567143
vt 0.499350 0.533896
vt 0.200129 0.567143
vt 0.200129 0.533896
vt 0.499350 0.567143
vt 0.499350 0.666881
vt 0.466103 0.700128
vt 0.166883 0.666881
vt 0.133638 0.700128
vt 0.166885 0.666881
vt 0.166885 0.999349
vt 0.133638 0.966102
vt 0.466103 0.633637
vt 0.499350 0.666884
vt 0.166883 0.633637
vt 0.166883 0.666884
vt 0.166883 0.700128
vt 0.166883 0.567143
vt 0.466103 0.533896
vt 0.466103 0.567143
vt 0.166883 0.533896
vt 0.166883 0.633637
vt 0.325309 0.526341
vt 0.332193 0.527247
vt 0.318894 0.523684
vt 0.313386 0.519457
vt 0.313386 0.851922
vt 0.166883 0.966102
vt 0.166883 0.700128
vt 0.309159 0.846414
vt 0.306502 0.839999
vt 0.305595 0.833115
vt 0.306502 0.826231
vt 0.309159 0.819816
vt 0.313386 0.814308
vt 0.318894 0.810081
vt 0.325309 0.807424
vt 0.332193 0.806518
vt 0.339077 0.526341
vt 0.345491 0.523684
vt 0.499350 0.666884
vt 0.166883 0.666884
vt 0.166885 0.666884
vt 0.013026 0.523684
vt 0.018535 0.519457
vt 0.166885 0.999349
vt 0.018535 0.851922
vt 0.166885 0.666881
vt 0.022762 0.846414
vt 0.025419 0.839999
vt 0.026325 0.833115
vt 0.025419 0.826231
vt 0.022762 0.819816
vt 0.018535 0.814308
vt 0.013026 0.810081
vt 0.006611 0.807424
vt 0.499350 0.666881
vt 0.339077 0.807424
vt 0.166883 0.666881
vt 0.200129 0.533896
vt 0.200129 0.500650
vt 0.200129 0.567143
vt 0.327156 0.500650
vt 0.320741 0.533896
vt 0.320741 0.500650
vt 0.327156 0.533896
vt 0.020382 0.500650
vt 0.014873 0.533896
vt 0.014873 0.500650
vt 0.020382 0.533896
vt 0.333116 0.533896
vt 0.326232 0.500650
vt 0.333116 0.500650
vt 0.326232 0.533896
vt 0.019458 0.533896
vt 0.013950 0.500650
vt 0.019458 0.500650
vt 0.013950 0.533896
vt 0.013026 0.533896
vt 0.018535 0.500650
vt 0.018535 0.533896
vt 0.013026 0.500650
vt 0.332193 0.533896
vt 0.339077 0.500650
vt 0.339077 0.533896
vt 0.332193 0.500650
vt 0.325309 0.533896
vt 0.325309 0.500650
vt 0.319818 0.500650
vt 0.319818 0.533896
vt 0.313386 0.533896
vt 0.318894 0.500650
vt 0.318894 0.533896
vt 0.313386 0.500650
vt 0.008458 0.533896
vt 0.008458 0.500650
vt 0.314309 0.500650
vt 0.314309 0.533896
vt 0.340000 0.533896
vt 0.340000 0.500650
vt 0.007535 0.500650
vt 0.007535 0.533896
vt 0.006611 0.533896
vt 0.006611 0.500650
vt 0.315233 0.533896
vt 0.315233 0.500650
vt 0.001575 0.533896
vt 0.001575 0.500650
vt 0.334040 0.500650
vt 0.334040 0.533896
vt 0.007535 0.500650
vt 0.007535 0.533896
vt 0.966105 0.533898
vt 0.700131 0.500651
vt 0.966105 0.500651
vt 0.700131 0.533898
vt 0.966105 0.700129
vt 0.845493 0.810082
vt 0.666884 0.700129
vt 0.513027 0.810082
vt 0.633639 0.700129
vt 0.518536 0.814309
vt 0.522763 0.819818
vt 0.633639 0.966103
vt 0.839078 0.807425
vt 0.832194 0.806519
vt 0.525420 0.826232
vt 0.526326 0.833116
vt 0.526326 0.500651
vt 0.633639 0.633638
vt 0.525420 0.507535
vt 0.522763 0.513950
vt 0.518536 0.519458
vt 0.513027 0.523685
vt 0.506613 0.526342
vt 0.839078 0.526342
vt 0.966105 0.633638
vt 0.832194 0.527248
vt 0.825310 0.807425
vt 0.666884 0.633638
vt 0.825310 0.526342
vt 0.818895 0.523685
vt 0.813387 0.519458
vt 0.809160 0.513950
vt 0.806503 0.507535
vt 0.666884 0.966103
vt 0.805597 0.833116
vt 0.806503 0.840000
vt 0.806503 0.826232
vt 0.809160 0.819818
vt 0.813387 0.814309
vt 0.818895 0.810082
s 0
usemtl material_atlas_00005_1
f 3/1/1 2/2/1 1/3/1
f 2/2/1 3/1/1 4/4/1
f 7/5/2 6/6/2 5/7/2
f 6/6/2 7/5/2 8/8/2
f 8/8/2 7/5/2 9/9/2
f 8/10/3 11/11/3 10/12/3
f 11/11/3 8/10/3 9/13/3
f 4/14/4 11/15/4 7/16/4
f 11/17/4 4/18/4 3/19/4
f 11/17/4 3/19/4 12/20/4
f 12/21/4 3/22/4 13/23/4
f 13/23/4 3/22/4 14/24/4
f 9/25/4 7/16/4 11/15/4
f 13/26/5 15/27/5 12/28/5
f 15/27/5 13/26/5 16/29/5
f 6/30/6 18/31/6 17/32/6
f 18/31/6 6/30/6 19/33/6
f 19/33/6 6/30/6 20/34/6
f 20/35/6 6/36/6 21/37/6
f 20/35/6 21/37/6 22/38/6
f 22/38/6 21/37/6 23/39/6
f 23/39/6 21/37/6 24/40/6
f 24/40/6 21/37/6 25/41/6
f 25/41/6 21/37/6 26/42/6
f 26/42/6 21/37/6 27/43/6
f 27/43/6 21/37/6 28/44/6
f 28/44/6 21/37/6 29/45/6
f 29/45/6 21/37/6 30/46/6
f 31/47/6 6/30/6 17/32/6
f 32/48/6 6/30/6 31/47/6
f 2/49/6 6/30/6 32/48/6
f 6/30/6 2/49/6 5/50/6
f 2/51/6 32/52/6 33/53/6
f 2/54/6 33/55/6 1/56/6
f 1/56/6 33/55/6 34/57/6
f 1/56/6 34/57/6 35/58/6
f 1/56/6 35/58/6 36/59/6
f 1/56/6 36/59/6 37/60/6
f 1/56/6 37/60/6 38/61/6
f 1/56/6 38/61/6 39/62/6
f 1/56/6 39/62/6 40/63/6
f 1/56/6 40/63/6 41/64/6
f 1/65/6 41/66/6 30/46/6
f 1/65/6 30/46/6 21/37/6
f 1/65/6 21/37/6 42/67/6
f 7/4/5 2/3/5 4/1/5
f 2/3/5 7/4/5 5/2/5
f 16/68/2 42/2/2 21/69/2
f 42/2/2 16/68/2 14/4/2
f 14/4/2 16/68/2 13/70/2
f 42/3/3 3/4/3 1/2/3
f 3/4/3 42/3/3 14/1/3
f 11/28/2 15/12/2 10/27/2
f 15/12/2 11/28/2 12/11/2
f 31/71/7 43/72/8 32/73/8
f 43/72/8 31/71/7 44/74/7
f 20/75/9 45/76/10 19/77/10
f 45/76/10 20/75/9 46/78/9
f 47/79/2 37/80/11 36/81/2
f 37/80/11 47/79/2 48/82/11
f 49/83/12 34/84/13 33/85/12
f 34/84/13 49/83/12 50/86/13
f 52/87/14 39/88/15 51/89/15
f 39/88/15 52/87/14 40/90/14
f 53/83/16 26/84/17 27/85/16
f 26/84/17 53/83/16 54/86/17
f 56/91/5 41/92/18 55/93/18
f 41/92/18 56/91/5 30/94/5
f 57/95/19 30/94/5 56/91/5
f 30/94/5 57/95/19 29/96/19
f 58/82/20 22/97/21 23/80/20
f 22/97/21 58/82/20 59/98/21
f 53/99/16 28/100/22 60/101/22
f 28/100/22 53/99/16 27/102/16
f 19/77/10 61/103/23 18/104/23
f 61/103/23 19/77/10 45/76/10
f 59/98/21 20/105/9 22/97/21
f 20/105/9 59/98/21 46/106/9
f 62/79/1 23/80/20 24/81/1
f 23/80/20 62/79/1 58/82/20
f 63/107/24 24/81/1 25/108/24
f 24/81/1 63/107/24 62/79/1
f 60/101/22 29/96/19 57/95/19
f 29/96/19 60/101/22 28/100/22
f 54/86/17 25/109/24 26/84/17
f 25/109/24 54/86/17 63/110/24
f 48/82/11 38/97/25 37/80/11
f 38/97/25 48/82/11 64/98/25
f 64/98/25 39/105/15 38/97/25
f 39/105/15 64/98/25 51/106/15
f 55/111/18 40/90/14 52/87/14
f 40/90/14 55/111/18 41/112/18
f 32/73/8 49/113/12 33/114/12
f 49/113/12 32/73/8 43/72/8
f 18/104/23 65/115/3 17/116/3
f 65/115/3 18/104/23 61/103/23
f 66/107/26 36/81/2 35/108/26
f 36/81/2 66/107/26 47/79/2
f 17/117/3 44/74/7 31/71/7
f 44/74/7 17/117/3 65/118/3
f 50/86/13 35/119/26 34/84/13
f 35/119/26 50/86/13 66/120/26
f 8/121/2 21/122/2 6/123/2
f 21/122/2 8/121/2 16/124/2
f 10/125/4 43/126/4 8/127/4
f 43/128/4 10/129/4 49/130/4
f 49/130/4 10/129/4 50/131/4
f 50/131/4 10/129/4 15/132/4
f 8/127/4 43/126/4 44/133/4
f 8/127/4 44/133/4 65/134/4
f 50/131/4 15/132/4 66/135/4
f 66/135/4 15/132/4 47/136/4
f 47/137/4 15/138/4 48/139/4
f 48/139/4 15/138/4 64/140/4
f 64/140/4 15/138/4 51/141/4
f 51/141/4 15/138/4 52/142/4
f 52/142/4 15/138/4 55/143/4
f 55/144/4 15/145/4 56/146/4
f 61/147/4 8/127/4 65/134/4
f 16/148/4 56/146/4 15/145/4
f 16/148/4 57/149/4 56/146/4
f 16/148/4 60/150/4 57/149/4
f 16/148/4 53/151/4 60/150/4
f 16/148/4 54/152/4 53/151/4
f 16/148/4 63/153/4 54/152/4
f 16/154/4 62/155/4 63/156/4
f 16/154/4 58/157/4 62/155/4
f 16/154/4 59/158/4 58/157/4
f 16/154/4 46/159/4 59/158/4
f 8/127/4 46/159/4 16/154/4
f 46/159/4 8/127/4 45/160/4
f 45/160/4 8/127/4 61/147/4
