# Blender 4.0.2
# www.blender.org
mtllib mhole.mtl
o mhole
v -5.000000 -0.000000 -4.000000
v -5.000000 -0.000000 -5.000000
v -5.000000 1.000000 -4.000000
v -5.000000 2.000000 -5.000000
v -5.000000 2.000000 -4.000000
v 5.000000 -0.000000 -5.000000
v 5.000000 -0.000000 -4.000000
v 5.000000 2.000000 -5.000000
v 5.000000 1.000000 -4.000000
v 5.000000 2.000000 -4.000000
v -5.000000 2.000000 4.000000
v 5.000000 2.000000 4.000000
v -5.000000 2.000000 5.000000
v 5.000000 2.000000 5.000000
v -5.000000 1.000000 4.000000
v 5.000000 1.000000 4.000000
v 2.499877 -0.000000 -1.907065
v 2.571204 -0.000000 -1.882853
v 2.638761 -0.000000 -1.849538
v 2.701392 -0.000000 -1.807689
v 2.758024 -0.000000 -1.758024
v 2.807689 -0.000000 -1.701392
v 2.849537 -0.000000 -1.638762
v 2.882852 -0.000000 -1.571205
v 5.000000 0.000000 4.000000
v 2.425999 -0.000000 -1.921761
v 2.350836 -0.000000 -1.926687
v -2.350836 -0.000000 -1.926686
v 2.907065 -0.000000 -1.499878
v 2.921760 -0.000000 -1.426000
v 2.926686 -0.000000 -1.350837
v 2.926687 0.000000 1.350836
v 2.921760 0.000000 1.426000
v 2.907065 0.000000 1.499877
v 2.882853 0.000000 1.571204
v 2.849537 0.000000 1.638761
v 2.807689 0.000000 1.701391
v 2.758024 0.000000 1.758024
v 2.701392 0.000000 1.807689
v 2.638762 0.000000 1.849537
v 2.571205 0.000000 1.882852
v 2.499877 0.000000 1.907065
v 2.426000 0.000000 1.921760
v 2.350836 0.000000 1.926686
v -5.000000 0.000000 4.000000
v -2.350836 0.000000 1.926687
v -2.425999 0.000000 1.921761
v -2.499877 0.000000 1.907065
v -2.571204 0.000000 1.882853
v -2.638761 0.000000 1.849538
v -2.701392 0.000000 1.807689
v -2.758024 0.000000 1.758024
v -2.807689 0.000000 1.701392
v -2.849537 0.000000 1.638762
v -2.882852 0.000000 1.571205
v -2.907065 0.000000 1.499878
v -2.921760 0.000000 1.426000
v -2.926686 0.000000 1.350837
v -2.926687 -0.000000 -1.350836
v -2.921760 -0.000000 -1.426000
v -2.907065 -0.000000 -1.499877
v -2.882853 -0.000000 -1.571204
v -2.849537 -0.000000 -1.638761
v -2.807689 -0.000000 -1.701391
v -2.758024 -0.000000 -1.758024
v -2.701392 -0.000000 -1.807689
v -2.638762 -0.000000 -1.849537
v -2.571205 -0.000000 -1.882852
v -2.499877 -0.000000 -1.907065
v -2.426000 -0.000000 -1.921760
v 5.000000 0.000000 5.000000
v -5.000000 0.000000 5.000000
v -2.499877 1.000000 -1.907065
v -2.571205 1.000000 -1.882852
v -2.638762 1.000000 -1.849537
v -2.701392 1.000000 -1.807689
v -2.758024 1.000000 -1.758024
v -2.807689 1.000000 -1.701391
v -2.849537 1.000000 -1.638761
v -2.882853 1.000000 -1.571204
v -2.426000 1.000000 -1.921760
v -2.350836 1.000000 -1.926686
v -2.907065 1.000000 -1.499877
v -2.921760 1.000000 -1.426000
v -2.926687 1.000000 -1.350836
v -2.926686 1.000000 1.350837
v -2.921760 1.000000 1.426000
v -2.907065 1.000000 1.499878
v -2.882852 1.000000 1.571205
v -2.849537 1.000000 1.638762
v -2.807689 1.000000 1.701392
v -2.758024 1.000000 1.758024
v -2.701392 1.000000 1.807689
v -2.638761 1.000000 1.849538
v -2.571204 1.000000 1.882853
v -2.499877 1.000000 1.907065
v -2.425999 1.000000 1.921761
v -2.350836 1.000000 1.926687
v 2.350836 1.000000 1.926686
v 2.426000 1.000000 1.921760
v 2.499877 1.000000 1.907065
v 2.571205 1.000000 1.882852
v 2.638762 1.000000 1.849537
v 2.701392 1.000000 1.807689
v 2.758024 1.000000 1.758024
v 2.807689 1.000000 1.701391
v 2.849537 1.000000 1.638761
v 2.882853 1.000000 1.571204
v 2.907065 1.000000 1.499877
v 2.921760 1.000000 1.426000
v 2.926687 1.000000 1.350836
v 2.926686 1.000000 -1.350837
v 2.921760 1.000000 -1.426000
v 2.907065 1.000000 -1.499878
v 2.882852 1.000000 -1.571205
v 2.849537 1.000000 -1.638762
v 2.807689 1.000000 -1.701392
v 2.758024 1.000000 -1.758024
v 2.701392 1.000000 -1.807689
v 2.638761 1.000000 -1.849538
v 2.571204 1.000000 -1.882853
v 2.499877 1.000000 -1.907065
v 2.425999 1.000000 -1.921761
v 2.350836 1.000000 -1.926687
vn -1.0000 -0.0000 -0.0000
vn 1.0000 -0.0000 -0.0000
vn -0.0000 -0.0000 1.0000
vn -0.0000 1.0000 -0.0000
vn -0.0000 -0.0000 -1.0000
vn -0.0000 -1.0000 -0.0000
vn -0.1305 -0.0000 0.9914
vn -0.0327 -0.0000 0.9995
vn 0.0327 -0.0000 0.9995
vn 0.1305 -0.0000 0.9914
vn 0.2588 -0.0000 0.9659
vn 0.3827 -0.0000 0.9239
vn 0.5000 -0.0000 0.8660
vn 0.6088 -0.0000 0.7934
vn 0.6088 -0.0000 0.7933
vn 0.7071 -0.0000 0.7071
vn 0.7933 -0.0000 0.6088
vn 0.7934 -0.0000 0.6088
vn 0.8660 -0.0000 0.5000
vn 0.9239 -0.0000 0.3827
vn 0.9659 -0.0000 0.2588
vn 0.9914 -0.0000 0.1305
vn 0.9995 -0.0000 0.0327
vn 0.9995 -0.0000 -0.0327
vn 0.9914 -0.0000 -0.1305
vn 0.9659 -0.0000 -0.2588
vn 0.9239 -0.0000 -0.3827
vn 0.8660 -0.0000 -0.5000
vn 0.7934 -0.0000 -0.6087
vn 0.7934 -0.0000 -0.6088
vn 0.7933 -0.0000 -0.6088
vn 0.7071 -0.0000 -0.7071
vn 0.6088 -0.0000 -0.7933
vn 0.5000 -0.0000 -0.8660
vn 0.6088 -0.0000 -0.7934
vn 0.3827 -0.0000 -0.9239
vn 0.2588 -0.0000 -0.9659
vn 0.1305 -0.0000 -0.9914
vn 0.1306 -0.0000 -0.9914
vn 0.0327 -0.0000 -0.9995
vn -0.0327 -0.0000 -0.9995
vn -0.1305 -0.0000 -0.9914
vn -0.2588 -0.0000 -0.9659
vn -0.3827 -0.0000 -0.9239
vn -0.5000 -0.0000 -0.8660
vn -0.6088 -0.0000 -0.7934
vn -0.7071 -0.0000 -0.7071
vn -0.6088 -0.0000 -0.7933
vn -0.7933 -0.0000 -0.6088
vn -0.7934 -0.0000 -0.6088
vn -0.8660 -0.0000 -0.5000
vn -0.9239 -0.0000 -0.3827
vn -0.9659 -0.0000 -0.2588
vn -0.9914 -0.0000 -0.1305
vn -0.9995 -0.0000 -0.0327
vn -0.9995 -0.0000 0.0327
vn -0.9914 -0.0000 0.1305
vn -0.9659 -0.0000 0.2588
vn -0.9239 -0.0000 0.3827
vn -0.8660 -0.0000 0.5000
vn -0.7934 -0.0000 0.6087
vn -0.7934 -0.0000 0.6088
vn -0.7933 -0.0000 0.6088
vn -0.7071 -0.0000 0.7071
vn -0.6088 -0.0000 0.7933
vn -0.6088 -0.0000 0.7934
vn -0.5000 -0.0000 0.8660
vn -0.3827 -0.0000 0.9239
vn -0.2588 -0.0000 0.9659
vn -0.1306 -0.0000 0.9914
vt 0.200130 0.533896
vt 0.166884 0.500650
vt 0.200130 0.500650
vt 0.166884 0.567143
vt 0.200130 0.567143
vt 0.133637 0.500650
vt 0.133637 0.533896
vt 0.133637 0.567143
vt 0.499349 0.533896
vt 0.166884 0.567143
vt 0.166884 0.533896
vt 0.499349 0.567143
vt 0.499349 0.700129
vt 0.166884 0.666882
vt 0.499349 0.666883
vt 0.166884 0.700129
vt 0.499349 0.666883
vt 0.166884 0.633636
vt 0.499349 0.633636
vt 0.166884 0.666882
vt 0.166884 0.633636
vt 0.499349 0.666882
vt 0.166884 0.666883
vt 0.499349 0.633636
vt 0.250004 0.564053
vt 0.247633 0.563248
vt 0.245387 0.562141
vt 0.243304 0.560749
vt 0.241422 0.559098
vt 0.239770 0.557215
vt 0.238379 0.555133
vt 0.237272 0.552887
vt 0.237272 0.885352
vt 0.166884 0.966101
vt 0.166884 0.700129
vt 0.252460 0.564542
vt 0.254959 0.564705
vt 0.411273 0.564705
vt 0.236466 0.882981
vt 0.235978 0.880525
vt 0.235814 0.878026
vt 0.235814 0.788204
vt 0.235978 0.785706
vt 0.236466 0.783249
vt 0.237271 0.780878
vt 0.238379 0.778632
vt 0.239770 0.776550
vt 0.241422 0.774667
vt 0.243304 0.773016
vt 0.245387 0.771624
vt 0.247633 0.770517
vt 0.250004 0.769712
vt 0.252460 0.769223
vt 0.254959 0.769059
vt 0.499349 0.700129
vt 0.411273 0.769059
vt 0.166884 0.700129
vt 0.081307 0.769223
vt 0.078808 0.769059
vt 0.083763 0.769712
vt 0.086135 0.770517
vt 0.088381 0.771624
vt 0.090463 0.773016
vt 0.092346 0.774667
vt 0.093997 0.776550
vt 0.095388 0.778632
vt 0.096496 0.780878
vt 0.097301 0.783249
vt 0.097789 0.785706
vt 0.097953 0.788204
vt 0.097953 0.878026
vt 0.097789 0.880525
vt 0.097301 0.882981
vt 0.096496 0.885352
vt 0.166884 0.966101
vt 0.096496 0.552887
vt 0.166884 0.633636
vt 0.095388 0.555133
vt 0.093997 0.557215
vt 0.092346 0.559098
vt 0.090463 0.560749
vt 0.088381 0.562141
vt 0.086135 0.563248
vt 0.083763 0.564053
vt 0.081307 0.564542
vt 0.078808 0.564705
vt 0.166884 0.666883
vt 0.499349 0.666882
vt 0.499349 0.500650
vt 0.499349 0.567143
vt 0.966104 0.533898
vt 0.700131 0.500651
vt 0.966104 0.500651
vt 0.700131 0.533898
vt 0.999350 0.700130
vt 0.916230 0.769713
vt 0.666885 0.700130
vt 0.583764 0.769713
vt 0.666885 0.700130
vt 0.586136 0.770518
vt 0.588382 0.771626
vt 0.590464 0.773017
vt 0.592347 0.774668
vt 0.593998 0.776551
vt 0.595389 0.778633
vt 0.596497 0.780879
vt 0.666885 0.966102
vt 0.913774 0.769224
vt 0.911275 0.769061
vt 0.597302 0.783251
vt 0.597791 0.785707
vt 0.597954 0.788206
vt 0.597954 0.878027
vt 0.597954 0.545562
vt 0.666885 0.633637
vt 0.597791 0.548061
vt 0.597302 0.550517
vt 0.596497 0.552888
vt 0.595389 0.555134
vt 0.593998 0.557216
vt 0.592347 0.559099
vt 0.590464 0.560750
vt 0.588382 0.562142
vt 0.586136 0.563249
vt 0.583764 0.564054
vt 0.581308 0.564543
vt 0.578809 0.564707
vt 0.911275 0.564707
vt 0.999350 0.633637
vt 0.754960 0.564707
vt 0.666885 0.633637
vt 0.752461 0.564543
vt 0.750005 0.564054
vt 0.747634 0.563249
vt 0.745388 0.562142
vt 0.743306 0.560750
vt 0.741423 0.559099
vt 0.739772 0.557216
vt 0.738380 0.555134
vt 0.737273 0.552888
vt 0.736468 0.550517
vt 0.735979 0.548061
vt 0.735815 0.545562
vt 0.666885 0.966102
vt 0.735815 0.788206
vt 0.735815 0.878027
vt 0.735979 0.785707
vt 0.736468 0.783251
vt 0.737273 0.780879
vt 0.738380 0.778633
vt 0.739772 0.776551
vt 0.741423 0.774668
vt 0.743306 0.773017
vt 0.745388 0.771626
vt 0.747634 0.770518
vt 0.750005 0.769713
vt 0.752461 0.769224
vt 0.754960 0.769061
vt 0.581308 0.833116
vt 0.578809 0.866363
vt 0.578809 0.833116
vt 0.581308 0.866363
vt 0.911275 0.833116
vt 0.754960 0.866363
vt 0.754960 0.833116
vt 0.911275 0.866363
vt 0.752461 0.866363
vt 0.752461 0.833116
vt 0.750005 0.866363
vt 0.750005 0.833116
vt 0.747634 0.866363
vt 0.747634 0.833116
vt 0.745388 0.866363
vt 0.745388 0.833116
vt 0.743306 0.866363
vt 0.743306 0.833116
vt 0.741423 0.866363
vt 0.741423 0.833116
vt 0.559100 0.866363
vt 0.557218 0.833116
vt 0.559100 0.833116
vt 0.557218 0.866363
vt 0.555135 0.833116
vt 0.555135 0.866363
vt 0.552889 0.833116
vt 0.552889 0.866363
vt 0.550518 0.833116
vt 0.550518 0.866363
vt 0.548062 0.833116
vt 0.548062 0.866363
vt 0.545563 0.833116
vt 0.545563 0.866363
vt 0.878028 0.866363
vt 0.788207 0.833116
vt 0.878028 0.833116
vt 0.788207 0.866363
vt 0.785708 0.833116
vt 0.785708 0.866363
vt 0.783252 0.833116
vt 0.783252 0.866363
vt 0.780880 0.833116
vt 0.780880 0.866363
vt 0.778634 0.833116
vt 0.778634 0.866363
vt 0.776552 0.833116
vt 0.776552 0.866363
vt 0.774669 0.833116
vt 0.774669 0.866363
vt 0.590464 0.866363
vt 0.592347 0.833116
vt 0.592347 0.866363
vt 0.590464 0.833116
vt 0.588382 0.866363
vt 0.588382 0.833116
vt 0.586136 0.866363
vt 0.586136 0.833116
vt 0.583764 0.866363
vt 0.583764 0.833116
s 0
usemtl material_atlas_00005_1
f 3/1/1 2/2/1 1/3/1
f 2/2/1 3/1/1 4/4/1
f 4/4/1 3/1/1 5/5/1
f 8/4/2 7/6/2 6/2/2
f 7/6/2 8/4/2 9/7/2
f 9/7/2 8/4/2 10/8/2
f 9/9/3 5/10/3 3/11/3
f 5/10/3 9/9/3 10/12/3
f 5/13/4 8/14/4 4/15/4
f 8/14/4 5/13/4 10/16/4
f 13/17/4 12/18/4 11/19/4
f 12/18/4 13/17/4 14/20/4
f 12/10/5 15/9/5 11/12/5
f 15/9/5 12/10/5 16/11/5
f 7/21/6 2/22/6 6/23/6
f 2/22/6 7/21/6 1/24/6
f 1/24/6 7/21/6 17/25/6
f 17/25/6 7/21/6 18/26/6
f 18/26/6 7/21/6 19/27/6
f 19/27/6 7/21/6 20/28/6
f 20/28/6 7/21/6 21/29/6
f 21/29/6 7/21/6 22/30/6
f 22/30/6 7/21/6 23/31/6
f 23/31/6 7/21/6 24/32/6
f 24/33/6 7/34/6 25/35/6
f 1/24/6 17/25/6 26/36/6
f 1/24/6 26/36/6 27/37/6
f 1/24/6 27/37/6 28/38/6
f 24/33/6 25/35/6 29/39/6
f 29/39/6 25/35/6 30/40/6
f 30/40/6 25/35/6 31/41/6
f 31/41/6 25/35/6 32/42/6
f 32/42/6 25/35/6 33/43/6
f 33/43/6 25/35/6 34/44/6
f 34/44/6 25/35/6 35/45/6
f 35/45/6 25/35/6 36/46/6
f 36/46/6 25/35/6 37/47/6
f 37/47/6 25/35/6 38/48/6
f 38/48/6 25/35/6 39/49/6
f 39/49/6 25/35/6 40/50/6
f 40/50/6 25/35/6 41/51/6
f 41/51/6 25/35/6 42/52/6
f 42/52/6 25/35/6 43/53/6
f 43/53/6 25/35/6 44/54/6
f 45/55/6 44/54/6 25/35/6
f 45/55/6 46/56/6 44/54/6
f 45/57/6 47/58/6 46/59/6
f 45/57/6 48/60/6 47/58/6
f 45/57/6 49/61/6 48/60/6
f 45/57/6 50/62/6 49/61/6
f 45/57/6 51/63/6 50/62/6
f 45/57/6 52/64/6 51/63/6
f 45/57/6 53/65/6 52/64/6
f 45/57/6 54/66/6 53/65/6
f 45/57/6 55/67/6 54/66/6
f 45/57/6 56/68/6 55/67/6
f 45/57/6 57/69/6 56/68/6
f 45/57/6 58/70/6 57/69/6
f 45/57/6 59/71/6 58/70/6
f 45/57/6 60/72/6 59/71/6
f 45/57/6 61/73/6 60/72/6
f 45/57/6 62/74/6 61/73/6
f 1/75/6 62/74/6 45/57/6
f 62/76/6 1/77/6 63/78/6
f 63/78/6 1/77/6 64/79/6
f 64/79/6 1/77/6 65/80/6
f 65/80/6 1/77/6 66/81/6
f 66/81/6 1/77/6 67/82/6
f 67/82/6 1/77/6 68/83/6
f 68/83/6 1/77/6 69/84/6
f 69/84/6 1/77/6 70/85/6
f 70/85/6 1/77/6 28/86/6
f 45/55/6 25/35/6 71/87/6
f 45/55/6 71/87/6 72/88/6
f 8/4/5 2/89/5 4/90/5
f 2/89/5 8/4/5 6/2/5
f 13/4/1 45/6/1 72/2/1
f 45/6/1 13/4/1 15/7/1
f 15/7/1 13/4/1 11/8/1
f 16/1/2 71/2/2 25/3/2
f 71/2/2 16/1/2 14/4/2
f 14/4/2 16/1/2 12/5/2
f 71/89/3 13/4/3 72/2/3
f 13/4/3 71/89/3 14/90/3
f 9/91/2 25/92/2 7/93/2
f 25/92/2 9/91/2 16/94/2
f 15/91/1 1/92/1 45/93/1
f 1/92/1 15/91/1 3/94/1
f 3/95/4 73/96/4 9/97/4
f 73/98/4 3/99/4 74/100/4
f 74/100/4 3/99/4 75/101/4
f 75/101/4 3/99/4 76/102/4
f 76/102/4 3/99/4 77/103/4
f 77/103/4 3/99/4 78/104/4
f 78/104/4 3/99/4 79/105/4
f 79/105/4 3/99/4 80/106/4
f 80/106/4 3/99/4 15/107/4
f 9/97/4 73/96/4 81/108/4
f 9/97/4 81/108/4 82/109/4
f 80/106/4 15/107/4 83/110/4
f 83/110/4 15/107/4 84/111/4
f 84/111/4 15/107/4 85/112/4
f 85/112/4 15/107/4 86/113/4
f 86/114/4 15/115/4 87/116/4
f 87/116/4 15/115/4 88/117/4
f 88/117/4 15/115/4 89/118/4
f 89/118/4 15/115/4 90/119/4
f 90/119/4 15/115/4 91/120/4
f 91/120/4 15/115/4 92/121/4
f 92/121/4 15/115/4 93/122/4
f 93/122/4 15/115/4 94/123/4
f 94/123/4 15/115/4 95/124/4
f 95/124/4 15/115/4 96/125/4
f 96/125/4 15/115/4 97/126/4
f 97/126/4 15/115/4 98/127/4
f 98/128/4 15/129/4 99/130/4
f 16/131/4 99/130/4 15/129/4
f 16/131/4 100/132/4 99/130/4
f 16/131/4 101/133/4 100/132/4
f 16/131/4 102/134/4 101/133/4
f 16/131/4 103/135/4 102/134/4
f 16/131/4 104/136/4 103/135/4
f 16/131/4 105/137/4 104/136/4
f 16/131/4 106/138/4 105/137/4
f 16/131/4 107/139/4 106/138/4
f 16/131/4 108/140/4 107/139/4
f 16/131/4 109/141/4 108/140/4
f 16/131/4 110/142/4 109/141/4
f 16/131/4 111/143/4 110/142/4
f 16/144/4 112/145/4 111/146/4
f 16/144/4 113/147/4 112/145/4
f 16/144/4 114/148/4 113/147/4
f 16/144/4 115/149/4 114/148/4
f 9/97/4 115/149/4 16/144/4
f 115/149/4 9/97/4 116/150/4
f 116/150/4 9/97/4 117/151/4
f 117/151/4 9/97/4 118/152/4
f 118/152/4 9/97/4 119/153/4
f 119/153/4 9/97/4 120/154/4
f 120/154/4 9/97/4 121/155/4
f 121/155/4 9/97/4 122/156/4
f 122/156/4 9/97/4 123/157/4
f 123/157/4 9/97/4 124/158/4
f 124/158/4 9/97/4 82/109/4
f 26/159/7 124/160/8 27/161/8
f 124/160/8 26/159/7 123/162/7
f 27/163/8 82/164/9 28/165/9
f 82/164/9 27/163/8 124/166/8
f 28/165/9 81/167/10 70/168/10
f 81/167/10 28/165/9 82/164/9
f 70/168/10 73/169/11 69/170/11
f 73/169/11 70/168/10 81/167/10
f 69/170/11 74/171/12 68/172/12
f 74/171/12 69/170/11 73/169/11
f 68/172/12 75/173/13 67/174/13
f 75/173/13 68/172/12 74/171/12
f 67/174/13 76/175/14 66/176/14
f 76/175/14 67/174/13 75/173/13
f 66/176/15 77/177/16 65/178/16
f 77/177/16 66/176/15 76/175/15
f 77/179/16 64/180/17 65/181/16
f 64/180/17 77/179/16 78/182/17
f 78/182/18 63/183/19 64/180/18
f 63/183/19 78/182/18 79/184/19
f 79/184/19 62/185/20 63/183/19
f 62/185/20 79/184/19 80/186/20
f 80/186/20 61/187/21 62/185/20
f 61/187/21 80/186/20 83/188/21
f 83/188/21 60/189/22 61/187/21
f 60/189/22 83/188/21 84/190/22
f 84/190/22 59/191/23 60/189/22
f 59/191/23 84/190/22 85/192/23
f 85/193/23 58/194/24 59/195/23
f 58/194/24 85/193/23 86/196/24
f 86/196/24 57/197/25 58/194/24
f 57/197/25 86/196/24 87/198/25
f 87/198/25 56/199/26 57/197/25
f 56/199/26 87/198/25 88/200/26
f 88/200/26 55/201/27 56/199/26
f 55/201/27 88/200/26 89/202/27
f 89/202/27 54/203/28 55/201/27
f 54/203/28 89/202/27 90/204/28
f 90/204/28 53/205/29 54/203/28
f 53/205/30 90/204/28 91/206/30
f 91/206/31 52/207/32 53/205/31
f 52/207/32 91/206/31 92/208/32
f 93/209/33 52/210/32 92/211/32
f 52/210/32 93/209/33 51/212/33
f 94/213/34 51/212/35 93/209/35
f 51/212/35 94/213/34 50/214/34
f 95/215/36 50/214/34 94/213/34
f 50/214/34 95/215/36 49/216/36
f 96/217/37 49/216/36 95/215/36
f 49/216/36 96/217/37 48/218/37
f 97/162/38 48/218/37 96/217/37
f 48/218/37 97/162/39 47/159/39
f 98/160/40 47/159/38 97/162/38
f 47/159/38 98/160/40 46/161/40
f 99/164/41 46/163/40 98/166/40
f 46/163/40 99/164/41 44/165/41
f 100/167/42 44/165/41 99/164/41
f 44/165/41 100/167/42 43/168/42
f 101/169/43 43/168/42 100/167/42
f 43/168/42 101/169/43 42/170/43
f 102/171/44 42/170/43 101/169/43
f 42/170/43 102/171/44 41/172/44
f 103/173/45 41/172/44 102/171/44
f 41/172/44 103/173/45 40/174/45
f 104/175/46 40/174/45 103/173/45
f 40/174/45 104/175/46 39/176/46
f 105/177/47 39/176/48 104/175/48
f 39/176/48 105/177/47 38/178/47
f 105/179/47 37/180/49 38/181/47
f 37/180/49 105/179/47 106/182/49
f 106/182/50 36/183/51 37/180/50
f 36/183/51 106/182/50 107/184/51
f 107/184/51 35/185/52 36/183/51
f 35/185/52 107/184/51 108/186/52
f 108/186/52 34/187/53 35/185/52
f 34/187/53 108/186/52 109/188/53
f 109/188/53 33/189/54 34/187/53
f 33/189/54 109/188/53 110/190/54
f 110/190/54 32/191/55 33/189/54
f 32/191/55 110/190/54 111/192/55
f 111/193/55 31/194/56 32/195/55
f 31/194/56 111/193/55 112/196/56
f 112/196/56 30/197/57 31/194/56
f 30/197/57 112/196/56 113/198/57
f 113/198/57 29/199/58 30/197/57
f 29/199/58 113/198/57 114/200/58
f 114/200/58 24/201/59 29/199/58
f 24/201/59 114/200/58 115/202/59
f 115/202/59 23/203/60 24/201/59
f 23/203/60 115/202/59 116/204/60
f 116/204/60 22/205/61 23/203/60
f 22/205/62 116/204/60 117/206/61
f 117/206/63 21/207/64 22/205/63
f 21/207/64 117/206/63 118/208/64
f 21/210/64 119/209/65 20/212/65
f 119/209/65 21/210/64 118/211/64
f 20/212/66 120/213/67 19/214/67
f 120/213/67 20/212/66 119/209/66
f 19/214/67 121/215/68 18/216/68
f 121/215/68 19/214/67 120/213/67
f 18/216/68 122/217/69 17/218/69
f 122/217/69 18/216/68 121/215/68
f 17/218/69 123/162/70 26/159/70
f 123/162/7 17/218/69 122/217/69
