# Blender 4.0.2
# www.blender.org
mtllib mnarrow.mtl
o mnarrow
v -5.000000 -0.000000 -4.000000
v -5.000000 -0.000000 -5.000000
v -5.000000 1.000000 -4.000000
v -5.000000 2.000000 -5.000000
v -5.000000 2.000000 -4.000000
v 5.000000 -0.000000 -5.000002
v 5.000000 -0.000000 -4.000002
v 5.000000 2.000000 -5.000002
v 5.000000 1.000000 -4.000002
v 5.000000 2.000000 -4.000002
v 5.000000 0.000000 3.999998
v -5.000000 0.000000 4.000000
v 5.000000 0.000000 4.999998
v -5.000000 0.000000 5.000000
v -5.000000 2.000000 5.000000
v -5.000000 1.000000 4.000000
v -5.000000 2.000000 4.000000
v 5.000000 1.000000 3.999998
v 5.000000 2.000000 4.999998
v 5.000000 2.000000 3.999998
v 0.000000 2.000000 2.499960
v 0.881082 2.000000 2.542795
v -0.881081 2.000000 2.542795
v 1.753853 2.000000 2.670893
v -1.753852 2.000000 2.670894
v 2.610082 2.000000 2.883048
v -2.610082 2.000000 2.883049
v 3.441695 2.000000 3.177259
v -3.441694 2.000000 3.177259
v 4.240847 2.000000 3.550749
v -4.240846 2.000000 3.550750
v -4.240846 1.000000 3.550750
v 4.240847 1.000000 3.550749
v 3.441695 1.000000 3.177259
v 2.610082 1.000000 2.883048
v 1.753853 1.000000 2.670893
v 0.881082 1.000000 2.542795
v 0.000000 1.000000 2.499960
v -0.881081 1.000000 2.542795
v -1.753852 1.000000 2.670894
v -2.610082 1.000000 2.883049
v -3.441694 1.000000 3.177259
v -4.241629 2.000000 -3.548414
v 4.241628 2.000000 -3.548416
v -3.442842 2.000000 -3.172918
v 3.442842 2.000000 -3.172918
v -2.611252 2.000000 -2.877088
v 2.611251 2.000000 -2.877089
v -1.754781 2.000000 -2.663745
v 1.754781 2.000000 -2.663745
v -0.881591 2.000000 -2.534920
v 0.881590 2.000000 -2.534920
v -0.000000 2.000000 -2.491842
v -4.241629 1.000000 -3.548414
v -3.442842 1.000000 -3.172918
v -2.611252 1.000000 -2.877088
v -1.754781 1.000000 -2.663745
v -0.881591 1.000000 -2.534920
v -0.000000 1.000000 -2.491842
v 0.881590 1.000000 -2.534920
v 1.754781 1.000000 -2.663745
v 2.611251 1.000000 -2.877089
v 3.442842 1.000000 -3.172918
v 4.241628 1.000000 -3.548416
vn -1.0000 -0.0000 -0.0000
vn 1.0000 -0.0000 -0.0000
vn -0.0000 -1.0000 -0.0000
vn -0.0000 -0.0000 -1.0000
vn -0.0000 -0.0000 1.0000
vn -0.0000 1.0000 -0.0000
vn -0.4669 -0.0000 -0.8843
vn -0.5093 -0.0000 -0.8606
vn 0.5093 -0.0000 -0.8606
vn 0.4669 -0.0000 -0.8843
vn 0.3789 -0.0000 -0.9254
vn 0.2874 -0.0000 -0.9578
vn 0.2873 -0.0000 -0.9578
vn 0.1931 -0.0000 -0.9812
vn 0.0970 -0.0000 -0.9953
vn -0.0970 -0.0000 -0.9953
vn -0.1931 -0.0000 -0.9812
vn -0.2873 -0.0000 -0.9578
vn -0.2874 -0.0000 -0.9578
vn -0.3789 -0.0000 -0.9254
vn -0.4691 -0.0000 0.8832
vn -0.5116 -0.0000 0.8592
vn -0.3808 -0.0000 0.9247
vn -0.4691 -0.0000 0.8831
vn -0.2888 -0.0000 0.9574
vn -0.3807 -0.0000 0.9247
vn -0.1940 -0.0000 0.9810
vn -0.0975 -0.0000 0.9952
vn -0.1941 -0.0000 0.9810
vn 0.0975 -0.0000 0.9952
vn 0.1941 -0.0000 0.9810
vn 0.1940 -0.0000 0.9810
vn 0.2888 -0.0000 0.9574
vn 0.3808 -0.0000 0.9247
vn 0.4691 -0.0000 0.8832
vn 0.3807 -0.0000 0.9247
vn 0.5116 -0.0000 0.8592
vn 0.4691 -0.0000 0.8831
vt 0.200130 0.533896
vt 0.166884 0.500650
vt 0.200130 0.500650
vt 0.166884 0.567143
vt 0.200130 0.567143
vt 0.166884 0.567143
vt 0.133637 0.500650
vt 0.166884 0.500650
vt 0.133637 0.533896
vt 0.133637 0.567143
vt 0.166884 0.633636
vt 0.499349 0.666883
vt 0.166884 0.666883
vt 0.499349 0.633636
vt 0.499349 0.966101
vt 0.166884 0.966101
vt 0.166884 0.700129
vt 0.499349 0.700129
vt 0.166884 0.666883
vt 0.499349 0.666883
vt 0.166884 0.567143
vt 0.499349 0.500650
vt 0.499349 0.567143
vt 0.166884 0.500650
vt 0.133637 0.500650
vt 0.133637 0.533896
vt 0.133637 0.567143
vt 0.200130 0.533896
vt 0.166884 0.500650
vt 0.200130 0.500650
vt 0.166884 0.567143
vt 0.200130 0.567143
vt 0.362409 0.585189
vt 0.303823 0.585189
vt 0.333116 0.583765
vt 0.274807 0.589448
vt 0.391426 0.589448
vt 0.246340 0.596501
vt 0.419893 0.596501
vt 0.218692 0.606283
vt 0.447541 0.606283
vt 0.192123 0.618700
vt 0.474110 0.618700
vt 0.166884 0.633636
vt 0.499349 0.633636
vt 0.499349 0.666882
vt 0.166884 0.666882
vt 0.141644 0.567143
vt 0.166884 0.533896
vt 0.141644 0.533896
vt 0.192123 0.533896
vt 0.192123 0.567143
vt 0.218692 0.533896
vt 0.218692 0.567143
vt 0.246340 0.533896
vt 0.246340 0.567143
vt 0.274807 0.533896
vt 0.274807 0.567143
vt 0.303823 0.533896
vt 0.303823 0.567143
vt 0.333116 0.533896
vt 0.333116 0.567143
vt 0.362409 0.533896
vt 0.362409 0.567143
vt 0.029944 0.567143
vt 0.058961 0.533896
vt 0.058961 0.567143
vt 0.029944 0.533896
vt 0.087427 0.533896
vt 0.087427 0.567143
vt 0.115075 0.533896
vt 0.115075 0.567143
vt 0.499349 0.700129
vt 0.166884 0.666882
vt 0.499349 0.666882
vt 0.166884 0.700129
vt 0.474136 0.715143
vt 0.192097 0.715143
vt 0.447579 0.727627
vt 0.218654 0.727627
vt 0.419931 0.737462
vt 0.246301 0.737462
vt 0.391457 0.744555
vt 0.274776 0.744555
vt 0.362426 0.748838
vt 0.303807 0.748838
vt 0.333116 0.750270
vt 0.192097 0.533896
vt 0.192097 0.567143
vt 0.218654 0.533896
vt 0.218654 0.567143
vt 0.246301 0.533896
vt 0.246301 0.567143
vt 0.274776 0.533896
vt 0.274776 0.567143
vt 0.303806 0.533896
vt 0.303806 0.567143
vt 0.362426 0.533896
vt 0.362426 0.567143
vt 0.058991 0.533896
vt 0.029961 0.567143
vt 0.029961 0.533896
vt 0.058991 0.567143
vt 0.087466 0.533896
vt 0.087466 0.567143
vt 0.115114 0.533896
vt 0.115114 0.567143
vt 0.141670 0.533896
vt 0.141670 0.567143
vt 0.966104 0.533898
vt 0.700131 0.500651
vt 0.966104 0.500651
vt 0.700131 0.533898
vt 0.966104 0.533898
vt 0.700131 0.500651
vt 0.966104 0.500651
vt 0.700131 0.533898
vt 0.666885 0.966102
vt 0.641672 0.715144
vt 0.666885 0.700130
vt 0.615115 0.727628
vt 0.587467 0.737463
vt 0.558993 0.744556
vt 0.529962 0.748839
vt 0.500652 0.750271
vt 0.641646 0.951166
vt 0.615077 0.938749
vt 0.587428 0.928968
vt 0.558962 0.921914
vt 0.529945 0.917655
vt 0.833117 0.750271
vt 0.862410 0.917655
vt 0.833117 0.916231
vt 0.803825 0.917655
vt 0.774808 0.921914
vt 0.746341 0.928968
vt 0.718693 0.938749
vt 0.692124 0.951166
vt 0.803808 0.748839
vt 0.774777 0.744556
vt 0.746302 0.737463
vt 0.718655 0.727628
vt 0.692098 0.715144
vt 0.666885 0.700130
s 0
usemtl material_atlas_00005_1
f 3/1/1 2/2/1 1/3/1
f 2/2/1 3/1/1 4/4/1
f 4/4/1 3/1/1 5/5/1
f 8/6/2 7/7/2 6/8/2
f 7/7/2 8/6/2 9/9/2
f 9/9/2 8/6/2 10/10/2
f 7/11/3 2/12/3 6/13/3
f 2/12/3 7/11/3 1/14/3
f 1/15/3 7/16/3 11/17/3
f 1/15/3 11/17/3 12/18/3
f 12/18/3 11/17/3 13/19/3
f 12/18/3 13/19/3 14/20/3
f 8/21/4 2/22/4 4/23/4
f 2/22/4 8/21/4 6/24/4
f 15/4/1 12/25/1 14/2/1
f 12/25/1 15/4/1 16/26/1
f 16/26/1 15/4/1 17/27/1
f 18/28/2 13/29/2 11/30/2
f 13/29/2 18/28/2 19/31/2
f 19/31/2 18/28/2 20/32/2
f 13/22/5 15/21/5 14/24/5
f 15/21/5 13/22/5 19/23/5
f 23/33/6 22/34/6 21/35/6
f 22/34/6 23/33/6 24/36/6
f 24/36/6 23/33/6 25/37/6
f 24/36/6 25/37/6 26/38/6
f 26/38/6 25/37/6 27/39/6
f 26/38/6 27/39/6 28/40/6
f 28/40/6 27/39/6 29/41/6
f 28/40/6 29/41/6 30/42/6
f 30/42/6 29/41/6 31/43/6
f 30/42/6 31/43/6 20/44/6
f 20/44/6 31/43/6 17/45/6
f 20/44/6 17/45/6 15/46/6
f 20/44/6 15/46/6 19/47/6
f 31/48/7 16/49/8 17/4/8
f 16/49/8 31/48/7 32/50/7
f 20/4/9 33/51/10 30/52/10
f 33/51/10 20/4/9 18/49/9
f 30/52/10 34/53/11 28/54/11
f 34/53/11 30/52/10 33/51/10
f 28/54/11 35/55/12 26/56/12
f 35/55/12 28/54/11 34/53/11
f 26/56/13 36/57/14 24/58/14
f 36/57/14 26/56/13 35/55/13
f 24/58/14 37/59/15 22/60/15
f 37/59/15 24/58/14 36/57/14
f 22/60/15 38/61/4 21/62/4
f 38/61/4 22/60/15 37/59/15
f 21/62/4 39/63/16 23/64/16
f 39/63/16 21/62/4 38/61/4
f 23/65/16 40/66/17 25/67/17
f 40/66/17 23/65/16 39/68/16
f 25/67/17 41/69/18 27/70/18
f 41/69/18 25/67/17 40/66/17
f 27/70/19 42/71/20 29/72/20
f 42/71/20 27/70/19 41/69/19
f 29/72/20 32/50/7 31/48/7
f 32/50/7 29/72/20 42/71/20
f 5/73/6 8/74/6 4/75/6
f 8/74/6 5/73/6 10/76/6
f 10/76/6 5/73/6 43/77/6
f 10/76/6 43/77/6 44/78/6
f 44/78/6 43/77/6 45/79/6
f 44/78/6 45/79/6 46/80/6
f 46/80/6 45/79/6 47/81/6
f 46/80/6 47/81/6 48/82/6
f 48/82/6 47/81/6 49/83/6
f 48/82/6 49/83/6 50/84/6
f 50/84/6 49/83/6 51/85/6
f 50/84/6 51/85/6 52/86/6
f 52/86/6 51/85/6 53/87/6
f 54/88/21 5/4/22 3/49/22
f 5/4/22 54/88/21 43/89/21
f 55/90/23 43/89/24 54/88/24
f 43/89/24 55/90/23 45/91/23
f 56/92/25 45/91/26 55/90/26
f 45/91/26 56/92/25 47/93/25
f 57/94/27 47/93/25 56/92/25
f 47/93/25 57/94/27 49/95/27
f 58/96/28 49/95/27 57/94/27
f 49/95/29 58/96/28 51/97/28
f 59/61/5 51/97/28 58/96/28
f 51/97/28 59/61/5 53/62/5
f 60/98/30 53/62/5 59/61/5
f 53/62/5 60/98/30 52/99/30
f 61/100/31 52/101/30 60/102/30
f 52/101/30 61/100/32 50/103/32
f 62/104/33 50/103/32 61/100/32
f 50/103/32 62/104/33 48/105/33
f 63/106/34 48/105/33 62/104/33
f 48/105/33 63/106/34 46/107/34
f 64/108/35 46/107/36 63/106/36
f 46/107/36 64/108/35 44/109/35
f 9/49/37 44/109/38 64/108/38
f 44/109/38 9/49/37 10/4/37
f 9/110/2 11/111/2 7/112/2
f 11/111/2 9/110/2 18/113/2
f 16/114/1 1/115/1 12/116/1
f 1/115/1 16/114/1 3/117/1
f 16/118/6 54/119/6 3/120/6
f 54/119/6 16/118/6 55/121/6
f 55/121/6 16/118/6 56/122/6
f 56/122/6 16/118/6 57/123/6
f 57/123/6 16/118/6 58/124/6
f 58/124/6 16/118/6 59/125/6
f 59/125/6 16/118/6 32/126/6
f 59/125/6 32/126/6 42/127/6
f 59/125/6 42/127/6 41/128/6
f 59/125/6 41/128/6 40/129/6
f 59/125/6 40/129/6 39/130/6
f 59/131/6 39/132/6 38/133/6
f 37/134/6 59/131/6 38/133/6
f 36/135/6 59/131/6 37/134/6
f 35/136/6 59/131/6 36/135/6
f 34/137/6 59/131/6 35/136/6
f 33/138/6 59/131/6 34/137/6
f 18/118/6 59/131/6 33/138/6
f 18/118/6 60/139/6 59/131/6
f 18/118/6 61/140/6 60/139/6
f 18/118/6 62/141/6 61/140/6
f 18/118/6 63/142/6 62/141/6
f 18/118/6 64/143/6 63/142/6
f 64/143/6 18/118/6 9/144/6
