# Blender 4.0.2
# www.blender.org
mtllib mobstacle.mtl
o mobstacle
v -5.000001 -0.000000 -3.999998
v -5.000002 -0.000000 -4.999998
v -5.000001 1.000000 -3.999998
v -5.000002 2.000000 -4.999998
v -5.000001 2.000000 -3.999998
v 4.999998 -0.000000 -5.000002
v 4.999999 -0.000000 -4.000002
v 4.999998 2.000000 -5.000002
v 4.999999 1.000000 -4.000002
v 4.999999 2.000000 -4.000002
v -4.999999 2.000000 4.000002
v 5.000001 2.000000 3.999998
v -4.999998 2.000000 5.000002
v 5.000002 2.000000 4.999998
v -4.999999 1.000000 4.000002
v 5.000001 1.000000 3.999998
v 5.000001 0.000000 3.999998
v -4.999999 0.000000 4.000002
v 5.000002 0.000000 4.999998
v -4.999998 0.000000 5.000002
v -2.128202 2.000000 -1.128201
v 2.128201 2.000000 -1.128202
v -2.420202 2.000000 -1.089758
v 2.420201 2.000000 -1.089760
v -2.692302 2.000000 -0.977050
v 2.692301 2.000000 -0.977052
v -2.925960 2.000000 -0.797758
v 2.925960 2.000000 -0.797760
v -3.105252 2.000000 -0.564100
v 3.105252 2.000000 -0.564102
v -3.217960 2.000000 -0.291999
v 3.217960 2.000000 -0.292001
v -3.256402 2.000000 0.000001
v 3.256402 2.000000 -0.000001
v -3.217960 2.000000 0.292001
v 3.217960 2.000000 0.291999
v -3.105252 2.000000 0.564102
v 3.105252 2.000000 0.564099
v -2.925960 2.000000 0.797760
v 2.925960 2.000000 0.797757
v -2.692301 2.000000 0.977052
v 2.692302 2.000000 0.977050
v -2.420201 2.000000 1.089760
v 2.420202 2.000000 1.089758
v -2.128201 2.000000 1.128202
v 2.128202 2.000000 1.128201
v -2.128201 1.000000 1.128202
v 2.128202 1.000000 1.128201
v 2.420202 1.000000 1.089758
v 2.692302 1.000000 0.977050
v 2.925960 1.000000 0.797758
v 3.105252 1.000000 0.564099
v 3.217960 1.000000 0.291999
v 3.256402 1.000000 -0.000001
v 3.217960 1.000000 -0.292001
v 3.105252 1.000000 -0.564102
v 2.925960 1.000000 -0.797760
v 2.692301 1.000000 -0.977052
v 2.420201 1.000000 -1.089760
v 2.128201 1.000000 -1.128202
v -2.128202 1.000000 -1.128201
v -2.420202 1.000000 -1.089758
v -2.692302 1.000000 -0.977050
v -2.925960 1.000000 -0.797758
v -3.105252 1.000000 -0.564100
v -3.217960 1.000000 -0.291999
v -3.256402 1.000000 0.000001
v -3.217960 1.000000 0.292001
v -3.105252 1.000000 0.564102
v -2.925960 1.000000 0.797760
v -2.692301 1.000000 0.977052
v -2.420201 1.000000 1.089760
vn -1.0000 -0.0000 -0.0000
vn 1.0000 -0.0000 -0.0000
vn -0.0000 -0.0000 1.0000
vn -0.0000 1.0000 -0.0000
vn -0.0000 -0.0000 -1.0000
vn -0.0000 -1.0000 -0.0000
vn 0.0654 -0.0000 0.9979
vn -0.0654 -0.0000 0.9979
vn 0.2588 -0.0000 0.9659
vn 0.5000 -0.0000 0.8660
vn 0.7071 -0.0000 0.7071
vn 0.8660 -0.0000 0.5000
vn 0.9659 -0.0000 0.2588
vn 0.9659 -0.0000 -0.2588
vn 0.8660 -0.0000 -0.5000
vn 0.7071 -0.0000 -0.7071
vn 0.5000 -0.0000 -0.8660
vn 0.2588 -0.0000 -0.9659
vn 0.0654 -0.0000 -0.9979
vn -0.0654 -0.0000 -0.9979
vn -0.2588 -0.0000 -0.9659
vn -0.5000 -0.0000 -0.8660
vn -0.7071 -0.0000 -0.7071
vn -0.8660 -0.0000 -0.5000
vn -0.9659 -0.0000 -0.2588
vn -0.9659 -0.0000 0.2588
vn -0.8660 -0.0000 0.5000
vn -0.7071 -0.0000 0.7071
vn -0.5000 -0.0000 0.8660
vn -0.2588 -0.0000 0.9659
vt 0.200130 0.533896
vt 0.166884 0.500650
vt 0.200130 0.500650
vt 0.166884 0.567143
vt 0.200130 0.567143
vt 0.166884 0.567143
vt 0.133637 0.500650
vt 0.166884 0.500650
vt 0.133637 0.533896
vt 0.133637 0.567143
vt 0.499349 0.533896
vt 0.166884 0.567143
vt 0.166884 0.533896
vt 0.499349 0.567143
vt 0.499349 0.700129
vt 0.166884 0.666882
vt 0.499349 0.666883
vt 0.166884 0.700129
vt 0.499349 0.666883
vt 0.166884 0.633636
vt 0.499349 0.633636
vt 0.166884 0.666882
vt 0.166884 0.633636
vt 0.499349 0.666882
vt 0.166884 0.666883
vt 0.499349 0.633636
vt 0.499349 0.966101
vt 0.166884 0.966101
vt 0.166884 0.700129
vt 0.499349 0.700129
vt 0.166884 0.666883
vt 0.499349 0.666882
vt 0.499349 0.500650
vt 0.499349 0.567143
vt 0.413580 0.796884
vt 0.262361 0.795606
vt 0.403872 0.795606
vt 0.252653 0.796884
vt 0.422626 0.800632
vt 0.243607 0.800632
vt 0.430394 0.806592
vt 0.235838 0.806592
vt 0.436355 0.814361
vt 0.229877 0.814361
vt 0.440102 0.823407
vt 0.226130 0.823407
vt 0.441380 0.833115
vt 0.224852 0.833115
vt 0.440102 0.842823
vt 0.226130 0.842823
vt 0.226130 0.510358
vt 0.440102 0.510358
vt 0.436355 0.519404
vt 0.229877 0.519404
vt 0.430394 0.527173
vt 0.235838 0.527173
vt 0.422626 0.533133
vt 0.243607 0.533133
vt 0.413580 0.536881
vt 0.252653 0.536880
vt 0.403872 0.538159
vt 0.262361 0.538159
vt 0.403872 0.533896
vt 0.262361 0.567143
vt 0.262361 0.533896
vt 0.403872 0.567143
vt 0.081114 0.533896
vt 0.071406 0.567143
vt 0.071406 0.533896
vt 0.081114 0.567143
vt 0.090161 0.533896
vt 0.090161 0.567143
vt 0.097929 0.533896
vt 0.097929 0.567143
vt 0.314362 0.567143
vt 0.306594 0.533896
vt 0.314362 0.533896
vt 0.306594 0.567143
vt 0.323408 0.567143
vt 0.323408 0.533896
vt 0.333116 0.567143
vt 0.333116 0.533896
vt 0.010359 0.567143
vt 0.000651 0.533896
vt 0.010359 0.533896
vt 0.000651 0.567143
vt 0.019405 0.567143
vt 0.019405 0.533896
vt 0.027174 0.567143
vt 0.027174 0.533896
vt 0.235838 0.567143
vt 0.243607 0.533896
vt 0.243607 0.567143
vt 0.235838 0.533896
vt 0.252653 0.533896
vt 0.252653 0.567143
vt 0.966104 0.533898
vt 0.700131 0.500651
vt 0.966104 0.500651
vt 0.700131 0.533898
vt 0.999350 0.700130
vt 0.913581 0.796886
vt 0.666885 0.700130
vt 0.581116 0.796886
vt 0.666885 0.700130
vt 0.590162 0.800633
vt 0.597930 0.806594
vt 0.603891 0.814362
vt 0.666885 0.966102
vt 0.903873 0.795608
vt 0.607638 0.823408
vt 0.608916 0.833116
vt 0.608916 0.500651
vt 0.666885 0.633637
vt 0.607638 0.510359
vt 0.603891 0.519405
vt 0.597930 0.527174
vt 0.590162 0.533135
vt 0.581116 0.536882
vt 0.571408 0.538160
vt 0.903873 0.538160
vt 0.999350 0.633637
vt 0.762362 0.538160
vt 0.666885 0.633637
vt 0.752654 0.536882
vt 0.743608 0.533135
vt 0.735839 0.527174
vt 0.729879 0.519405
vt 0.726131 0.510359
vt 0.666885 0.966102
vt 0.724853 0.833116
vt 0.726131 0.842824
vt 0.726131 0.823408
vt 0.729879 0.814362
vt 0.735839 0.806594
vt 0.743608 0.800633
vt 0.752654 0.796886
vt 0.762362 0.795608
s 0
usemtl material_atlas_00005_1
f 3/1/1 2/2/1 1/3/1
f 2/2/1 3/1/1 4/4/1
f 4/4/1 3/1/1 5/5/1
f 8/6/2 7/7/2 6/8/2
f 7/7/2 8/6/2 9/9/2
f 9/9/2 8/6/2 10/10/2
f 9/11/3 5/12/3 3/13/3
f 5/12/3 9/11/3 10/14/3
f 5/15/4 8/16/4 4/17/4
f 8/16/4 5/15/4 10/18/4
f 13/19/4 12/20/4 11/21/4
f 12/20/4 13/19/4 14/22/4
f 12/12/5 15/11/5 11/14/5
f 15/11/5 12/12/5 16/13/5
f 7/23/6 2/24/6 6/25/6
f 2/24/6 7/23/6 1/26/6
f 1/27/6 7/28/6 17/29/6
f 1/27/6 17/29/6 18/30/6
f 18/30/6 17/29/6 19/31/6
f 18/30/6 19/31/6 20/32/6
f 8/4/5 2/33/5 4/34/5
f 2/33/5 8/4/5 6/2/5
f 13/6/1 18/7/1 20/8/1
f 18/7/1 13/6/1 15/9/1
f 15/9/1 13/6/1 11/10/1
f 16/1/2 19/2/2 17/3/2
f 19/2/2 16/1/2 14/4/2
f 14/4/2 16/1/2 12/5/2
f 19/33/3 13/4/3 20/2/3
f 13/4/3 19/33/3 14/34/3
f 23/35/4 22/36/4 21/37/4
f 22/36/4 23/35/4 24/38/4
f 24/38/4 23/35/4 25/39/4
f 24/38/4 25/39/4 26/40/4
f 26/40/4 25/39/4 27/41/4
f 26/40/4 27/41/4 28/42/4
f 28/42/4 27/41/4 29/43/4
f 28/42/4 29/43/4 30/44/4
f 30/44/4 29/43/4 31/45/4
f 30/44/4 31/45/4 32/46/4
f 32/46/4 31/45/4 33/47/4
f 32/46/4 33/47/4 34/48/4
f 34/48/4 33/47/4 35/49/4
f 34/48/4 35/49/4 36/50/4
f 36/51/4 35/52/4 37/53/4
f 36/51/4 37/53/4 38/54/4
f 38/54/4 37/53/4 39/55/4
f 38/54/4 39/55/4 40/56/4
f 40/56/4 39/55/4 41/57/4
f 40/56/4 41/57/4 42/58/4
f 42/58/4 41/57/4 43/59/4
f 42/58/4 43/59/4 44/60/4
f 44/60/4 43/59/4 45/61/4
f 44/60/4 45/61/4 46/62/4
f 48/63/7 45/64/8 47/65/8
f 45/64/8 48/63/7 46/66/7
f 49/67/9 46/68/7 48/69/7
f 46/68/7 49/67/9 44/70/9
f 50/71/10 44/70/9 49/67/9
f 44/70/9 50/71/10 42/72/10
f 51/73/11 42/72/10 50/71/10
f 42/72/10 51/73/11 40/74/11
f 38/75/12 51/76/11 52/77/12
f 51/76/11 38/75/12 40/78/11
f 36/79/13 52/77/12 53/80/13
f 52/77/12 36/79/13 38/75/12
f 34/81/2 53/80/13 54/82/2
f 53/80/13 34/81/2 36/79/13
f 32/83/14 54/84/2 55/85/14
f 54/84/2 32/83/14 34/86/2
f 30/87/15 55/85/14 56/88/15
f 55/85/14 30/87/15 32/83/14
f 28/89/16 56/88/15 57/90/16
f 56/88/15 28/89/16 30/87/15
f 28/91/16 58/92/17 26/93/17
f 58/92/17 28/91/16 57/94/16
f 26/93/17 59/95/18 24/96/18
f 59/95/18 26/93/17 58/92/17
f 24/96/18 60/65/19 22/64/19
f 60/65/19 24/96/18 59/95/18
f 22/64/19 61/63/20 21/66/20
f 61/63/20 22/64/19 60/65/19
f 21/68/20 62/67/21 23/70/21
f 62/67/21 21/68/20 61/69/20
f 23/70/21 63/71/22 25/72/22
f 63/71/22 23/70/21 62/67/21
f 25/72/22 64/73/23 27/74/23
f 64/73/23 25/72/22 63/71/22
f 29/75/24 64/76/23 65/77/24
f 64/76/23 29/75/24 27/78/23
f 31/79/25 65/77/24 66/80/25
f 65/77/24 31/79/25 29/75/24
f 33/81/1 66/80/25 67/82/1
f 66/80/25 33/81/1 31/79/25
f 35/83/26 67/84/1 68/85/26
f 67/84/1 35/83/26 33/86/1
f 37/87/27 68/85/26 69/88/27
f 68/85/26 37/87/27 35/83/26
f 39/89/28 69/88/27 70/90/28
f 69/88/27 39/89/28 37/87/27
f 71/92/29 39/91/28 70/94/28
f 39/91/28 71/92/29 41/93/29
f 72/95/30 41/93/29 71/92/29
f 41/93/29 72/95/30 43/96/30
f 47/65/8 43/96/30 72/95/30
f 43/96/30 47/65/8 45/64/8
f 9/97/2 17/98/2 7/99/2
f 17/98/2 9/97/2 16/100/2
f 15/97/1 1/98/1 18/99/1
f 1/98/1 15/97/1 3/100/1
f 3/101/4 62/102/4 9/103/4
f 62/104/4 3/105/4 63/106/4
f 63/106/4 3/105/4 64/107/4
f 64/107/4 3/105/4 65/108/4
f 65/108/4 3/105/4 15/109/4
f 9/103/4 62/102/4 61/110/4
f 65/108/4 15/109/4 66/111/4
f 66/111/4 15/109/4 67/112/4
f 67/113/4 15/114/4 68/115/4
f 68/115/4 15/114/4 69/116/4
f 69/116/4 15/114/4 70/117/4
f 70/117/4 15/114/4 71/118/4
f 71/118/4 15/114/4 72/119/4
f 72/119/4 15/114/4 47/120/4
f 47/121/4 15/122/4 48/123/4
f 16/124/4 48/123/4 15/122/4
f 16/124/4 49/125/4 48/123/4
f 16/124/4 50/126/4 49/125/4
f 16/124/4 51/127/4 50/126/4
f 16/124/4 52/128/4 51/127/4
f 16/124/4 53/129/4 52/128/4
f 16/130/4 54/131/4 53/132/4
f 16/130/4 55/133/4 54/131/4
f 16/130/4 56/134/4 55/133/4
f 9/103/4 56/134/4 16/130/4
f 56/134/4 9/103/4 57/135/4
f 57/135/4 9/103/4 58/136/4
f 58/136/4 9/103/4 59/137/4
f 59/137/4 9/103/4 60/138/4
f 60/138/4 9/103/4 61/110/4
