# Blender 4.0.2
# www.blender.org
mtllib mstunt.mtl
o mstunt
v -5.000000 -0.000000 -4.000000
v -5.000000 -0.000000 -5.000000
v -5.000000 1.000000 -4.000000
v -5.000000 2.000000 -5.000000
v -5.000000 2.000000 -4.000000
v 5.000000 -0.000000 -5.000002
v 5.000000 -0.000000 -4.000002
v 5.000000 2.000000 -5.000002
v 5.000000 1.000000 -4.000002
v 5.000000 2.000000 -4.000002
v -2.500000 1.000000 -4.000001
v -2.500000 2.000000 -4.000001
v 2.500000 1.000000 -4.000001
v -5.000000 2.000000 4.000000
v -2.500000 2.000000 3.999999
v -5.000000 2.000000 5.000000
v 5.000000 2.000000 3.999998
v 5.000000 2.000000 4.999998
v 2.500000 1.000000 3.999999
v 5.000000 1.000000 3.999998
v -5.000000 1.000000 4.000000
v -2.500000 1.000000 3.999999
v 5.000000 0.000000 3.999998
v -5.000000 0.000000 4.000000
v 5.000000 0.000000 4.999998
v -5.000000 0.000000 5.000000
vn -1.0000 -0.0000 -0.0000
vn 1.0000 -0.0000 -0.0000
vn -0.0000 -0.0000 1.0000
vn -0.0000 1.0000 -0.0000
vn -0.0000 -0.0000 -1.0000
vn -0.0000 -1.0000 -0.0000
vn 0.0985 0.9951 -0.0000
vn 0.1961 0.9806 -0.0000
vt 0.200130 0.533896
vt 0.166884 0.500650
vt 0.200130 0.500650
vt 0.166884 0.567143
vt 0.200130 0.567143
vt 0.166884 0.567143
vt 0.133637 0.500650
vt 0.166884 0.500650
vt 0.133637 0.533896
vt 0.133637 0.567143
vt 0.250000 0.533896
vt 0.166884 0.533896
vt 0.250000 0.567143
vt 0.416233 0.533896
vt 0.499349 0.567143
vt 0.083767 0.533896
vt 0.499349 0.700129
vt 0.166884 0.666882
vt 0.499349 0.666882
vt 0.166884 0.700129
vt 0.166884 0.666882
vt 0.083767 0.633636
vt 0.166884 0.633636
vt 0.416233 0.633636
vt 0.499349 0.666882
vt 0.166884 0.633636
vt 0.166884 0.666882
vt 0.416233 0.567143
vt 0.083767 0.567143
vt 0.166884 0.633636
vt 0.499349 0.666883
vt 0.166884 0.666883
vt 0.499349 0.633636
vt 0.499349 0.966101
vt 0.166884 0.966101
vt 0.166884 0.700129
vt 0.499349 0.700129
vt 0.166884 0.666883
vt 0.499349 0.666883
vt 0.166884 0.567143
vt 0.499349 0.500650
vt 0.499349 0.567143
vt 0.166884 0.500650
vt 0.133637 0.500650
vt 0.133637 0.533896
vt 0.133637 0.567143
vt 0.200130 0.533896
vt 0.166884 0.500650
vt 0.200130 0.500650
vt 0.166884 0.567143
vt 0.200130 0.567143
vt 0.250000 0.533896
vt 0.416233 0.533896
vt 0.416233 0.567143
vt 0.966104 0.533898
vt 0.700131 0.500651
vt 0.966104 0.500651
vt 0.700131 0.533898
vt 0.966104 0.533898
vt 0.700131 0.500651
vt 0.966104 0.500651
vt 0.700131 0.533898
vt 0.666885 0.966102
vt 0.583769 0.700130
vt 0.666885 0.700130
vt 0.583769 0.966102
vt 0.750001 0.966102
vt 0.666885 0.700130
vt 0.750001 0.700130
vt 0.966104 0.567144
vt 0.700131 0.567144
vt 0.916234 0.966102
vt 0.916234 0.700130
s 0
usemtl material_atlas_00005_1
f 3/1/1 2/2/1 1/3/1
f 2/2/1 3/1/1 4/4/1
f 4/4/1 3/1/1 5/5/1
f 8/6/2 7/7/2 6/8/2
f 7/7/2 8/6/2 9/9/2
f 9/9/2 8/6/2 10/10/2
f 11/11/3 5/4/3 3/12/3
f 5/4/3 11/11/3 12/13/3
f 13/14/3 10/15/3 12/13/3
f 10/4/3 13/16/3 9/12/3
f 5/17/4 8/18/4 4/19/4
f 8/18/4 5/17/4 10/20/4
f 10/15/4 5/4/4 12/13/4
f 16/21/4 15/22/4 14/23/4
f 15/24/4 16/25/4 17/26/4
f 17/26/4 16/25/4 18/27/4
f 17/4/5 19/11/5 15/28/5
f 19/11/5 17/4/5 20/12/5
f 15/29/5 21/12/5 14/4/5
f 21/12/5 15/29/5 22/16/5
f 7/30/6 2/31/6 6/32/6
f 2/31/6 7/30/6 1/33/6
f 1/34/6 7/35/6 23/36/6
f 1/34/6 23/36/6 24/37/6
f 24/37/6 23/36/6 25/38/6
f 24/37/6 25/38/6 26/39/6
f 8/40/5 2/41/5 4/42/5
f 2/41/5 8/40/5 6/43/5
f 16/4/1 24/44/1 26/2/1
f 24/44/1 16/4/1 21/45/1
f 21/45/1 16/4/1 14/46/1
f 20/47/2 25/48/2 23/49/2
f 25/48/2 20/47/2 18/50/2
f 18/50/2 20/47/2 17/51/2
f 25/41/3 16/40/3 26/43/3
f 16/40/3 25/41/3 18/42/3
f 13/52/5 11/53/5 12/54/5
f 9/55/2 23/56/2 7/57/2
f 23/56/2 9/55/2 20/58/2
f 21/59/1 1/60/1 24/61/1
f 1/60/1 21/59/1 3/62/1
f 21/63/4 11/64/4 3/65/4
f 11/64/4 21/63/4 22/66/4
f 19/67/7 9/68/4 13/69/7
f 9/68/4 19/67/7 20/63/4
f 15/70/1 11/62/1 22/59/1
f 11/62/1 15/70/1 12/71/1
f 15/72/8 13/69/7 12/73/8
f 13/69/7 15/72/8 19/67/7
