# Aspose.3D Wavefront OBJ Exporter
# Copyright 2004-2020 Aspose Pty Ltd.
# File created: 04/17/2021 14:56:03

mtllib material.lib

#
# object skyscraper_6
#

v -104.5050048828125 -1.50613403320314832 104.50502536758722272
v 104.5050048828125 -1.50613403320314832 104.50502536758722272
v -104.5050048828125 -1.50613403320310168 -104.50498439803777728
v 104.5050048828125 -1.50613403320310168 -104.50498439803777728
v -104.5050048828125 542.90237426757812496 104.50502536758735064
v 104.5050048828125 542.90237426757812496 104.50502536758735064
v -104.5050048828125 542.90237426757812496 -104.50498439803764936
v 104.5050048828125 542.90237426757812496 -104.50498439803764936
v -104.5050048828125 -1.50613403320310432 -93.47796871200262104
v -104.5050048828125 -1.50613403320314568 93.4780020521575352
v 93.47798919677734376 -1.50613403320310168 -104.50498439803777728
v -93.47798156738281248 -1.50613403320310168 -104.50498439803777728
v 104.5050048828125 -1.50613403320314568 93.47800968155206648
v 104.5050048828125 -1.50613403320310432 -93.47796108260808976
v -93.47798919677734376 -1.50613403320314832 104.50502536758722272
v 93.47798156738281248 -1.50613403320314832 104.50502536758722272
v -93.47798919677734376 542.90237426757812496 104.50502536758735064
v 93.47798156738281248 542.90237426757812496 104.50502536758735064
v 104.5050048828125 542.90237426757812496 93.4780096815521944
v 104.5050048828125 542.90237426757812496 -93.47796108260796192
v 93.47798919677734376 542.90237426757812496 -104.50498439803764936
v -93.47798156738281248 542.90237426757812496 -104.50498439803764936
v -104.5050048828125 542.90237426757812496 -93.47796871200249312
v -104.5050048828125 542.90237426757812496 93.47800205215766312
v -93.47798919677734376 -1.50613403320315032 113.64722965225519144
v 93.47798156738281248 -1.50613403320315032 113.64722965225519144
v 93.47798156738281248 542.90237426757812496 113.64722965225531936
v -93.47798919677734376 542.90237426757812496 113.64722965225531936
v 113.64720916748046872 -1.50613403320314568 93.47800968155206648
v 113.64720916748046872 -1.50613403320310432 -93.47796108260808976
v 113.64720916748046872 542.90237426757812496 -93.47796108260796192
v 113.64720916748046872 542.90237426757812496 93.4780096815521944
v 93.47798919677734376 -1.50613403320309968 -113.647188682705746
v -93.47798156738281248 -1.50613403320309968 -113.647188682705746
v -93.47798156738281248 542.90237426757812496 -113.64718868270561816
v 93.47798919677734376 542.90237426757812496 -113.64718868270561816
v -113.64720916748046872 -1.50613403320310432 -93.47796871200262104
v -113.64720916748046872 -1.50613403320314568 93.4780020521575352
v -113.64720916748046872 542.90237426757812496 93.47800205215766312
v -113.64720916748046872 542.90237426757812496 -93.47796871200249312
# 40 vertices

vn 0 -1.1102230246251565E-16 0.99999994039535536
vn 0 -2.220446049250313E-16 1
vn 0 -1.1102230246251565E-16 0.99999994039535536
vn 0 -1.1102230246251565E-16 0.99999994039535536
vn 0 -2.220446049250313E-16 1
vn 0 -1.1102230246251565E-16 0.99999994039535536
vn 0.9999999403953552 0 0
vn 1 0 0
vn 0.9999999403953552 0 0
vn 0.9999999403953552 0 0
vn 1 0 0
vn 0.9999999403953552 0 0
vn 0 1.1102230246251565E-16 -0.99999994039535536
vn 0 2.220446049250313E-16 -1
vn 0 1.1102230246251565E-16 -0.99999994039535536
vn 0 1.1102230246251565E-16 -0.99999994039535536
vn 0 2.220446049250313E-16 -1
vn 0 1.1102230246251565E-16 -0.99999994039535536
vn -0.9999999403953552 0 0
vn -1 0 0
vn -0.9999999403953552 0 0
vn -0.9999999403953552 0 0
vn -1 0 0
vn -0.9999999403953552 0 0
vn 0 -1.1102230246251565E-16 0.99999994039535536
vn 0 -2.220446049250313E-16 1
vn 0 -1.1102230246251565E-16 0.99999994039535536
vn 0 -1.1102230246251565E-16 0.99999994039535536
vn 0 -2.220446049250313E-16 1
vn 0 -1.1102230246251565E-16 0.99999994039535536
vn 0 -1.1102230246251565E-16 0.99999994039535536
vn 0 -2.220446049250313E-16 1
vn 0 -1.1102230246251565E-16 0.99999994039535536
vn 0 -1.1102230246251565E-16 0.99999994039535536
vn 0 -2.220446049250313E-16 1
vn 0 -1.1102230246251565E-16 0.99999994039535536
vn 0.9999999403953552 0 0
vn 1 0 0
vn 0.9999999403953552 0 0
vn 0.9999999403953552 0 0
vn 1 0 0
vn 0.9999999403953552 0 0
vn 0.9999999403953552 0 0
vn 1 0 0
vn 0.9999999403953552 0 0
vn 0.9999999403953552 0 0
vn 1 0 0
vn 0.9999999403953552 0 0
vn 0 1.1102230246251565E-16 -0.99999994039535536
vn 0 2.220446049250313E-16 -1
vn 0 1.1102230246251565E-16 -0.99999994039535536
vn 0 1.1102230246251565E-16 -0.99999994039535536
vn 0 2.220446049250313E-16 -1
vn 0 1.1102230246251565E-16 -0.99999994039535536
vn 0 1.1102230246251565E-16 -0.99999994039535536
vn 0 2.220446049250313E-16 -1
vn 0 1.1102230246251565E-16 -0.99999994039535536
vn 0 1.1102230246251565E-16 -0.99999994039535536
vn 0 2.220446049250313E-16 -1
vn 0 1.1102230246251565E-16 -0.99999994039535536
vn -0.9999999403953552 0 0
vn -1 0 0
vn -0.9999999403953552 0 0
vn -0.9999999403953552 0 0
vn -1 0 0
vn -0.9999999403953552 0 0
vn -0.9999999403953552 0 0
vn -1 0 0
vn -0.9999999403953552 0 0
vn -0.9999999403953552 0 0
vn -1 0 0
vn -0.9999999403953552 0 0
vn 0.9999999403953552 0 0
vn 1 0 0
vn 1 0 0
vn 1 0 0
vn 1 0 0
vn 0.9999999403953552 0 0
vn -0.9999999403953552 0 0
vn -1 0 0
vn -1 0 0
vn -1 0 0
vn -1 0 0
vn -0.9999999403953552 0 0
vn 0 1.1102230246251565E-16 -0.99999994039535536
vn 0 2.220446049250313E-16 -1
vn 0 2.220446049250313E-16 -1
vn 0 2.220446049250313E-16 -1
vn 0 2.220446049250313E-16 -1
vn 0 1.1102230246251565E-16 -0.99999994039535536
vn 0 -1.1102230246251565E-16 0.99999994039535536
vn 0 -2.220446049250313E-16 1
vn 0 -2.220446049250313E-16 1
vn 0 -2.220446049250313E-16 1
vn 0 -2.220446049250313E-16 1
vn 0 -1.1102230246251565E-16 0.99999994039535536
vn -0.9999999403953552 0 0
vn -1 0 0
vn -1 0 0
vn -1 0 0
vn -1 0 0
vn -0.9999999403953552 0 0
vn 0.9999999403953552 0 0
vn 1 0 0
vn 1 0 0
vn 1 0 0
vn 1 0 0
vn 0.9999999403953552 0 0
vn 0 -1.1102230246251565E-16 0.99999994039535536
vn 0 -2.220446049250313E-16 1
vn 0 -2.220446049250313E-16 1
vn 0 -2.220446049250313E-16 1
vn 0 -2.220446049250313E-16 1
vn 0 -1.1102230246251565E-16 0.99999994039535536
vn 0 1.1102230246251565E-16 -0.99999994039535536
vn 0 2.220446049250313E-16 -1
vn 0 2.220446049250313E-16 -1
vn 0 2.220446049250313E-16 -1
vn 0 2.220446049250313E-16 -1
vn 0 1.1102230246251565E-16 -0.99999994039535536
vn 0 1 2.220446049250313E-16
vn 0 1 2.220446049250313E-16
vn 0 1 2.220446049250313E-16
vn 0 0.99999994039535536 1.1102230246251565E-16
vn 0 1 2.220446049250313E-16
vn 0 1 2.220446049250313E-16
vn 0 1 2.220446049250313E-16
vn 0 1 2.220446049250313E-16
vn 0 1 2.220446049250313E-16
vn 0 0.99999994039535536 1.1102230246251565E-16
vn 0 1 2.220446049250313E-16
vn 0 1 2.220446049250313E-16
vn 0 0.99999994039535536 1.1102230246251565E-16
vn 0 1 2.220446049250313E-16
vn 0 1 2.220446049250313E-16
vn 0 1 2.220446049250313E-16
vn 0 1 2.220446049250313E-16
vn 0 1 2.220446049250313E-16
vn 0 1 2.220446049250313E-16
vn 0 1 2.220446049250313E-16
vn 0 1 2.220446049250313E-16
vn 0 1 2.220446049250313E-16
vn 0 1 2.220446049250313E-16
vn 0 1 2.220446049250313E-16
vn 0 1 2.220446049250313E-16
vn 0 1 2.220446049250313E-16
vn 0 1 2.220446049250313E-16
vn 0 0.99999994039535536 1.1102230246251565E-16
vn 0 1 2.220446049250313E-16
vn 0 1 2.220446049250313E-16
vn 0 1 2.220446049250313E-16
vn 0 1 2.220446049250313E-16
vn 0 1 2.220446049250313E-16
vn 0 1 2.220446049250313E-16
vn 0 1 2.220446049250313E-16
vn 0 1 2.220446049250313E-16
vn 0 1 2.220446049250313E-16
vn 0 1 2.220446049250313E-16
vn 0 1 2.220446049250313E-16
vn 0 1 2.220446049250313E-16
vn 0 1 2.220446049250313E-16
vn 0 1 2.220446049250313E-16
vn 0 0.99999994039535536 1.1102230246251565E-16
vn 0 1 2.220446049250313E-16
vn 0 1 2.220446049250313E-16
vn 0 1 2.220446049250313E-16
vn 0 0.99999994039535536 1.1102230246251565E-16
vn 0 1 2.220446049250313E-16
vn 0 1 2.220446049250313E-16
vn 0 1 2.220446049250313E-16
vn 0 1 2.220446049250313E-16
vn 0 1 2.220446049250313E-16
vn 0 1 2.220446049250313E-16
vn 0 1 2.220446049250313E-16
# 174 vertex normals

vt 0.95543324947357184 0.01330606639385223 0
vt 0.73445034027099616 0.5974228382110596 0
vt 0.97909772396087648 0.5974228382110596 0
vt 0.71078550815582272 0.01330606639385223 0
vt 0.48980340361595152 0.5974228382110596 0
vt 0.95543324947357184 0.5974228382110596 0
vt 0.4661399722099304 0.01330606639385223 0
vt 0.24515864253044128 0.5974228382110596 0
vt 0.22149471938610076 0.01330606639385223 0
vt 0.73445034027099616 0.01330606639385223 0
vt 0.74464595317840576 0.01330606639385223 0
vt 0.94523775577545168 0.5974228382110596 0
vt 0.71078550815582272 0.5974228382110596 0
vt 0.7005895376205444 0.5974228382110596 0
vt 0.48980340361595152 0.01330606639385223 0
vt 0.49999850988388064 0.01330606639385223 0
vt 0.4661399722099304 0.5974228382110596 0
vt 0.24515864253044128 0.01330606639385223 0
vt 0.22149471938610076 0.5974228382110596 0
vt 0.97909772396087648 0.01330606639385223 0
vt 0.7005895376205444 0.01330606639385223 0
vt 0.49999850988388064 0.5974228382110596 0
vt 0.2112993448972702 0.5974228382110596 0
vt 0.0107067646458745 0.01330606639385223 0
vt 0.0107067646458745 0.5974228382110596 0
vt 0.2112993448972702 0.01330606639385223 0
vt 0.45594483613967896 0.5974228382110596 0
vt 0.25535392761230468 0.01330606639385223 0
vt 0.25535392761230468 0.5974228382110596 0
vt 0.45594483613967896 0.01330606639385223 0
vt 0.94523775577545168 0.01330606639385223 0
vt 0.74464595317840576 0.5974228382110596 0
vt 0.72261786460876464 0.01330606639385223 0
vt 0.9672656059265136 0.5974228382110596 0
vt 0.47797170281410216 0.01330606639385223 0
vt 0.2333267033100128 0.01330606639385223 0
vt 0.9672656059265136 0.01330606639385223 0
vt 0.72261786460876464 0.5974228382110596 0
vt 0.47797170281410216 0.5974228382110596 0
vt 0.2333267033100128 0.5974228382110596 0
vt 0.98929321765899664 0.5974228382110596 0
vt 0.98929321765899664 0.01330606639385223 0
vt 0.05274051800370216 0.94617891311645504 0
vt 0.07036721706390381 0.96380555629730224 0
vt 0.03812684863805771 0.94617891311645504 0
vt 0.07036721706390381 0.97841894626617424 0
vt 0.05274051800370216 0.96380555629730224 0
vt 0.36921548843383792 0.9638053178787232 0
vt 0.38684195280075072 0.94617891311645504 0
vt 0.4014554023742676 0.94617891311645504 0
vt 0.36921548843383792 0.97841894626617424 0
vt 0.38684195280075072 0.9638053178787232 0
vt 0.3868417739868164 0.64733082056045536 0
vt 0.36921548843383792 0.62970417737960816 0
vt 0.36921548843383792 0.61509072780609128 0
vt 0.4014554023742676 0.64733082056045536 0
vt 0.38684195280075072 0.62970429658889768 0
vt 0.07036721706390381 0.6297045350074768 0
vt 0.05274051800370216 0.64733082056045536 0
vt 0.07036721706390381 0.61509084701538088 0
vt 0.05274072289466858 0.6297045350074768 0
vt 0.03812725469470024 0.64733082056045536 0
# 62 texture coords

g skyscraper_6
usemtl Material #25
s 1
f 28/31/1 25/12/2 26/32/3
f 26/32/4 27/11/5 28/31/6
f 32/21/7 29/14/8 30/22/9
f 30/22/10 31/16/11 32/21/12
f 36/30/13 33/27/14 34/29/15
f 34/29/16 35/28/17 36/30/18
f 40/26/19 37/23/20 38/25/21
f 38/25/22 39/24/23 40/26/24
f 18/10/25 16/2/26 2/38/27
f 2/38/28 6/33/29 18/10/30
f 15/6/31 17/1/32 5/37/33
f 5/37/34 1/34/35 15/6/36
f 20/15/37 14/5/38 4/39/39
f 4/39/40 8/35/41 20/15/42
f 13/13/43 19/4/44 6/33/45
f 6/33/46 2/38/47 13/13/48
f 22/18/49 12/8/50 3/40/51
f 3/40/52 7/36/53 22/18/54
f 11/17/55 21/7/56 8/35/57
f 8/35/58 4/39/59 11/17/60
f 24/20/61 10/3/62 1/34/63
f 1/34/64 5/37/65 24/20/66
f 9/19/67 23/9/68 7/36/69
f 7/36/70 3/40/71 9/19/72
f 27/11/73 26/32/74 16/2/75
f 16/2/76 18/10/77 27/11/78
f 25/12/79 28/31/80 17/1/81
f 17/1/82 15/6/83 25/12/84
f 31/16/85 30/22/86 14/5/87
f 14/5/88 20/15/89 31/16/90
f 29/14/91 32/21/92 19/4/93
f 19/4/94 13/13/95 29/14/96
f 35/28/97 34/29/98 12/8/99
f 12/8/100 22/18/101 35/28/102
f 33/27/103 36/30/104 21/7/105
f 21/7/106 11/17/107 33/27/108
f 39/42/109 38/41/110 10/3/111
f 10/3/112 24/20/113 39/42/114
f 37/23/115 40/26/116 23/9/117
f 23/9/118 9/19/119 37/23/120
f 23/43/121 40/45/122 39/62/123
f 24/59/124 5/61/125 17/58/126
f 17/58/127 28/60/128 27/55/129
f 24/59/130 17/58/131 27/55/132
f 24/59/133 27/55/134 18/54/135
f 18/54/136 6/57/137 19/53/138
f 19/53/139 32/56/140 31/50/141
f 18/54/142 19/53/143 31/50/144
f 18/54/145 31/50/146 20/49/147
f 24/59/148 18/54/149 20/49/150
f 20/49/151 8/52/152 21/48/153
f 21/48/154 36/51/155 35/46/156
f 20/49/157 21/48/158 35/46/159
f 20/49/160 35/46/161 22/44/162
f 24/59/163 20/49/164 22/44/165
f 39/62/166 24/59/167 22/44/168
f 23/43/169 39/62/170 22/44/171
f 23/43/172 22/44/173 7/47/174
#58 polygons

