# Aspose.3D Wavefront OBJ Exporter
# Copyright 2004-2020 Aspose Pty Ltd.
# File created: 04/17/2021 14:57:20

mtllib material.lib

#
# object skyscraper_2
#

v -100.7729415893554688 -1.50613403320314744 100.77296207413019152
v 100.7729415893554688 -1.50613403320314744 100.77296207413019152
v -100.7729415893554688 -1.50613403320310256 -100.77292110458074608
v 100.7729415893554688 -1.50613403320310256 -100.77292110458074608
v -100.7729415893554688 1055.74606323242187504 100.77296207413043312
v 100.7729415893554688 1055.74606323242187504 100.77296207413043312
v -100.7729415893554688 1055.74606323242187504 -100.77292110458050448
v 100.7729415893554688 1055.74606323242187504 -100.77292110458050448
v -100.7729415893554688 -1.50613403320313432 41.52686832413019144
v -100.7729415893554688 -1.50613403320311568 -41.52683879867254288
v 100.7729415893554688 -1.50613403320311568 -41.526827354580746
v 100.7729415893554688 -1.50613403320313432 41.52687976822198832
v 100.7729415893554688 1055.74606323242187504 41.52686832413042592
v 100.7729415893554688 1055.74606323242187504 -41.5268387986723084
v -100.7729415893554688 1055.74606323242187504 -41.52682735458051152
v -100.7729415893554688 1055.74606323242187504 41.5268797682222228
v -41.52684783935546872 -1.50613403320310256 -100.77292110458074608
v 41.5268592834472656 -1.50613403320310256 -100.77292110458074608
v 41.52684783935546872 -1.50613403320314744 100.77296207413019152
v -41.5268592834472656 -1.50613403320314744 100.77296207413019152
v -41.52684783935546872 1055.74606323242187504 100.77296207413043312
v 41.5268592834472656 1055.74606323242187504 100.77296207413043312
v 41.52684783935546872 1055.74606323242187504 -100.77292110458050448
v -41.5268592834472656 1055.74606323242187504 -100.77292110458050448
v 41.52684783935546872 1100.116668701171875 -41.52683879867230136
v -41.5268592834472656 1100.116668701171875 -41.52683116927777008
v -41.52684783935546872 1100.116668701171875 41.52687976822222992
v 41.5268592834472656 1100.116668701171875 41.52687213882769864
v -41.5268592834472656 -1.50613403320315008 113.09637210830987896
v 41.52684783935546872 -1.50613403320315008 113.09637210830987896
v 41.5268592834472656 1055.74606323242187504 113.09637210831012056
v -41.52684783935546872 1055.74606323242187504 113.09637210831012056
v 113.09635162353515624 -1.50613403320313432 41.52687976822198832
v 113.09635162353515624 -1.50613403320311568 -41.526827354580746
v 113.09635162353515624 1055.74606323242187504 -41.5268387986723084
v 113.09635162353515624 1055.74606323242187504 41.52686832413042592
v 41.5268592834472656 -1.50613403320309992 -113.09633113876043354
v -41.52684783935546872 -1.50613403320309992 -113.09633113876043354
v -41.5268592834472656 1055.74606323242187504 -113.09633113876019194
v 41.52684783935546872 1055.74606323242187504 -113.09633113876019194
v -113.09635162353515624 -1.50613403320311568 -41.52683879867254288
v -113.09635162353515624 -1.50613403320313432 41.52686832413019144
v -113.09635162353515624 1055.74606323242187504 41.5268797682222228
v -113.09635162353515624 1055.74606323242187504 -41.52682735458051152
v -83.07039642333984375 1055.74606323242187504 83.07041690811480805
v -41.52684783935546872 1055.74606323242187504 83.07041690811480805
v 41.5268592834472656 1055.74606323242187504 83.07041690811480805
v 83.07039642333984375 1055.74606323242187504 83.07041690811480805
v 83.07039642333984375 1055.74606323242187504 41.52686832413042592
v 83.07039642333984375 1055.74606323242187504 -41.5268387986723084
v 83.07039642333984375 1055.74606323242187504 -83.07037593856487945
v 41.52684783935546872 1055.74606323242187504 -83.07037593856487945
v -41.5268592834472656 1055.74606323242187504 -83.07037593856487945
v -83.07039642333984375 1055.74606323242187504 -83.07037593856487945
v -83.07039642333984375 1055.74606323242187504 -41.52682735458051152
v -83.07039642333984375 1055.74606323242187504 41.5268797682222228
v -83.07039642333984375 1100.116668701171875 83.07041690811480805
v -41.52684783935546872 1100.116668701171875 83.07041690811480805
v 41.5268592834472656 1100.116668701171875 83.07041690811480805
v 83.07039642333984375 1100.116668701171875 83.07041690811480805
v 83.07039642333984375 1100.116668701171875 41.52686832413043304
v 83.07039642333984375 1100.116668701171875 -41.52683879867230136
v 83.07039642333984375 1100.116668701171875 -83.07037593856487945
v 41.52684783935546872 1100.116668701171875 -83.07037593856487945
v -41.5268592834472656 1100.116668701171875 -83.07037593856487945
v -83.07039642333984375 1100.116668701171875 -83.07037593856487945
v -83.07039642333984375 1100.116668701171875 -41.52682735458050448
v -83.07039642333984375 1100.116668701171875 41.52687976822222992
v 41.52684783935546872 1114.94467163085937504 -41.52683879867229424
v -41.5268592834472656 1114.94467163085937504 -41.52683116927776296
v -41.52684783935546872 1114.94467163085937504 41.52687976822223704
v 41.5268592834472656 1114.94467163085937504 41.52687213882770576
# 72 vertices

vn 0 1 2.220446049250313E-16
vn 0 1 2.220446049250313E-16
vn 0 1 2.220446049250313E-16
vn 0 1 2.220446049250313E-16
vn 0 -2.220446049250313E-16 1
vn 0 -2.220446049250313E-16 1
vn 0 -2.220446049250313E-16 1
vn 0 -2.220446049250313E-16 1
vn 1 0 0
vn 1 0 0
vn 1 0 0
vn 1 0 0
vn 0 2.220446049250313E-16 -1
vn 0 2.220446049250313E-16 -1
vn 0 2.220446049250313E-16 -1
vn 0 2.220446049250313E-16 -1
vn -1 0 0
vn -1 0 0
vn -1 0 0
vn -1 0 0
vn 0 1 2.220446049250313E-16
vn 0 1 2.220446049250313E-16
vn 0 1 2.220446049250313E-16
vn 0 1 2.220446049250313E-16
vn 0 1 2.220446049250313E-16
vn 0 1 2.220446049250313E-16
vn 0 1 2.220446049250313E-16
vn 0 1 2.220446049250313E-16
vn 1 0 0
vn 1 0 0
vn 1 0 0
vn 1 0 0
vn 1 0 0
vn 1 0 0
vn 1 0 0
vn 1 0 0
vn -1 0 0
vn -1 0 0
vn -1 0 0
vn -1 0 0
vn -1 0 0
vn -1 0 0
vn -1 0 0
vn -1 0 0
vn 0 1 2.220446049250313E-16
vn 0 1 2.220446049250313E-16
vn 0 1 2.220446049250313E-16
vn 0 1 2.220446049250313E-16
vn 0 1 2.220446049250313E-16
vn 0 1 2.220446049250313E-16
vn 0 1 2.220446049250313E-16
vn 0 1 2.220446049250313E-16
vn 0 -2.220446049250313E-16 1
vn 0 -2.220446049250313E-16 1
vn 0 -2.220446049250313E-16 1
vn 0 -2.220446049250313E-16 1
vn 0 -2.220446049250313E-16 1
vn 0 -2.220446049250313E-16 1
vn 0 -2.220446049250313E-16 1
vn 0 -2.220446049250313E-16 1
vn 0 2.220446049250313E-16 -1
vn 0 2.220446049250313E-16 -1
vn 0 2.220446049250313E-16 -1
vn 0 2.220446049250313E-16 -1
vn 0 2.220446049250313E-16 -1
vn 0 2.220446049250313E-16 -1
vn 0 2.220446049250313E-16 -1
vn 0 2.220446049250313E-16 -1
vn 0 1 2.220446049250313E-16
vn 0 1 2.220446049250313E-16
vn 0 1 2.220446049250313E-16
vn 0 1 2.220446049250313E-16
vn 0 1 2.220446049250313E-16
vn 0 1 2.220446049250313E-16
vn 0 1 2.220446049250313E-16
vn 0 1 2.220446049250313E-16
vn 0 1 2.220446049250313E-16
vn 0 1 2.220446049250313E-16
vn 0 1 2.220446049250313E-16
vn 0 1 2.220446049250313E-16
vn 0 1 2.220446049250313E-16
vn 0 1 2.220446049250313E-16
vn 0 1 2.220446049250313E-16
vn 0 1 2.220446049250313E-16
vn 1 -1.0824371621254157E-08 -3.308722450212111E-24
vn 1 -1.0824371621254157E-08 -3.308722450212111E-24
vn 1 -1.0824371621254157E-08 -3.308722450212111E-24
vn 1 -1.0824371621254157E-08 -3.308722450212111E-24
vn 0 1 2.220446049250313E-16
vn 0 1 2.220446049250313E-16
vn 0 1 2.220446049250313E-16
vn 0 1 2.220446049250313E-16
vn -1 1.0824371621254157E-08 3.308722450212111E-24
vn -1 1.0824371621254157E-08 3.308722450212111E-24
vn -1 1.0824371621254157E-08 3.308722450212111E-24
vn -1 1.0824371621254157E-08 3.308722450212111E-24
vn 0 -1.0824371399209554E-08 -1
vn 0 -1.0824371399209554E-08 -1
vn 0 -1.0824371399209554E-08 -1
vn 0 -1.0824371399209554E-08 -1
vn 0 1 2.220446049250313E-16
vn 0 1 2.220446049250313E-16
vn 0 1 2.220446049250313E-16
vn 0 1 2.220446049250313E-16
vn 0 1.0824371399209554E-08 1
vn 0 1.0824371399209554E-08 1
vn 0 1.0824371399209554E-08 1
vn 0 1.0824371399209554E-08 1
vn -1 -1.0824371621254157E-08 -3.308722450212111E-24
vn -1 -1.0824371621254157E-08 -3.308722450212111E-24
vn -1 -1.0824371621254157E-08 -3.308722450212111E-24
vn -1 -1.0824371621254157E-08 -3.308722450212111E-24
vn 0 1 2.220446049250313E-16
vn 0 1 2.220446049250313E-16
vn 0 1 2.220446049250313E-16
vn 0 1 2.220446049250313E-16
vn 1 1.0824371621254157E-08 3.308722450212111E-24
vn 1 1.0824371621254157E-08 3.308722450212111E-24
vn 1 1.0824371621254157E-08 3.308722450212111E-24
vn 1 1.0824371621254157E-08 3.308722450212111E-24
vn 0 -1.0824371843298763E-08 1
vn 0 -1.0824371843298763E-08 1
vn 0 -1.0824371843298763E-08 1
vn 0 -1.0824371843298763E-08 1
vn 0 1 2.220446049250313E-16
vn 0 1 2.220446049250313E-16
vn 0 1 2.220446049250313E-16
vn 0 1 2.220446049250313E-16
vn 0 1.0824371843298763E-08 -1
vn 0 1.0824371843298763E-08 -1
vn 0 1.0824371843298763E-08 -1
vn 0 1.0824371843298763E-08 -1
vn 0 1 2.220446049250313E-16
vn 0 1 2.220446049250313E-16
vn 0 1 2.220446049250313E-16
vn 0 1 2.220446049250313E-16
vn 0 1 2.220446049250313E-16
vn 0 1 2.220446049250313E-16
vn 0 1 2.220446049250313E-16
vn 0 1 2.220446049250313E-16
vn 0 1 2.220446049250313E-16
vn 0 1 2.220446049250313E-16
vn 0 1 2.220446049250313E-16
vn 0 1 2.220446049250313E-16
vn 0 1 2.220446049250313E-16
vn 0 1 2.220446049250313E-16
vn 0 1 2.220446049250313E-16
vn 0 1 2.220446049250313E-16
vn 0 1 2.220446049250313E-16
vn 0 1 2.220446049250313E-16
vn 0 1 2.220446049250313E-16
vn 0 1 2.220446049250313E-16
vn 0 1 2.220446049250313E-16
vn 0 1 2.220446049250313E-16
vn 0 1 2.220446049250313E-16
vn 0 1 2.220446049250313E-16
vn 0 1 2.220446049250313E-16
vn 0 1 2.220446049250313E-16
vn 0 1 2.220446049250313E-16
vn 0 1 2.220446049250313E-16
vn 0 1 2.220446049250313E-16
vn 0 1 2.220446049250313E-16
vn 0 1 2.220446049250313E-16
vn 0 1 2.220446049250313E-16
vn 0 1 2.220446049250313E-16
vn 0 1 2.220446049250313E-16
vn 0 1 2.220446049250313E-16
vn 0 1 2.220446049250313E-16
vn 0 1 2.220446049250313E-16
vn 0 1 2.220446049250313E-16
vn 0 1 2.220446049250313E-16
vn 0 1 2.220446049250313E-16
vn 0 1 2.220446049250313E-16
vn 0 1 2.220446049250313E-16
vn 0 1 2.220446049250313E-16
vn 0 1 2.220446049250313E-16
vn 0 1 2.220446049250313E-16
vn 0 1 2.220446049250313E-16
vn 0 1 2.220446049250313E-16
vn 0 1 2.220446049250313E-16
vn 0 -2.220446049250313E-16 1
vn 0 -2.220446049250313E-16 1
vn 0 -2.220446049250313E-16 1
vn 0 -2.220446049250313E-16 1
vn 0 -2.220446049250313E-16 1
vn 0 -2.220446049250313E-16 1
vn 0 -2.220446049250313E-16 1
vn 0 -2.220446049250313E-16 1
vn 0 -2.220446049250313E-16 1
vn 0 -2.220446049250313E-16 1
vn 0 -2.220446049250313E-16 1
vn 0 -2.220446049250313E-16 1
vn 1 0 0
vn 1 0 0
vn 1 0 0
vn 1 0 0
vn 1 0 0
vn 1 0 0
vn 1 0 0
vn 1 0 0
vn 1 0 0
vn 1 0 0
vn 1 0 0
vn 1 0 0
vn 0 2.220446049250313E-16 -1
vn 0 2.220446049250313E-16 -1
vn 0 2.220446049250313E-16 -1
vn 0 2.220446049250313E-16 -1
vn 0 2.220446049250313E-16 -1
vn 0 2.220446049250313E-16 -1
vn 0 2.220446049250313E-16 -1
vn 0 2.220446049250313E-16 -1
vn 0 2.220446049250313E-16 -1
vn 0 2.220446049250313E-16 -1
vn 0 2.220446049250313E-16 -1
vn 0 2.220446049250313E-16 -1
vn -1 0 0
vn -1 0 0
vn -1 0 0
vn -1 0 0
vn -1 0 0
vn -1 0 0
vn -1 0 0
vn -1 0 0
vn -1 0 0
vn -1 0 0
vn -1 0 0
vn -1 0 0
vn -9.186097571500795E-08 2.220446049250313E-16 -1
vn -9.186097571500795E-08 2.220446049250313E-16 -1
vn -9.186097571500795E-08 2.220446049250313E-16 -1
vn -9.186097571500795E-08 2.220446049250313E-16 -1
vn -1 -2.6469779601696886E-23 1.3779146001979825E-07
vn -1 -2.6469779601696886E-23 1.3779146001979825E-07
vn -1 -2.6469779601696886E-23 1.3779146001979825E-07
vn -1 -2.6469779601696886E-23 1.3779146001979825E-07
vn 9.186097571500795E-08 -2.220446049250313E-16 1
vn 9.186097571500795E-08 -2.220446049250313E-16 1
vn 9.186097571500795E-08 -2.220446049250313E-16 1
vn 9.186097571500795E-08 -2.220446049250313E-16 1
vn 1 2.6469779601696886E-23 -1.3779146001979825E-07
vn 1 2.6469779601696886E-23 -1.3779146001979825E-07
vn 1 2.6469779601696886E-23 -1.3779146001979825E-07
vn 1 2.6469779601696886E-23 -1.3779146001979825E-07
# 244 vertex normals

vt 0.56894528865814208 0.84496724605560304 0
vt 0.47360259294509888 0.84496724605560304 0
vt 0.48826813697814944 0.84496724605560304 0
vt 0.55427998304367064 0.84496724605560304 0
vt 0.56894528865814208 0.00462368689477443 0
vt 0.4265136420726776 0.84496724605560304 0
vt 0.61603391170501712 0.00462368689477443 0
vt 0.66312247514724728 0.84496724605560304 0
vt 0.75846636295318608 0.00462368689477443 0
vt 0.61603391170501712 0.84496724605560304 0
vt 0.80555689334869392 0.00462368689477443 0
vt 0.85264730453491216 0.84496724605560304 0
vt 0.94799512624740608 0.00462368689477443 0
vt 0.80555689334869392 0.84496724605560304 0
vt 0.23698619008064272 0.00462368689477443 0
vt 0.28407722711563112 0.84496724605560304 0
vt 0.3794245421886444 0.00462368689477443 0
vt 0.23698619008064272 0.84496724605560304 0
vt 0.4265136420726776 0.00462368689477443 0
vt 0.75846636295318608 0.84496724605560304 0
vt 0.66312247514724728 0.00462368689477443 0
vt 0.23219960927963256 0.84740895032882688 0
vt 0.74379903078079216 0.84496724605560304 0
vt 0.28407722711563112 0.00462368689477443 0
vt 0.3794245421886444 0.84496724605560304 0
vt 0.94799512624740608 0.84496724605560304 0
vt 0.47360259294509888 0.00462368689477443 0
vt 0.15088972449302674 0.99463766813278192 0
vt 0.93332803249359136 0.84496724605560304 0
vt 0.85264730453491216 0.00462368689477443 0
vt 0.15088972449302674 0.84740895032882688 0
vt 0.08509082347154617 0.91289621591568 0
vt 0.08509082347154617 0.84740895032882688 0
vt 0.15088972449302674 0.91289621591568 0
vt 0.48826813697814944 0.00462368689477443 0
vt 0.6777876615524292 0.00462368689477443 0
vt 0.74379903078079216 0.00462368689477443 0
vt 0.86731463670730592 0.00462368689477443 0
vt 0.93332803249359136 0.00462368689477443 0
vt 0.29874458909034728 0.00462368689477443 0
vt 0.36475902795791624 0.84496724605560304 0
vt 0.36475902795791624 0.00462368689477443 0
vt 0.00376579537987709 0.91289621591568 0
vt 0.03422961756587028 0.9641056656837464 0
vt 0.03422961756587028 0.79618942737579344 0
vt 0.08509082347154617 0.79618942737579344 0
vt 0.20174424350261688 0.79618942737579344 0
vt 0.20174424350261688 0.84740895032882688 0
vt 0.1706504374742508 0.84740895032882688 0
vt 0.20174424350261688 0.9641056656837464 0
vt 0.15088972449302674 0.9641056656837464 0
vt 0.15088972449302674 0.93297284841537472 0
vt 0.03422961756587028 0.91289621591568 0
vt 0.06532488763332367 0.91289621591568 0
vt 0.06532488763332367 0.93297284841537472 0
vt 0.03422961756587028 0.84740895032882688 0
vt 0.08509082347154617 0.82732427120208736 0
vt 0.06532488763332367 0.82732427120208736 0
vt 0.1706504374742508 0.82732427120208736 0
vt 0.20174424350261688 0.91289621591568 0
vt 0.1706504374742508 0.91289621591568 0
vt 0.1706504374742508 0.93297284841537472 0
vt 0.08509082347154617 0.9641056656837464 0
vt 0.08509082347154617 0.93297284841537472 0
vt 0.06532488763332367 0.84740895032882688 0
vt 0.1371324360370636 0.89945012331008912 0
vt 0.1371324360370636 0.8608476519584656 0
vt 0.55427998304367064 0.00462368689477443 0
vt 0.09884359687566758 0.89945012331008912 0
vt 0.09884359687566758 0.8608476519584656 0
vt 0.15088972449302674 0.82732427120208736 0
vt 0.15088972449302674 0.79618942737579344 0
vt 0.08509082347154617 0.98101788759231568 0
vt 0.08509082347154617 0.99463766813278192 0
vt 0.15088972449302674 0.98101788759231568 0
vt 0.86731463670730592 0.84496724605560304 0
vt 0.01725247129797935 0.98101788759231568 0
vt 0.01725247129797935 0.91289621591568 0
vt 0.29874458909034728 0.84496724605560304 0
vt 0.01725247129797935 0.84740895032882688 0
vt 0.00376579537987709 0.84740895032882688 0
vt 0.08509082347154617 0.77927613258361824 0
vt 0.01725247129797935 0.77927613258361824 0
vt 0.08509082347154617 0.76564973592758176 0
vt 0.15088972449302674 0.77927613258361824 0
vt 0.15088972449302674 0.76564973592758176 0
vt 0.21872051060199736 0.77927613258361824 0
vt 0.21872051060199736 0.84740895032882688 0
vt 0.6777876615524292 0.84496724605560304 0
vt 0.21872051060199736 0.98101788759231568 0
vt 0.21872051060199736 0.91289621591568 0
vt 0.23219960927963256 0.91289621591568 0
vt 0.99508565664291376 0.00462368689477443 0
vt 0.99508565664291376 0.84496724605560304 0
# 94 texture coords

g skyscraper_2
usemtl Material #25
s 1
f 70/69/1 71/70/2 72/67/3 69/66/4
f 30/68/5 31/4/6 32/3/7 29/35/8
f 34/37/9 35/23/10 36/89/11 33/36/12
f 38/39/13 39/29/14 40/76/15 37/38/16
f 42/42/17 43/41/18 44/79/19 41/40/20
f 65/64/21 26/32/22 25/34/23 64/52/24
f 59/71/25 28/31/26 27/33/27 58/57/28
f 4/11/29 8/14/30 14/20/31 11/9/32
f 6/10/33 2/7/34 12/21/35 13/8/36
f 1/19/37 5/6/38 16/25/39 9/17/40
f 7/18/41 3/15/42 10/24/43 15/16/44
f 67/54/45 68/65/46 27/33/47 26/32/48
f 61/49/49 62/61/50 25/34/51 28/31/52
f 2/7/53 6/10/54 22/1/55 19/5/56
f 5/6/57 1/19/58 20/27/59 21/2/60
f 3/93/61 7/94/62 24/26/63 17/13/64
f 8/14/65 4/11/66 18/30/67 23/12/68
f 66/55/69 67/54/70 26/32/71 65/64/72
f 62/61/73 63/62/74 64/52/75 25/34/76
f 60/59/77 61/49/78 28/31/79 59/71/80
f 68/65/81 57/58/82 58/57/83 27/33/84
f 19/5/85 22/1/86 31/4/87 30/68/88
f 22/85/89 21/82/90 32/84/91 31/86/92
f 21/2/93 20/27/94 29/35/95 32/3/96
f 11/9/97 14/20/98 35/23/99 34/37/100
f 14/91/101 13/88/102 36/22/103 35/92/104
f 13/8/105 12/21/106 33/36/107 36/89/108
f 17/13/109 24/26/110 39/29/111 38/39/112
f 24/73/113 23/75/114 40/28/115 39/74/116
f 23/12/117 18/30/118 37/38/119 40/76/120
f 9/17/121 16/25/122 43/41/123 42/42/124
f 16/80/125 15/78/126 44/43/127 43/81/128
f 15/16/129 10/24/130 41/40/131 44/79/132
f 5/83/133 21/82/134 46/46/135 45/45/136
f 21/82/137 22/85/138 47/72/139 46/46/140
f 22/85/141 6/87/142 48/47/143 47/72/144
f 6/87/145 13/88/146 49/48/147 48/47/148
f 13/88/149 14/91/150 50/60/151 49/48/152
f 14/91/153 8/90/154 51/50/155 50/60/156
f 8/90/157 23/75/158 52/51/159 51/50/160
f 23/75/161 24/73/162 53/63/163 52/51/164
f 24/73/165 7/77/166 54/44/167 53/63/168
f 7/77/169 15/78/170 55/53/171 54/44/172
f 15/78/173 16/80/174 56/56/175 55/53/176
f 16/80/177 5/83/178 45/45/179 56/56/180
f 45/45/181 46/46/182 58/57/183 57/58/184
f 46/46/185 47/72/186 59/71/187 58/57/188
f 47/72/189 48/47/190 60/59/191 59/71/192
f 48/47/193 49/48/194 61/49/195 60/59/196
f 49/48/197 50/60/198 62/61/199 61/49/200
f 50/60/201 51/50/202 63/62/203 62/61/204
f 51/50/205 52/51/206 64/52/207 63/62/208
f 52/51/209 53/63/210 65/64/211 64/52/212
f 53/63/213 54/44/214 66/55/215 65/64/216
f 54/44/217 55/53/218 67/54/219 66/55/220
f 55/53/221 56/56/222 68/65/223 67/54/224
f 56/56/225 45/45/226 57/58/227 68/65/228
f 25/34/229 26/32/230 70/69/231 69/66/232
f 26/32/233 27/33/234 71/70/235 70/69/236
f 27/33/237 28/31/238 72/67/239 71/70/240
f 28/31/241 25/34/242 69/66/243 72/67/244
#61 polygons

