# Aspose.3D Wavefront OBJ Exporter
# Copyright 2004-2020 Aspose Pty Ltd.
# File created: 04/18/2021 11:16:49

mtllib material.lib

#
# object skyscraper_3
#

v 111.68355560302734376 380.87916147614305376 70.36798858642586648
v 70.36798858642578128 380.87916147614305376 111.68355560302742904
v -111.68355560302734376 380.87916147614305376 111.68355560302742904
v -111.68355560302734376 380.87916147614305376 -111.68355560302725848
v 111.68355560302734376 380.87916147614305376 -111.68355560302725848
v 73.21697235107421876 394.2551600587903522 118.562492370605554
v -116.9483718872070312 394.2551600587903522 116.94837188720711648
v -116.9483718872070312 394.2551600587903522 -116.94837188720694592
v 116.9483718872070312 394.2551600587903522 -116.94837188720694592
v 118.56249237060546872 394.2551600587903522 73.216972351074304
v -116.9483718872070312 380.87916147614305376 116.94837188720711648
v 73.21697235107421876 380.87916147614305376 118.562492370605554
v 118.56249237060546872 380.87916147614305376 73.216972351074304
v 116.9483718872070312 380.87916147614305376 -116.94837188720694592
v -116.9483718872070312 380.87916147614305376 -116.94837188720694592
v -88.48262786865234376 394.25520226142543832 -74.432868957519446
v -79.7385177612304688 394.25520226142543832 -74.432868957519446
v -84.11057281494140624 457.88711156789213424 -77.9757385253905256
v -79.7385177612304688 394.25520226142543832 -81.5186309814452272
v -88.48262786865234376 394.25520226142543832 -81.5186309814452272
v 70.36799621582031248 2.07199161741008098 111.68356323242187504
v -111.68356323242187504 2.0719985412798998 111.68356323242187504
v -111.68356323242187504 2.0719912877020441 -111.68355560302734376
v 111.68356323242187504 2.0719912877020441 -111.68355560302734376
v 111.68356323242187504 2.0719916174100903 70.36799621582031248
v -113.41581726074218752 2.55631714391304E-14 -115.12628936767578124
v -113.50825500488281248 -2.5387879664762018E-14 114.33684539794921876
v 72.26422882080078124 -2.563696664356109E-14 115.45863342285156248
v 115.8765869140625 -1.609995841614538E-14 72.50776672363281248
v 114.21540832519531248 2.5514904113664062E-14 -114.90891265869140624
v 72.26422882080078124 2.07199161741008009 115.45864868164062496
v -113.50828552246093752 2.07199837642585605 114.33684539794921876
v -113.41584777832031248 2.0719916174101316 -115.12630462646484376
v 114.21540832519531248 2.07199161741013116 -114.9089279174804688
v 115.87660217285156256 2.07199128770200325 72.50776672363281248
# 35 vertices

vn -0.02604373730719089 -5.127097665758029E-06 0.9996607303619384
vn -0.02604373916983604 -5.12709812050538E-06 0.999660849571228
vn -0.02604374103248119 -5.12709812050538E-06 0.999660849571228
vn -0.02604373730719089 -5.127097665647007E-06 0.9996607899665832
vn 0.9996607899665832 -5.127106760479533E-06 -0.02604373544454574
vn 0.999660849571228 -5.127106305732182E-06 -0.02604373544454574
vn 0.9996609091758728 -5.127106760479533E-06 -0.0260437373071909
vn 0.9996607303619384 -5.127105850984831E-06 -0.02604373171925544
vn 0 -5.0920370993079445E-06 -1
vn 0 -5.092037554055295E-06 -1
vn 0 -5.092037554055295E-06 -1
vn 0 -5.0920370993079445E-06 -1
vn -1 -5.092028459330322E-06 9.610278525528987E-14
vn -1 -5.092028459330322E-06 9.610278525528987E-14
vn -1 -5.092028459330322E-06 9.610278525528987E-14
vn -1 -5.092028459330322E-06 9.610278525528987E-14
vn 0.7071068286895752 -5.636041805923142E-06 0.70710682868957512
vn 0.7071068286895752 -5.63604180581212E-06 0.70710670948028568
vn 0.7071067690849304 -5.63604180581212E-06 0.7071067690849304
vn 0.7071068286895752 -5.636041805923142E-06 0.70710682868957512
vn -0.00848767720162868 -2.220446049250313E-16 0.99996393918991072
vn -0.00848767720162868 -2.220446049250313E-16 0.99996393918991072
vn -0.00848767720162868 -2.220446049250313E-16 0.99996393918991072
vn -0.00848767720162868 -2.220446049250313E-16 0.99996393918991072
vn 0.99996393918991088 1.734723475976807E-18 -0.00848767720162868
vn 0.99996393918991088 1.734723475976807E-18 -0.00848767720162868
vn 0.99996393918991088 1.734723475976807E-18 -0.00848767720162868
vn 0.99996393918991088 1.734723475976807E-18 -0.00848767720162868
vn 0 2.220446049250313E-16 -1
vn 0 2.220446049250313E-16 -1
vn 0 2.220446049250313E-16 -1
vn 0 2.220446049250313E-16 -1
vn -1 0 0
vn -1 0 0
vn -1 0 0
vn -1 0 0
vn 0.7071067690849304 -1.1102230246251565E-16 0.7071067690849304
vn 0.7071067690849304 -1.1102230246251565E-16 0.7071067690849304
vn 0.7071067690849304 -1.1102230246251565E-16 0.7071067690849304
vn 0.7071067690849304 -1.1102230246251565E-16 0.7071067690849304
vn 0 1 2.220446049250313E-16
vn 0 1 2.220446049250313E-16
vn 0 1 2.220446049250313E-16
vn 0 1 2.220446049250313E-16
vn 0 1 2.220446049250313E-16
vn 0 -1 -2.220446049250313E-16
vn 0 -1 -2.220446049250313E-16
vn 0 -1 -2.220446049250313E-16
vn 0 -1 -2.220446049250313E-16
vn 0 -1 -2.220446049250313E-16
vn 0 -1 -2.220446049250313E-16
vn 0 -1 -2.220446049250313E-16
vn 0 -1 -2.220446049250313E-16
vn 0 -1 -2.220446049250313E-16
vn 0 -1 -2.220446049250313E-16
vn 0 -1 -2.220446049250313E-16
vn 0 -1 -2.220446049250313E-16
vn 0 -1 -2.220446049250313E-16
vn 0 -1 -2.220446049250313E-16
vn 0 -1 -2.220446049250313E-16
vn 0 -1 -2.220446049250313E-16
vn 0 -1 -2.220446049250313E-16
vn 0 -1 -2.220446049250313E-16
vn 0 -1 -2.220446049250313E-16
vn 0 -1 -2.220446049250313E-16
vn 0 0.03846963867545128 0.9992596507072448
vn 0 0.03846963867545128 0.9992596507072448
vn 0 0.03846964240074135 0.9992598295211792
vn 0.99887341260910032 0.0474548526108265 6.938893903907228E-18
vn 0.99887335300445552 0.0474548526108265 6.938893903907228E-18
vn 0.99887341260910032 0.04745485633611679 6.938893903907228E-18
vn 0 0.03846989199519168 -0.9992597699165344
vn 0 0.03846989199519168 -0.9992597699165344
vn 0 0.03846988826990138 -0.9992597699165344
vn -0.99887335300445552 0.0474548526108265 6.938893903907228E-18
vn -0.99887341260910032 0.0474548526108265 6.938893903907228E-18
vn -0.99887341260910032 0.04745485633611679 6.938893903907228E-18
vn 0 1.39261613352204E-08 1
vn 0 1.39261613352204E-08 1
vn 0 1.39261613352204E-08 1
vn 0 1.3926162223398819E-08 1
vn 1 1.3926161557265003E-08 3.308722450212111E-24
vn 1 1.3926161557265003E-08 3.308722450212111E-24
vn 1 1.3926161557265003E-08 3.308722450212111E-24
vn 1 1.3926161557265003E-08 3.308722450212111E-24
vn 0 2.220446049250313E-16 -1
vn 0 2.220446049250313E-16 -1
vn 0 2.220446049250313E-16 -1
vn 0 2.220446049250313E-16 -1
vn -1 1.3926161557265003E-08 3.308722450212111E-24
vn -1 1.3926161557265003E-08 3.308722450212111E-24
vn -1 1.3926162445443424E-08 1.6543612251060553E-24
vn -1 1.3926161557265003E-08 3.308722450212111E-24
vn 0.7071067690849304 1.9067451506593613E-08 0.7071067690849304
vn 0.7071067690849304 1.9067451506593613E-08 0.7071067690849304
vn 0.7071067690849304 1.9067451506593613E-08 0.7071067690849304
vn 0.7071067690849304 1.9067451506593613E-08 0.7071067690849304
vn 5.0320664968239726E-08 1 1.5817154030983716E-08
vn 5.0320664968239726E-08 1 1.5817154030983716E-08
vn 5.0320664968239726E-08 1 1.5817154030983716E-08
vn 5.0320664968239726E-08 1 1.5817155807340555E-08
vn 6.6966752143571284E-09 1 -4.201541847770329E-08
vn 6.696674326178709E-09 1 -4.201541847770329E-08
vn 6.696674326178709E-09 0.99999994039535536 -4.2015415036011916E-08
vn 6.6966747702679186E-09 1 -4.201541847770329E-08
vn 0 1 2.6786704632186797E-08
vn 0 1 2.6786704632186797E-08
vn 0 1 2.6786706408543637E-08
vn 0 1 2.6786706408543637E-08
vn 0 1 2.220446049250313E-16
vn 0 1 2.220446049250313E-16
vn 0 1 2.220446049250313E-16
vn 0 1 2.220446049250313E-16
vn 9.725464877874401E-09 1 4.771677941661778E-09
vn 9.725464877874401E-09 1 4.771677941661778E-09
vn 9.725465766052821E-09 1 4.771678829840198E-09
vn 9.725465766052821E-09 1 4.771678829840198E-09
# 117 vertex normals

vt 0.24059101939201356 0.61241853237152096 0
vt 0.4392923414707184 0.61241853237152096 0
vt 0.00988131202757358 0.61241853237152096 0
vt 0.7349467277526856 0.61241853237152096 0
vt 0.51336014270782472 0.61241853237152096 0
vt 0.24059101939201356 0.58687657117843624 0
vt 0.4392923414707184 0.58687657117843624 0
vt 0.4392923414707184 0.59237545728683472 0
vt 0.24059101939201356 0.59237545728683472 0
vt 0.51336014270782472 0.58687657117843624 0
vt 0.51336014270782472 0.59237545728683472 0
vt 0.7349467277526856 0.58687657117843624 0
vt 0.7349467277526856 0.59237545728683472 0
vt 0.24059101939201356 0.03827398270368576 0
vt 0.99008655548095696 0.03827398270368576 0
vt 0.94698387384414672 0.6239721775054932 0
vt 0.99008655548095696 0.58687657117843624 0
vt 0.00988131202757358 0.59237545728683472 0
vt 0.95474433898925776 0.6231940984725952 0
vt 0.9643690586090088 0.6231940984725952 0
vt 0.96601688861846928 0.77327728271484368 0
vt 0.97212946414947504 0.6239721775054932 0
vt 0.98156273365020752 0.62588274478912352 0
vt 0.4392923414707184 0.03827398270368576 0
vt 0.24059101939201356 0.0201982632279396 0
vt 0.4392923414707184 0.0201982632279396 0
vt 0.00988131202757358 0.0201982632279396 0
vt 0.7349467277526856 0.03827398270368576 0
vt 0.7349467277526856 0.0201982632279396 0
vt 0.51336014270782472 0.03827398270368576 0
vt 0.51336014270782472 0.01591683179140091 0
vt 0.24059101939201356 0.01591683179140091 0
vt 0.7349467277526856 0.01591683179140091 0
vt 0.4392923414707184 0.01591683179140091 0
vt 0.51336014270782472 0.0201982632279396 0
vt 0.99008655548095696 0.01591683179140091 0
vt 0.29796528816223144 0.63021063804626464 0
vt 0.36588585376739504 0.69813108444213864 0
vt 0.36346811056137088 0.98296916484832768 0
vt 0.01312698237597942 0.63262832164764408 0
vt 0.01312710158526897 0.98296940326690672 0
vt 0.99008655548095696 0.61241853237152096 0
vt 0.00988131202757358 0.03827398270368576 0
vt 0.00988131202757358 0.58687657117843624 0
vt 0.99008655548095696 0.59237545728683472 0
vt 0.99008655548095696 0.0201982632279396 0
vt 0.00988131202757358 0.01591683179140091 0
# 47 texture coords

g skyscraper_3
usemtl Material #25
s 1
f 28/34/1 31/26/2 32/25/3 27/32/4
f 30/33/5 34/29/6 35/35/7 29/31/8
f 26/36/9 33/46/10 34/29/11 30/33/12
f 27/32/13 32/25/14 33/27/15 26/47/16
f 29/31/17 35/35/18 31/26/19 28/34/20
f 6/2/21 7/1/22 11/9/23 12/8/24
f 9/4/25 10/5/26 13/11/27 14/13/28
f 8/42/29 9/4/30 14/13/31 15/45/32
f 7/1/33 8/3/34 15/18/35 11/9/36
f 10/5/37 6/2/38 12/8/39 13/11/40
f 10/38/41 9/39/42 8/41/43 7/40/44 6/37/45
f 3/6/46 2/7/47 12/8/48 11/9/49
f 2/7/50 1/10/51 13/11/52 12/8/53
f 1/10/54 5/12/55 14/13/56 13/11/57
f 5/12/58 4/17/59 15/45/60 14/13/61
f 4/44/62 3/6/63 11/9/64 15/18/65
f 16/19/66 17/20/67 18/21/68
f 17/20/69 19/22/70 18/21/71
f 19/22/72 20/23/73 18/21/74
f 20/16/75 16/19/76 18/21/77
f 2/7/78 3/6/79 22/14/80 21/24/81
f 5/12/82 1/10/83 25/30/84 24/28/85
f 4/17/86 5/12/87 24/28/88 23/15/89
f 3/6/90 4/44/91 23/43/92 22/14/93
f 1/10/94 2/7/95 21/24/96 25/30/97
f 21/24/98 22/14/99 32/25/100 31/26/101
f 22/14/102 23/43/103 33/27/104 32/25/105
f 23/15/106 24/28/107 34/29/108 33/46/109
f 24/28/110 25/30/111 35/35/112 34/29/113
f 25/30/114 21/24/115 31/26/116 35/35/117
#30 polygons

