# Created by Kenney (www.kenney.nl)

mtllib thebeam.mtl

g mergedBlocks

v 5 0.8 0.4233148
v 5 0.8 -0.2625282
v -5 0.8 0.4233148
v -5 0.8 -0.2625282
v -5 0.9999999 -0.2625282
v -5 0.9999999 0.4233148
v 5 0.9999999 -0.2625282
v 5 0.9999999 0.4233148

vn 0 -10 0
vn -10 0 0
vn 0 0 -10
vn 0 0 10
vn 10 0 0
vn 0 10 0

vt -0.5 -0.04233148
vt -0.5 0.02625282
vt 0.5 -0.04233148
vt 0.5 0.02625282
vt -0.02625282 0.08
vt -0.02625282 0.09999999
vt 0.04233148 0.08
vt 0.04233148 0.09999999
vt 0.5 0.08
vt -0.5 0.08
vt 0.5 0.09999999
vt -0.5 0.09999999
vt 0.02625282 0.09999999
vt 0.02625282 0.08
vt -0.04233148 0.09999999
vt -0.04233148 0.08
vt -0.5 -0.02625282
vt -0.5 0.04233148
vt 0.5 -0.02625282
vt 0.5 0.04233148

usemtl bricks(Clone)

f 3/3/1 2/2/1 1/1/1
f 2/2/1 3/3/1 4/4/1
f 3/7/2 5/6/2 4/5/2
f 5/6/2 3/7/2 6/8/2
f 5/11/3 2/10/3 4/9/3
f 2/10/3 5/11/3 7/12/3
f 8/11/4 3/10/4 1/9/4
f 3/10/4 8/11/4 6/12/4
f 8/15/5 2/14/5 7/13/5
f 2/14/5 8/15/5 1/16/5
f 5/19/6 8/18/6 7/17/6
f 8/18/6 5/19/6 6/20/6

