# Blender 4.0.2
# www.blender.org
mtllib mcastle.mtl
o mcastle
v -5.000001 -0.000000 -4.000000
v -5.000001 -0.000000 -5.000000
v -5.000001 1.000000 -4.000000
v -5.000001 2.000000 -5.000000
v -5.000001 2.000000 -4.000000
v 5.000000 -0.000000 -5.000001
v 5.000000 -0.000000 -4.000001
v 5.000000 2.000000 -5.000001
v 5.000000 1.000000 -4.000001
v 5.000000 2.000000 -4.000001
v -5.000000 2.000000 4.000001
v 5.000001 2.000000 4.000000
v -5.000000 2.000000 5.000001
v 5.000001 2.000000 5.000000
v -5.000000 1.000000 4.000001
v 5.000001 1.000000 4.000000
v 5.000001 0.000000 4.000000
v -5.000000 0.000000 4.000001
v 5.000001 0.000000 5.000000
v -5.000000 0.000000 5.000001
v -1.502829 1.000000 4.000000
v -1.502830 1.000000 0.990000
v -1.502829 6.200000 4.000000
v -1.502830 2.360000 0.990000
v -1.502830 2.616231 0.956266
v -1.502830 2.690000 0.925710
v -1.502830 2.855000 0.857365
v -1.502830 3.060036 0.700036
v -1.502830 3.217365 0.495000
v -1.502830 3.316267 0.256231
v -1.502830 3.350000 -0.000000
v -1.502830 4.500000 0.994341
v -1.502830 6.200000 0.994340
v -1.502829 7.200000 2.497169
v -1.502830 4.500000 -0.994341
v -1.502830 6.199999 -4.000000
v -1.502830 3.316267 -0.256231
v -1.502830 3.217365 -0.495000
v -1.502830 3.060036 -0.700036
v -1.502830 2.855000 -0.857365
v -1.502830 2.690000 -0.925710
v -1.502830 2.616231 -0.956267
v -1.502830 2.360000 -0.990000
v -1.502830 1.000000 -0.990000
v -1.502830 1.000000 -4.000000
v -1.502830 6.200000 -0.994341
v -1.502830 7.200000 -2.497170
v 1.502830 1.000000 4.000000
v 1.502830 3.600000 4.000000
v 1.802830 6.200000 4.000000
v 1.802830 3.773751 4.000000
v 1.502830 1.000000 0.990000
v 1.502830 1.000000 -0.990000
v 1.502830 2.360000 -0.990000
v 1.502830 2.616231 -0.956267
v 1.502830 2.690000 -0.925711
v 1.502830 2.855000 -0.857366
v 1.502830 3.060036 -0.700036
v 1.502830 3.217365 -0.495000
v 1.502830 3.316267 -0.256231
v 1.502830 3.350000 -0.000000
v 1.502830 3.316267 0.256230
v 1.502830 3.217365 0.495000
v 1.502830 3.060036 0.700035
v 1.502830 2.855000 0.857365
v 1.502830 2.690000 0.925710
v 1.502830 2.616231 0.956266
v 1.502830 2.360000 0.990000
v 1.502829 1.000000 -4.000000
v 1.502830 3.600000 -0.994341
v 1.502830 4.500000 -0.994341
v 1.802830 3.773751 -0.994341
v 1.802830 6.200000 -0.994341
v -0.000000 5.349999 -0.994341
v 1.502829 3.600000 -4.000000
v 1.502830 3.600000 0.994340
v 1.502830 4.500000 0.994340
v 1.802829 3.773751 -4.000000
v 1.802829 6.199999 -4.000000
v 1.802829 7.200000 -2.497170
v 1.802830 3.773751 0.994340
v 1.802830 6.200000 0.994340
v 1.802830 7.200000 2.497169
v 0.000000 5.349999 0.994340
v -1.802829 6.033807 4.249760
v -1.802829 7.200000 2.497169
v -1.802829 6.283566 4.415953
v -1.802829 7.560346 2.497169
v -1.802830 6.283566 0.578388
v -1.802830 6.033807 0.744581
v -1.802830 6.033807 -0.744581
v -1.802830 7.200000 -2.497170
v -1.802830 6.283566 -0.578388
v -1.802830 7.560346 -2.497170
v -1.802830 6.283566 -4.415954
v -1.802830 6.033806 -4.249760
v 2.102829 6.283566 -4.415954
v 2.102829 6.033806 -4.249761
v 2.102829 6.033807 -0.744582
v 2.102830 6.283566 -0.578389
v 2.102829 7.200000 -2.497171
v 2.102830 6.033807 4.249759
v 2.102830 6.283566 4.415953
v 2.102830 6.033807 0.744580
v 2.102830 7.200000 2.497169
v 2.102830 6.283566 0.578387
v 2.102830 7.560346 2.497169
v 2.102829 7.560346 -2.497171
vn -1.0000 -0.0000 -0.0000
vn 1.0000 -0.0000 -0.0000
vn -0.0000 -0.0000 1.0000
vn -0.0000 1.0000 -0.0000
vn -0.0000 -0.0000 -1.0000
vn -0.0000 -1.0000 -0.0000
vn -0.0000 -0.1305 0.9914
vn -0.0000 -0.2588 0.9659
vn -0.0000 -0.3827 0.9239
vn -0.0000 -0.5000 0.8660
vn -0.0000 -0.7071 0.7071
vn -0.0000 -0.8660 0.5000
vn -0.0000 -0.9659 0.2588
vn -0.0000 -0.9659 -0.2588
vn -0.0000 -0.8660 -0.5000
vn -0.0000 -0.7071 -0.7071
vn -0.0000 -0.5000 -0.8660
vn -0.0000 -0.3827 -0.9239
vn -0.0000 -0.2588 -0.9659
vn -0.0000 -0.1305 -0.9914
vn 0.5012 -0.8653 -0.0000
vn -0.4923 0.8704 -0.0000
vn 0.4923 0.8704 -0.0000
vn -0.0000 -0.5540 -0.8325
vn -0.0000 -0.5540 0.8325
vn -0.0000 -0.8325 -0.5540
vn -0.0000 -0.8325 0.5540
vn -0.0000 0.8325 0.5540
vn -0.0000 0.8325 -0.5540
vn -0.0002 1.0000 -0.0000
vt 0.200130 0.533896
vt 0.166884 0.500650
vt 0.200130 0.500650
vt 0.166884 0.567143
vt 0.200130 0.567143
vt 0.166884 0.567143
vt 0.133637 0.500650
vt 0.166884 0.500650
vt 0.133637 0.533896
vt 0.133637 0.567143
vt 0.499349 0.533896
vt 0.166884 0.567143
vt 0.166884 0.533896
vt 0.499349 0.567143
vt 0.499349 0.700129
vt 0.166884 0.666882
vt 0.499349 0.666883
vt 0.166884 0.700129
vt 0.499349 0.666883
vt 0.166884 0.633636
vt 0.499349 0.633636
vt 0.166884 0.666883
vt 0.166884 0.633636
vt 0.166884 0.666883
vt 0.499349 0.633636
vt 0.499349 0.966101
vt 0.166884 0.966101
vt 0.166884 0.700129
vt 0.499349 0.700129
vt 0.499349 0.666882
vt 0.499349 0.500650
vt 0.499349 0.567143
vt 0.133637 0.706778
vt 0.033565 0.533896
vt 0.133637 0.533896
vt 0.033565 0.579112
vt 0.032444 0.587630
vt 0.031428 0.590083
vt 0.029155 0.595569
vt 0.023925 0.602385
vt 0.017108 0.607616
vt 0.009170 0.610904
vt 0.000651 0.612026
vt 0.033709 0.650259
vt 0.033709 0.706778
vt 0.083673 0.740025
vt 0.300058 0.650259
vt 0.333116 0.612026
vt 0.366175 0.650259
vt 0.200130 0.706778
vt 0.324598 0.610904
vt 0.316659 0.607616
vt 0.309843 0.602385
vt 0.304612 0.595569
vt 0.302340 0.590083
vt 0.301324 0.587630
vt 0.300202 0.579112
vt 0.300202 0.533896
vt 0.300058 0.706778
vt 0.250094 0.740025
vt 0.383080 0.533896
vt 0.283152 0.706778
vt 0.283152 0.533896
vt 0.383080 0.620337
vt 0.393054 0.706778
vt 0.060589 0.706778
vt 0.050615 0.620337
vt 0.060589 0.626114
vt 0.283152 0.800201
vt 0.383080 0.700129
vt 0.383080 0.800201
vt 0.283152 0.700129
vt 0.383080 0.533896
vt 0.283152 0.579112
vt 0.383080 0.579112
vt 0.283152 0.587630
vt 0.383080 0.587630
vt 0.383080 0.590083
vt 0.283152 0.590083
vt 0.283152 0.595569
vt 0.383080 0.595569
vt 0.283152 0.602385
vt 0.383080 0.602385
vt 0.283152 0.523924
vt 0.383080 0.517107
vt 0.383080 0.523924
vt 0.283152 0.517107
vt 0.383080 0.509169
vt 0.283152 0.509169
vt 0.283152 0.841634
vt 0.383080 0.833115
vt 0.383080 0.841634
vt 0.283152 0.833115
vt 0.383080 0.824596
vt 0.283152 0.824596
vt 0.383080 0.816658
vt 0.283152 0.816658
vt 0.383080 0.809841
vt 0.283152 0.809841
vt 0.283152 0.533564
vt 0.383080 0.633636
vt 0.283152 0.633636
vt 0.383080 0.533564
vt 0.050615 0.650259
vt 0.050615 0.620337
vt 0.333116 0.678519
vt 0.383080 0.650259
vt 0.283152 0.650259
vt 0.133637 0.620337
vt 0.000651 0.612026
vt 0.300058 0.620337
vt 0.466102 0.620337
vt 0.200130 0.620337
vt 0.366175 0.620337
vt 0.033709 0.626114
vt 0.133637 0.626114
vt 0.033709 0.706778
vt 0.200130 0.626114
vt 0.300058 0.626114
vt 0.383080 0.706778
vt 0.273178 0.706778
vt 0.283152 0.620337
vt 0.273178 0.626114
vt 0.273178 0.700129
vt 0.283152 0.800057
vt 0.273178 0.800057
vt 0.273179 0.706778
vt 0.383080 0.706778
vt 0.273179 0.626114
vt 0.273178 0.533708
vt 0.273179 0.633636
vt 0.283152 0.533708
vt 0.050615 0.866174
vt 0.000651 0.800057
vt 0.050615 0.800057
vt 0.333116 0.800057
vt 0.383080 0.866174
vt 0.333116 0.866174
vt 0.283152 0.866174
vt 0.147466 0.709557
vt 0.141941 0.701253
vt 0.083673 0.752005
vt 0.019880 0.709557
vt 0.025406 0.701253
vt 0.313887 0.709557
vt 0.308362 0.701253
vt 0.250094 0.752005
vt 0.186301 0.709557
vt 0.191827 0.701253
vt 0.263205 0.709557
vt 0.393054 0.701253
vt 0.393054 0.709557
vt 0.263205 0.701253
vt 0.403028 0.701253
vt 0.273178 0.709557
vt 0.273178 0.701253
vt 0.403028 0.709557
vt 0.263205 0.525405
vt 0.273179 0.583672
vt 0.263205 0.583672
vt 0.383080 0.533708
vt 0.393054 0.525405
vt 0.060589 0.583672
vt 0.050615 0.533708
vt 0.060589 0.525405
vt 0.050615 0.583672
vt 0.273179 0.709557
vt 0.273179 0.701253
vt 0.263205 0.808360
vt 0.393054 0.808360
vt 0.263205 0.750093
vt 0.273178 0.750093
vt 0.383080 0.800057
vt 0.060589 0.808360
vt 0.050615 0.800057
vt 0.060589 0.750093
vt 0.050615 0.750093
vt 0.263205 0.641940
vt 0.393054 0.641940
vt 0.060589 0.641940
vt 0.050615 0.633636
vt 0.263205 0.691825
vt 0.393054 0.691825
vt 0.050615 0.700129
vt 0.060589 0.691825
vt 0.393054 0.647465
vt 0.393054 0.583672
vt 0.263205 0.647465
vt 0.263205 0.519879
vt 0.393054 0.519879
vt 0.019880 0.709557
vt 0.393054 0.813886
vt 0.263205 0.750093
vt 0.393054 0.750093
vt 0.263205 0.813886
vt 0.263205 0.686300
vt 0.393054 0.686300
vt 0.966104 0.533898
vt 0.700131 0.500651
vt 0.966104 0.500651
vt 0.700131 0.533898
vt 0.999350 0.966102
vt 0.666885 0.700130
vt 0.999350 0.700130
vt 0.666885 0.966102
s 0
usemtl material_atlas_00005_1
f 3/1/1 2/2/1 1/3/1
f 2/2/1 3/1/1 4/4/1
f 4/4/1 3/1/1 5/5/1
f 8/6/2 7/7/2 6/8/2
f 7/7/2 8/6/2 9/9/2
f 9/9/2 8/6/2 10/10/2
f 9/11/3 5/12/3 3/13/3
f 5/12/3 9/11/3 10/14/3
f 5/15/4 8/16/4 4/17/4
f 8/16/4 5/15/4 10/18/4
f 13/19/4 12/20/4 11/21/4
f 12/20/4 13/19/4 14/22/4
f 12/12/5 15/11/5 11/14/5
f 15/11/5 12/12/5 16/13/5
f 7/23/6 2/17/6 6/24/6
f 2/17/6 7/23/6 1/25/6
f 1/26/6 7/27/6 17/28/6
f 1/26/6 17/28/6 18/29/6
f 18/29/6 17/28/6 19/22/6
f 18/29/6 19/22/6 20/30/6
f 8/4/5 2/31/5 4/32/5
f 2/31/5 8/4/5 6/2/5
f 13/6/1 18/7/1 20/8/1
f 18/7/1 13/6/1 15/9/1
f 15/9/1 13/6/1 11/10/1
f 16/1/2 19/2/2 17/3/2
f 19/2/2 16/1/2 14/4/2
f 14/4/2 16/1/2 12/5/2
f 19/31/3 13/4/3 20/2/3
f 13/4/3 19/31/3 14/32/3
f 23/33/1 22/34/1 21/35/1
f 22/34/1 23/33/1 24/36/1
f 24/36/1 23/33/1 25/37/1
f 25/37/1 23/33/1 26/38/1
f 26/38/1 23/33/1 27/39/1
f 27/39/1 23/33/1 28/40/1
f 28/40/1 23/33/1 29/41/1
f 29/41/1 23/33/1 30/42/1
f 30/42/1 23/33/1 31/43/1
f 31/43/1 23/33/1 32/44/1
f 32/44/1 23/33/1 33/45/1
f 33/45/1 23/33/1 34/46/1
f 35/47/1 31/48/1 32/49/1
f 36/50/1 31/48/1 35/47/1
f 36/50/1 37/51/1 31/48/1
f 36/50/1 38/52/1 37/51/1
f 36/50/1 39/53/1 38/52/1
f 36/50/1 40/54/1 39/53/1
f 36/50/1 41/55/1 40/54/1
f 36/50/1 42/56/1 41/55/1
f 36/50/1 43/57/1 42/56/1
f 36/50/1 44/58/1 43/57/1
f 44/58/1 36/50/1 45/1/1
f 36/50/1 35/47/1 46/59/1
f 36/50/1 46/59/1 47/60/1
f 48/61/3 23/62/3 21/63/3
f 23/62/3 48/61/3 49/64/3
f 23/62/3 49/64/3 50/65/3
f 50/66/3 49/67/3 51/68/3
f 52/69/6 21/70/6 22/71/6
f 21/70/6 52/69/6 48/72/6
f 53/73/3 43/74/3 44/63/3
f 43/74/3 53/73/3 54/75/3
f 54/75/7 42/76/8 43/74/7
f 42/76/8 54/75/7 55/77/8
f 42/76/8 56/78/9 41/79/9
f 56/78/9 42/76/8 55/77/8
f 56/78/9 40/80/10 41/79/9
f 40/80/10 56/78/9 57/81/10
f 57/81/10 39/82/11 40/80/10
f 39/82/11 57/81/10 58/83/11
f 58/84/11 38/85/12 39/86/11
f 38/85/12 58/84/11 59/87/12
f 59/87/12 37/88/13 38/85/12
f 37/88/13 59/87/12 60/89/13
f 60/90/13 31/91/6 37/92/13
f 31/91/6 60/90/13 61/93/6
f 61/93/6 30/94/14 31/91/6
f 30/94/14 61/93/6 62/95/14
f 62/95/14 29/96/15 30/94/14
f 29/96/15 62/95/14 63/97/15
f 63/97/15 28/98/16 29/96/15
f 28/98/16 63/97/15 64/99/16
f 64/82/16 27/81/17 28/83/16
f 27/81/17 64/82/16 65/80/17
f 27/81/17 66/79/18 26/78/18
f 66/79/18 27/81/17 65/80/17
f 66/79/18 25/77/19 26/78/18
f 25/77/19 66/79/18 67/76/19
f 67/76/19 24/75/20 25/77/19
f 24/75/20 67/76/19 68/74/20
f 24/75/5 52/63/5 22/73/5
f 52/63/5 24/75/5 68/74/5
f 53/100/6 45/101/6 69/102/6
f 45/101/6 53/100/6 44/103/6
f 72/68/3 71/104/3 70/105/3
f 73/66/3 71/104/3 72/68/3
f 73/65/3 74/106/3 71/107/3
f 46/62/3 74/106/3 73/65/3
f 74/106/3 46/62/3 35/108/3
f 75/109/2 53/34/2 69/35/2
f 53/34/2 75/109/2 54/36/2
f 54/36/2 75/109/2 55/37/2
f 55/37/2 75/109/2 56/38/2
f 56/38/2 75/109/2 57/39/2
f 57/39/2 75/109/2 58/40/2
f 58/40/2 75/109/2 59/41/2
f 59/41/2 75/109/2 60/42/2
f 60/42/2 75/109/2 61/110/2
f 76/111/2 61/48/2 75/112/2
f 49/113/2 61/48/2 76/111/2
f 49/113/2 62/51/2 61/48/2
f 49/113/2 63/52/2 62/51/2
f 49/113/2 64/53/2 63/52/2
f 49/113/2 65/54/2 64/53/2
f 49/113/2 66/55/2 65/54/2
f 49/113/2 67/56/2 66/55/2
f 49/113/2 68/57/2 67/56/2
f 48/1/2 68/57/2 49/113/2
f 68/57/2 48/1/2 52/58/2
f 76/67/2 75/105/2 70/105/2
f 71/49/2 76/111/2 70/114/2
f 76/111/2 71/49/2 77/47/2
f 79/33/2 72/115/2 78/116/2
f 72/115/2 79/33/2 73/117/2
f 73/117/2 79/33/2 80/46/2
f 82/59/2 51/118/2 81/119/2
f 51/118/2 82/59/2 50/50/2
f 50/50/2 82/59/2 83/60/2
f 33/120/5 84/106/5 32/107/5
f 84/106/5 33/120/5 82/121/5
f 84/106/5 82/121/5 77/108/5
f 77/108/5 82/121/5 76/122/5
f 76/122/5 82/121/5 81/123/5
f 51/124/21 76/125/21 81/126/21
f 76/125/21 51/124/21 49/72/21
f 79/127/5 45/61/5 36/128/5
f 45/61/5 79/127/5 75/122/5
f 75/122/5 79/127/5 78/129/5
f 69/63/5 45/61/5 75/122/5
f 72/130/21 75/102/21 78/131/21
f 75/102/21 72/130/21 70/132/21
f 32/133/22 74/134/4 35/135/22
f 74/136/4 32/137/22 84/138/4
f 74/136/4 77/139/23 71/125/23
f 77/139/23 74/136/4 84/138/4
f 87/140/1 86/46/1 85/141/1
f 86/46/1 87/140/1 88/142/1
f 89/143/1 86/46/1 88/142/1
f 86/46/1 89/143/1 90/144/1
f 93/145/1 92/60/1 91/146/1
f 92/60/1 93/145/1 94/147/1
f 95/148/1 92/60/1 94/147/1
f 92/60/1 95/148/1 96/149/1
f 97/150/24 96/151/24 95/152/24
f 96/151/24 97/150/24 98/153/24
f 99/154/25 93/155/25 91/156/25
f 93/155/25 99/154/25 100/157/25
f 99/158/26 80/159/26 101/160/26
f 80/159/26 99/158/26 73/130/26
f 73/130/26 99/158/26 46/161/26
f 91/162/26 46/161/26 99/158/26
f 92/163/26 46/164/26 91/165/26
f 46/164/26 92/163/26 47/166/26
f 102/154/25 87/167/25 85/168/25
f 87/167/25 102/154/25 103/157/25
f 104/169/27 82/126/27 90/170/27
f 82/126/27 104/169/27 105/171/27
f 82/126/27 105/171/27 83/172/27
f 33/173/27 90/170/27 82/126/27
f 90/174/27 33/175/27 86/176/27
f 86/176/27 33/175/27 34/177/27
f 98/178/27 79/131/27 96/179/27
f 79/131/27 98/178/27 101/160/27
f 79/131/27 101/160/27 80/159/27
f 36/101/27 96/179/27 79/131/27
f 96/180/27 36/181/27 92/163/27
f 92/163/27 36/181/27 47/166/27
f 102/182/26 83/172/26 105/171/26
f 83/172/26 102/182/26 50/124/26
f 50/124/26 102/182/26 23/70/26
f 85/183/26 23/70/26 102/182/26
f 86/176/26 23/184/26 85/185/26
f 23/184/26 86/176/26 34/177/26
f 106/145/2 105/60/2 104/146/2
f 105/60/2 106/145/2 107/147/2
f 103/148/2 105/60/2 107/147/2
f 105/60/2 103/148/2 102/149/2
f 87/186/28 107/160/4 88/187/4
f 107/160/4 87/186/28 103/188/28
f 106/150/24 90/151/24 89/152/24
f 90/151/24 106/150/24 104/153/24
f 88/187/4 106/189/29 89/190/29
f 106/189/29 88/187/4 107/160/30
f 97/140/2 101/46/2 98/141/2
f 101/46/2 97/140/2 108/142/2
f 100/191/2 101/46/2 108/142/2
f 101/46/2 100/191/2 99/144/2
f 93/192/28 108/193/4 94/194/30
f 108/193/4 93/192/28 100/195/28
f 94/194/4 97/196/29 95/197/29
f 97/196/29 94/194/4 108/193/4
f 9/198/2 17/199/2 7/200/2
f 17/199/2 9/198/2 16/201/2
f 15/198/1 1/199/1 18/200/1
f 1/199/1 15/198/1 3/201/1
f 15/202/4 9/203/4 3/204/4
f 9/203/4 15/202/4 16/205/4
