# Blender 4.0.2
# www.blender.org
mtllib mcornerleft.mtl
o mcornerleft
v -4.999999 -0.000000 -5.000000
v -5.000000 0.000000 5.000000
v 5.000001 -0.000000 -5.000000
v -4.000000 0.000000 5.000000
v 4.000000 0.000000 5.000000
v 5.000000 0.000000 4.000000
v 5.000001 -0.000000 -4.000000
v 5.000000 0.000000 5.000000
v 4.391239 1.000000 4.206647
v 4.500000 1.000000 4.133975
v 4.391239 2.000000 4.206647
v 4.500000 2.000000 4.133975
v 4.741182 1.000000 4.034075
v 4.869474 1.000000 4.008555
v 4.741182 2.000000 4.034075
v 4.869474 2.000000 4.008555
v 4.000000 2.000000 5.000000
v 4.008556 2.000000 4.869474
v 5.000000 2.000000 5.000000
v 4.034075 2.000000 4.741181
v 4.076121 2.000000 4.617317
v 4.133975 2.000000 4.500000
v 4.206647 2.000000 4.391239
v 4.292893 2.000000 4.292893
v 4.617317 2.000000 4.076120
v 5.000000 2.000000 4.000000
v 4.617317 1.000000 4.076120
v 5.000000 1.000000 4.000000
v 4.292893 1.000000 4.292893
v 4.206647 1.000000 4.391239
v 4.034075 1.000000 4.741181
v 4.076121 1.000000 4.617317
v 4.008556 1.000000 4.869474
v 4.133975 1.000000 4.500000
v 4.000000 1.000000 5.000000
v 5.000001 1.000000 -4.000000
v 5.000001 2.000000 -4.000000
v 5.000001 2.000000 -5.000000
v 3.825265 1.000000 -3.923003
v 3.825265 2.000000 -3.923003
v -3.314915 1.000000 1.555849
v -3.314915 2.000000 1.555849
v -2.794228 1.000000 0.500000
v -2.794228 2.000000 0.500000
v -4.000000 1.000000 5.000000
v -4.000000 2.000000 5.000000
v -3.923003 1.000000 3.825264
v -3.923003 2.000000 3.825264
v -3.693332 1.000000 2.670629
v -3.693332 2.000000 2.670629
v -2.140179 1.000000 -0.478853
v -2.140179 2.000000 -0.478853
v 0.500001 1.000000 -2.794229
v -0.478852 1.000000 -2.140180
v 0.500001 2.000000 -2.794229
v -0.478852 2.000000 -2.140180
v -5.000000 2.000000 5.000000
v -1.363960 1.000000 -1.363961
v -1.363960 2.000000 -1.363961
v 1.555850 1.000000 -3.314916
v 1.555850 2.000000 -3.314916
v 2.670630 1.000000 -3.693332
v 2.670630 2.000000 -3.693332
v -4.999999 2.000000 -5.000000
vn -0.0000 -1.0000 -0.0000
vn -0.6088 -0.0000 -0.7934
vn -0.5000 -0.0000 -0.8660
vn -0.2588 -0.0000 -0.9659
vn -0.1305 -0.0000 -0.9914
vn -0.0000 1.0000 -0.0000
vn -0.3827 -0.0000 -0.9239
vn -0.0654 -0.0000 -0.9979
vn -0.7071 -0.0000 -0.7071
vn -0.6088 -0.0000 -0.7933
vn -0.7934 -0.0000 -0.6088
vn -0.7933 -0.0000 -0.6088
vn 1.0000 -0.0000 -0.0000
vn -0.9239 -0.0000 -0.3827
vn -0.9659 -0.0000 -0.2588
vn -0.9914 -0.0000 -0.1305
vn -0.8660 -0.0000 -0.5000
vn -0.0000 -0.0000 1.0000
vn -0.9979 -0.0000 -0.0654
vn 0.0654 -0.0000 0.9979
vn 0.1305 -0.0000 0.9914
vn 0.8660 -0.0000 0.5000
vn 0.9239 -0.0000 0.3827
vn 0.9914 -0.0000 0.1305
vn 0.9979 -0.0000 0.0654
vn 0.9659 -0.0000 0.2588
vn 0.7934 -0.0000 0.6088
vn 0.5000 -0.0000 0.8660
vn 0.6088 -0.0000 0.7934
vn 0.7071 -0.0000 0.7071
vn 0.7933 -0.0000 0.6088
vn 0.6088 -0.0000 0.7933
vn 0.3827 -0.0000 0.9239
vn 0.2588 -0.0000 0.9659
vn -0.0000 -0.0000 -1.0000
vn -1.0000 -0.0000 -0.0000
vt 0.166884 0.999348
vt 0.499349 0.666883
vt 0.499349 0.999348
vt 0.466102 0.666883
vt 0.200130 0.666882
vt 0.166884 0.700129
vt 0.166884 0.500650
vt 0.166884 0.666882
vt 0.187123 0.567143
vt 0.183507 0.533896
vt 0.187123 0.533896
vt 0.183507 0.567143
vt 0.175488 0.567143
vt 0.171223 0.533896
vt 0.175488 0.533896
vt 0.171223 0.567143
vt 0.166884 0.666883
vt 0.199846 0.662543
vt 0.200130 0.666883
vt 0.198997 0.658278
vt 0.197599 0.654160
vt 0.195676 0.650259
vt 0.193260 0.646643
vt 0.190393 0.643374
vt 0.187123 0.640506
vt 0.183507 0.638090
vt 0.179607 0.636167
vt 0.175488 0.634769
vt 0.171223 0.633920
vt 0.166884 0.633636
vt 0.179607 0.533896
vt 0.179607 0.567143
vt 0.166884 0.533896
vt 0.166884 0.567143
vt 0.190393 0.567143
vt 0.190393 0.533896
vt 0.143375 0.567143
vt 0.146644 0.533896
vt 0.146644 0.567143
vt 0.143375 0.533896
vt 0.200130 0.500650
vt 0.166884 0.500650
vt 0.200130 0.567143
vt 0.166884 0.567143
vt 0.166884 0.533896
vt 0.154161 0.567143
vt 0.158279 0.533896
vt 0.158279 0.567143
vt 0.154161 0.533896
vt 0.162544 0.533896
vt 0.162544 0.567143
vt 0.150260 0.567143
vt 0.150260 0.533896
vt 0.133637 0.500650
vt 0.133637 0.533896
vt 0.133637 0.567143
vt 0.166884 0.500650
vt 0.166884 0.567143
vt 0.127828 0.533896
vt 0.127828 0.567143
vt 0.316493 0.533896
vt 0.281390 0.567143
vt 0.281390 0.533896
vt 0.316493 0.567143
vt 0.205940 0.533896
vt 0.166884 0.533896
vt 0.205940 0.567143
vt 0.244327 0.533896
vt 0.244327 0.567143
vt 0.349037 0.533896
vt 0.349037 0.567143
vt 0.349740 0.567143
vt 0.317196 0.533896
vt 0.349740 0.533896
vt 0.317196 0.567143
vt 0.200130 0.533896
vt 0.045998 0.533896
vt 0.016571 0.567143
vt 0.016571 0.533896
vt 0.045998 0.567143
vt 0.287769 0.533896
vt 0.287769 0.567143
vt 0.052378 0.567143
vt 0.017274 0.533896
vt 0.052378 0.533896
vt 0.017274 0.567143
vt 0.089440 0.567143
vt 0.089440 0.533896
vt 0.133637 0.999348
vt 0.166884 0.999348
vt 0.131077 0.960292
vt 0.123442 0.921904
vt 0.110860 0.884842
vt 0.093549 0.849738
vt 0.071805 0.817195
vt 0.045998 0.787768
vt 0.016571 0.761962
vt 0.499349 0.666882
vt 0.349036 0.761962
vt 0.316493 0.740217
vt 0.281390 0.722906
vt 0.244327 0.710325
vt 0.205940 0.702689
vt 0.499349 0.567143
vt 0.499349 0.500650
vt 0.499349 0.500650
vt 0.499349 0.567143
vt 0.966104 0.533898
vt 0.700131 0.500651
vt 0.966104 0.500651
vt 0.700131 0.533898
vt 0.700131 0.666884
vt 0.963544 0.627828
vt 0.966104 0.666884
vt 0.955908 0.589440
vt 0.943327 0.552378
vt 0.926016 0.517274
vt 0.926016 0.849740
vt 0.700131 0.999349
vt 0.904271 0.817196
vt 0.878464 0.787769
vt 0.849038 0.761963
vt 0.816494 0.740218
vt 0.781391 0.722907
vt 0.744328 0.710326
vt 0.705941 0.702690
vt 0.699847 0.995009
vt 0.666885 0.700130
vt 0.698999 0.990744
vt 0.697601 0.986626
vt 0.695677 0.982726
vt 0.693261 0.979110
vt 0.690394 0.975840
vt 0.687124 0.972973
vt 0.683508 0.970557
vt 0.679608 0.968633
vt 0.675490 0.967235
vt 0.671224 0.966387
vt 0.666885 0.966102
s 0
usemtl material_atlas_00005_1
f 3/1/1 2/2/1 1/3/1
f 2/2/1 3/1/1 4/4/1
f 4/4/1 3/1/1 5/5/1
f 5/5/1 3/1/1 6/6/1
f 6/7/1 3/7/1 7/7/1
f 8/8/1 5/5/1 6/6/1
f 11/9/2 10/10/3 9/11/2
f 10/10/3 11/9/2 12/12/3
f 15/13/4 14/14/5 13/15/4
f 14/14/5 15/13/4 16/16/5
f 19/17/6 18/18/6 17/19/6
f 18/18/6 19/17/6 20/20/6
f 20/20/6 19/17/6 21/21/6
f 21/21/6 19/17/6 22/22/6
f 22/22/6 19/17/6 23/23/6
f 23/23/6 19/17/6 24/24/6
f 24/24/6 19/17/6 11/25/6
f 11/25/6 19/17/6 12/26/6
f 12/26/6 19/17/6 25/27/6
f 25/27/6 19/17/6 15/28/6
f 15/28/6 19/17/6 16/29/6
f 16/29/6 19/17/6 26/30/6
f 12/12/3 27/31/7 10/10/3
f 27/31/7 12/12/3 25/32/7
f 16/16/5 28/33/8 14/14/5
f 28/33/8 16/16/5 26/34/8
f 24/35/9 9/11/2 29/36/9
f 9/11/10 24/35/9 11/9/10
f 24/37/9 30/38/11 23/39/11
f 30/38/12 24/37/9 29/40/9
f 6/41/13 19/34/13 8/42/13
f 19/34/13 6/41/13 26/43/13
f 26/44/13 6/7/13 28/45/13
f 21/46/14 31/47/15 20/48/15
f 31/47/15 21/46/14 32/49/14
f 20/48/15 33/50/16 18/51/16
f 33/50/16 20/48/15 31/47/15
f 22/52/17 32/49/14 21/46/14
f 32/49/14 22/52/17 34/53/17
f 23/39/11 34/53/17 22/52/17
f 34/53/17 23/39/11 30/38/11
f 19/44/18 5/54/18 8/7/18
f 5/54/18 19/44/18 35/55/18
f 35/55/18 19/44/18 17/56/18
f 18/51/16 35/45/19 17/44/19
f 35/45/19 18/51/16 33/50/16
f 25/32/7 13/15/4 27/31/7
f 13/15/4 25/32/7 15/13/4
f 3/57/13 36/55/13 7/54/13
f 36/55/13 3/57/13 37/56/13
f 37/56/13 3/57/13 38/58/13
f 37/44/20 39/59/21 36/45/20
f 39/59/21 37/44/20 40/60/21
f 43/61/22 42/62/23 41/63/23
f 42/62/23 43/61/22 44/64/22
f 47/65/24 46/58/25 45/66/25
f 46/58/25 47/65/24 48/67/24
f 49/68/26 48/67/24 47/65/24
f 48/67/24 49/68/26 50/69/26
f 51/70/27 44/64/22 43/61/22
f 44/64/22 51/70/27 52/71/27
f 55/72/28 54/73/29 53/74/28
f 54/73/29 55/72/28 56/75/29
f 45/76/18 2/57/18 4/41/18
f 2/57/18 45/76/18 57/58/18
f 57/58/18 45/76/18 46/43/18
f 41/63/23 50/69/26 49/68/26
f 50/69/26 41/63/23 42/62/23
f 58/77/30 52/78/31 51/79/31
f 52/78/31 58/77/30 59/80/30
f 56/75/32 58/81/30 54/73/32
f 58/81/30 56/75/32 59/82/30
f 61/83/33 53/84/28 60/85/33
f 53/84/28 61/83/33 55/86/28
f 63/87/34 60/85/33 62/88/34
f 60/85/33 63/87/34 61/83/33
f 40/60/21 62/88/34 39/59/21
f 62/88/34 40/60/21 63/87/34
f 46/89/6 64/8/6 57/90/6
f 64/8/6 46/89/6 48/91/6
f 64/8/6 48/91/6 50/92/6
f 64/8/6 50/92/6 42/93/6
f 64/8/6 42/93/6 44/94/6
f 64/8/6 44/94/6 52/95/6
f 64/8/6 52/95/6 59/96/6
f 64/8/6 59/96/6 56/97/6
f 64/98/6 56/99/6 55/100/6
f 64/98/6 55/100/6 61/101/6
f 64/98/6 61/101/6 38/17/6
f 38/17/6 61/101/6 63/102/6
f 38/17/6 63/102/6 40/103/6
f 38/17/6 40/103/6 37/6/6
f 64/104/35 3/42/35 1/105/35
f 3/42/35 64/104/35 38/34/35
f 64/34/36 2/106/36 57/107/36
f 2/106/36 64/34/36 1/42/36
f 35/108/18 4/109/18 5/110/18
f 4/109/18 35/108/18 45/111/18
f 35/112/6 47/113/6 45/114/6
f 47/113/6 35/112/6 49/115/6
f 49/115/6 35/112/6 41/116/6
f 41/116/6 35/112/6 43/117/6
f 43/118/6 35/119/6 51/120/6
f 51/120/6 35/119/6 58/121/6
f 58/121/6 35/119/6 54/122/6
f 54/122/6 35/119/6 53/123/6
f 53/123/6 35/119/6 60/124/6
f 60/124/6 35/119/6 62/125/6
f 62/125/6 35/119/6 39/126/6
f 39/126/6 35/119/6 33/127/6
f 39/126/6 33/127/6 36/128/6
f 36/128/6 33/127/6 31/129/6
f 36/128/6 31/129/6 32/130/6
f 36/128/6 32/130/6 34/131/6
f 36/128/6 34/131/6 30/132/6
f 36/128/6 30/132/6 29/133/6
f 36/128/6 29/133/6 9/134/6
f 36/128/6 9/134/6 10/135/6
f 36/128/6 10/135/6 27/136/6
f 36/128/6 27/136/6 13/137/6
f 36/128/6 13/137/6 14/138/6
f 36/128/6 14/138/6 28/139/6
f 7/110/13 28/111/13 6/109/13
f 28/111/13 7/110/13 36/108/13
