# Blender 4.0.2
# www.blender.org
mtllib mplankleft.mtl
o mplankleft
v 5.000000 0.800000 4.000000
v 5.000000 0.800000 1.312001
v -5.000000 0.800000 4.000000
v -5.000000 0.800000 1.312001
v -5.000000 1.000000 1.312001
v -5.000000 1.000000 4.000000
v 5.000000 1.000000 1.312001
v 5.000000 1.000000 4.000000
vn -0.0000 -1.0000 -0.0000
vn -1.0000 -0.0000 -0.0000
vn -0.0000 -0.0000 -1.0000
vn -0.0000 -0.0000 1.0000
vn 1.0000 -0.0000 -0.0000
vn -0.0000 1.0000 -0.0000
vt 0.499349 0.700129
vt 0.166884 0.789496
vt 0.166884 0.700129
vt 0.499349 0.789496
vt 0.133637 0.527247
vt 0.044271 0.533896
vt 0.044271 0.527247
vt 0.133637 0.533896
vt 0.499349 0.533896
vt 0.166884 0.527247
vt 0.499349 0.527247
vt 0.166884 0.533896
vt 0.200130 0.533896
vt 0.289497 0.527247
vt 0.289497 0.533896
vt 0.200130 0.527247
vt 0.499349 0.544269
vt 0.166884 0.633636
vt 0.166884 0.544269
vt 0.499349 0.633636
s 0
usemtl material_atlas_00005_1
f 3/1/1 2/2/1 1/3/1
f 2/2/1 3/1/1 4/4/1
f 3/5/2 5/6/2 4/7/2
f 5/6/2 3/5/2 6/8/2
f 5/9/3 2/10/3 4/11/3
f 2/10/3 5/9/3 7/12/3
f 8/9/4 3/10/4 1/11/4
f 3/10/4 8/9/4 6/12/4
f 8/13/5 2/14/5 7/15/5
f 2/14/5 8/13/5 1/16/5
f 5/17/6 8/18/6 7/19/6
f 8/18/6 5/17/6 6/20/6
