# Blender 4.0.2
# www.blender.org
mtllib mstart.mtl
o mstart
v 4.999999 -0.000000 -5.000000
v 5.000001 0.000000 5.000001
v 4.999999 1.500000 -5.000000
v 5.000001 1.500000 5.000001
v -4.999999 0.000000 5.000003
v -5.000000 0.000000 4.000003
v -4.999999 2.000000 5.000003
v -5.000000 1.000000 4.000003
v -5.000000 2.000000 4.000003
v 4.000000 1.000000 4.000001
v 4.000000 1.500000 4.000001
v -0.499999 1.000000 4.000002
v -0.499999 1.500000 4.000002
v -0.504277 1.565263 4.000002
v -0.517036 1.629410 4.000002
v -0.538059 1.691342 4.000002
v -0.566987 1.750000 4.000002
v -0.603323 1.804381 4.000002
v -0.646446 1.853553 4.000002
v -0.695619 1.896677 4.000002
v -0.749999 1.933013 4.000002
v -0.808658 1.961940 4.000002
v -0.870590 1.982963 4.000002
v -0.934736 1.995722 4.000002
v -0.999999 2.000000 4.000002
v -1.000001 2.000000 -3.999998
v -5.000000 2.000000 -3.999997
v -1.000001 2.000000 -4.999998
v -5.000001 2.000000 -4.999997
v 4.000000 1.500000 -3.999999
v 4.000000 1.000000 -3.999999
v -0.500001 1.500000 -3.999998
v -0.500001 1.000000 -3.999998
v -0.504278 1.565263 -3.999998
v -5.000000 1.000000 -3.999997
v -0.517038 1.629410 -3.999998
v -0.538061 1.691342 -3.999998
v -0.566988 1.750000 -3.999998
v -0.603324 1.804381 -3.999998
v -0.646447 1.853553 -3.999998
v -0.695620 1.896677 -3.999998
v -0.750001 1.933013 -3.999998
v -0.808659 1.961940 -3.999998
v -0.870591 1.982963 -3.999998
v -0.934738 1.995722 -3.999998
v -5.000000 -0.000000 -3.999997
v -5.000001 -0.000000 -4.999997
v -0.499999 1.500000 5.000002
v -0.504277 1.565263 5.000002
v -0.517036 1.629410 5.000002
v -0.538059 1.691342 5.000002
v -0.566986 1.750000 5.000002
v -0.603322 1.804381 5.000002
v -0.646446 1.853553 5.000002
v -0.695618 1.896677 5.000002
v -0.749999 1.933013 5.000002
v -0.808657 1.961940 5.000002
v -0.870590 1.982963 5.000002
v -0.934736 1.995722 5.000002
v -0.999999 2.000000 5.000002
v -0.500001 1.500000 -4.999998
v -0.504278 1.565263 -4.999998
v -0.517038 1.629410 -4.999998
v -0.538061 1.691342 -4.999998
v -0.566988 1.750000 -4.999998
v -0.603324 1.804381 -4.999998
v -0.646447 1.853553 -4.999998
v -0.695620 1.896677 -4.999998
v -0.750001 1.933013 -4.999998
v -0.808659 1.961940 -4.999998
v -0.870591 1.982963 -4.999998
v -0.934738 1.995722 -4.999998
vn 1.0000 -0.0000 -0.0000
vn -1.0000 -0.0000 -0.0000
vn -0.0000 -0.0000 -1.0000
vn -0.0000 1.0000 -0.0000
vn -0.0000 -0.0000 1.0000
vn 0.0001 -0.0000 1.0000
vn -0.0000 -1.0000 -0.0000
vn 0.1305 0.9914 -0.0000
vn 0.0654 0.9979 -0.0000
vn 0.2588 0.9659 -0.0000
vn 0.3827 0.9239 -0.0000
vn 0.5000 0.8660 -0.0000
vn 0.6087 0.7934 -0.0000
vn 0.7071 0.7071 -0.0000
vn 0.6088 0.7933 -0.0000
vn 0.7933 0.6088 -0.0000
vn 0.7934 0.6087 -0.0000
vn 0.8660 0.5000 -0.0000
vn 0.9239 0.3827 -0.0000
vn 0.9659 0.2588 -0.0000
vn 0.9914 0.1305 -0.0000
vn 0.9979 0.0654 -0.0000
vt 0.499349 0.550520
vt 0.166884 0.500650
vt 0.499349 0.500650
vt 0.166884 0.550520
vt 0.166884 0.567143
vt 0.133637 0.500650
vt 0.166884 0.500650
vt 0.133637 0.533896
vt 0.133637 0.567143
vt 0.349740 0.533896
vt 0.200130 0.550520
vt 0.200130 0.533896
vt 0.349740 0.550520
vt 0.017274 0.550520
vt 0.017274 0.533896
vt 0.166884 0.533896
vt 0.017416 0.552689
vt 0.017841 0.554822
vt 0.018540 0.556881
vt 0.019501 0.558831
vt 0.020709 0.560639
vt 0.022143 0.562274
vt 0.023778 0.563708
vt 0.025586 0.564916
vt 0.027536 0.565878
vt 0.029595 0.566576
vt 0.031728 0.567001
vt 0.033898 0.567143
vt 0.166884 0.567143
vt 0.033898 0.666883
vt 0.166884 0.700129
vt 0.033898 0.700129
vt 0.166884 0.666883
vt 0.316493 0.550520
vt 0.466102 0.533896
vt 0.466102 0.550520
vt 0.316493 0.533896
vt 0.316351 0.552689
vt 0.315927 0.554822
vt 0.315228 0.556881
vt 0.314266 0.558831
vt 0.313058 0.560639
vt 0.311624 0.562274
vt 0.309989 0.563708
vt 0.308181 0.564916
vt 0.306231 0.565878
vt 0.304172 0.566576
vt 0.302040 0.567001
vt 0.299870 0.567143
vt 0.499349 0.700129
vt 0.166884 0.666882
vt 0.499349 0.666882
vt 0.166884 0.999348
vt 0.499349 0.966101
vt 0.166884 0.666882
vt 0.499349 0.633636
vt 0.499349 0.666882
vt 0.316493 0.550520
vt 0.499349 0.500650
vt 0.499349 0.550520
vt 0.166884 0.500650
vt 0.316351 0.552689
vt 0.315927 0.554822
vt 0.315228 0.556881
vt 0.314266 0.558831
vt 0.313058 0.560639
vt 0.311624 0.562274
vt 0.309989 0.563708
vt 0.308181 0.564916
vt 0.306231 0.565878
vt 0.304172 0.566576
vt 0.302040 0.567001
vt 0.299870 0.567143
vt 0.166884 0.567143
vt 0.200130 0.533896
vt 0.166884 0.500650
vt 0.200130 0.500650
vt 0.166884 0.567143
vt 0.200130 0.567143
vt 0.166884 0.550520
vt 0.349740 0.550520
vt 0.017274 0.550520
vt 0.017417 0.552689
vt 0.017841 0.554822
vt 0.018540 0.556881
vt 0.019501 0.558831
vt 0.020709 0.560639
vt 0.022143 0.562274
vt 0.023778 0.563708
vt 0.025586 0.564916
vt 0.027536 0.565878
vt 0.029595 0.566576
vt 0.031728 0.567001
vt 0.033898 0.567143
vt 0.466102 0.550520
vt 0.200130 0.533896
vt 0.466102 0.533896
vt 0.200130 0.550520
vt 0.200130 0.700129
vt 0.349740 0.966101
vt 0.200130 0.966101
vt 0.349740 0.700129
vt 0.033898 0.633636
vt 0.166884 0.666883
vt 0.033898 0.666883
vt 0.166884 0.633636
vt 0.349740 0.633636
vt 0.349740 0.666883
vt 0.200130 0.633636
vt 0.166884 0.666883
vt 0.166884 0.999348
vt 0.166884 0.666883
vt 0.349740 0.666883
vt 0.031728 0.666883
vt 0.031728 0.700129
vt 0.029595 0.666883
vt 0.029595 0.700129
vt 0.027536 0.666883
vt 0.027536 0.700129
vt 0.025586 0.666883
vt 0.025586 0.700129
vt 0.023778 0.666883
vt 0.023778 0.700129
vt 0.022143 0.666883
vt 0.022143 0.700129
vt 0.166884 0.562274
vt 0.133637 0.560639
vt 0.166884 0.560639
vt 0.133637 0.562274
vt 0.133637 0.558831
vt 0.166884 0.558831
vt 0.133637 0.556881
vt 0.166884 0.556881
vt 0.133637 0.554822
vt 0.166884 0.554822
vt 0.133637 0.552689
vt 0.166884 0.552689
vt 0.133637 0.550520
vt 0.166884 0.550520
vt 0.200130 0.552689
vt 0.200130 0.550520
vt 0.200130 0.554822
vt 0.200130 0.556881
vt 0.200130 0.558831
vt 0.200130 0.560639
vt 0.200130 0.562274
vt 0.022143 0.633636
vt 0.023778 0.666883
vt 0.022143 0.666883
vt 0.023778 0.633636
vt 0.025586 0.666883
vt 0.025586 0.633636
vt 0.027536 0.666883
vt 0.027536 0.633636
vt 0.029595 0.666883
vt 0.029595 0.633636
vt 0.031728 0.666883
vt 0.031728 0.633636
vt 0.966104 0.533898
vt 0.700131 0.500651
vt 0.966104 0.500651
vt 0.700131 0.533898
vt 0.517276 0.700130
vt 0.666885 0.966102
vt 0.517275 0.966102
vt 0.666885 0.700130
s 0
usemtl material_atlas_00005_1
f 3/1/1 2/2/1 1/3/1
f 2/2/1 3/1/1 4/4/1
f 7/5/2 6/6/2 5/7/2
f 6/6/2 7/5/2 8/8/2
f 8/8/2 7/5/2 9/9/2
f 12/10/3 11/11/3 10/12/3
f 11/11/3 12/10/3 13/13/3
f 13/14/3 12/15/3 8/16/3
f 13/14/3 8/16/3 14/17/3
f 14/17/3 8/16/3 15/18/3
f 15/18/3 8/16/3 16/19/3
f 16/19/3 8/16/3 17/20/3
f 17/20/3 8/16/3 18/21/3
f 18/21/3 8/16/3 19/22/3
f 19/22/3 8/16/3 20/23/3
f 20/23/3 8/16/3 21/24/3
f 21/24/3 8/16/3 22/25/3
f 22/25/3 8/16/3 23/26/3
f 23/26/3 8/16/3 24/27/3
f 24/27/3 8/16/3 25/28/3
f 25/28/3 8/16/3 9/29/3
f 28/30/4 27/31/4 26/32/4
f 27/31/4 28/30/4 29/33/4
f 32/34/5 31/35/5 30/36/5
f 31/35/5 32/34/5 33/37/5
f 33/37/6 32/34/6 34/38/6
f 33/37/5 34/38/5 35/16/5
f 35/16/5 34/38/5 36/39/5
f 35/16/5 36/39/5 37/40/5
f 35/16/5 37/40/5 38/41/5
f 35/16/5 38/41/5 39/42/5
f 35/16/5 39/42/5 40/43/5
f 35/16/5 40/43/5 41/44/5
f 35/16/5 41/44/5 42/45/5
f 35/16/5 42/45/5 43/46/5
f 35/16/5 43/46/5 44/47/5
f 35/16/5 44/47/5 45/48/5
f 35/16/5 45/48/5 26/49/5
f 35/16/5 26/49/5 27/29/5
f 6/50/7 2/51/7 5/52/7
f 2/51/7 6/50/7 1/53/7
f 1/53/7 6/50/7 46/54/7
f 1/55/7 46/56/7 47/57/7
f 48/58/5 2/59/5 4/60/5
f 2/59/5 48/58/5 5/61/5
f 5/61/5 48/58/5 49/62/5
f 5/61/5 49/62/5 50/63/5
f 5/61/5 50/63/5 51/64/5
f 5/61/5 51/64/5 52/65/5
f 5/61/5 52/65/5 53/66/5
f 5/61/5 53/66/5 54/67/5
f 5/61/5 54/67/5 55/68/5
f 5/61/5 55/68/5 56/69/5
f 5/61/5 56/69/5 57/70/5
f 5/61/5 57/70/5 58/71/5
f 5/61/5 58/71/5 59/72/5
f 5/61/5 59/72/5 60/73/5
f 5/61/5 60/73/5 7/74/5
f 35/75/2 47/76/2 46/77/2
f 47/76/2 35/75/2 29/78/2
f 29/78/2 35/75/2 27/79/2
f 47/59/3 3/80/3 1/61/3
f 3/80/3 47/59/3 61/81/3
f 61/82/3 47/61/3 62/83/3
f 62/83/3 47/61/3 63/84/3
f 63/84/3 47/61/3 64/85/3
f 64/85/3 47/61/3 65/86/3
f 65/86/3 47/61/3 66/87/3
f 66/87/3 47/61/3 67/88/3
f 67/88/3 47/61/3 68/89/3
f 68/89/3 47/61/3 69/90/3
f 69/90/3 47/61/3 70/91/3
f 70/91/3 47/61/3 71/92/3
f 71/92/3 47/61/3 72/93/3
f 72/93/3 47/61/3 28/94/3
f 28/94/3 47/61/3 29/74/3
f 11/95/2 31/96/2 10/97/2
f 31/96/2 11/95/2 30/98/2
f 31/99/4 12/100/4 10/101/4
f 12/100/4 31/99/4 33/102/4
f 25/103/4 7/104/4 60/105/4
f 7/104/4 25/103/4 9/106/4
f 13/107/4 48/108/4 11/109/4
f 4/110/4 11/109/4 48/108/4
f 11/101/4 4/111/4 3/112/4
f 11/101/4 3/112/4 30/99/4
f 30/99/4 3/112/4 32/102/4
f 32/102/4 3/112/4 61/113/4
f 72/114/8 26/32/9 45/115/8
f 26/32/9 72/114/8 28/30/9
f 71/116/10 45/115/8 44/117/10
f 45/115/8 71/116/10 72/114/8
f 70/118/11 44/117/10 43/119/11
f 44/117/10 70/118/11 71/116/10
f 69/120/12 43/119/11 42/121/12
f 43/119/11 69/120/12 70/118/11
f 68/122/13 42/121/12 41/123/13
f 42/121/12 68/122/13 69/120/12
f 67/124/14 41/123/15 40/125/14
f 41/123/15 67/124/14 68/122/15
f 67/126/14 39/127/16 66/128/16
f 39/127/16 67/126/14 40/129/14
f 66/128/17 38/130/18 65/131/18
f 38/130/18 66/128/17 39/127/17
f 65/131/18 37/132/19 64/133/19
f 37/132/19 65/131/18 38/130/18
f 64/133/19 36/134/20 63/135/20
f 36/134/20 64/133/19 37/132/19
f 63/135/20 34/136/21 62/137/21
f 34/136/21 63/135/20 36/134/20
f 62/137/21 32/138/22 61/139/22
f 32/138/22 62/137/21 34/136/21
f 14/140/21 48/139/22 13/141/22
f 48/139/22 14/140/21 49/137/21
f 15/142/20 49/137/21 14/140/21
f 49/137/21 15/142/20 50/135/20
f 16/143/19 50/135/20 15/142/20
f 50/135/20 16/143/19 51/133/19
f 17/144/18 51/133/19 16/143/19
f 51/133/19 17/144/18 52/131/18
f 18/145/17 52/131/18 17/144/18
f 52/131/18 18/145/17 53/128/17
f 19/146/14 53/128/16 18/145/16
f 53/128/16 19/146/14 54/126/14
f 19/147/14 55/148/15 54/149/14
f 55/148/15 19/147/14 20/150/15
f 20/150/13 56/151/12 55/148/13
f 56/151/12 20/150/13 21/152/12
f 21/152/12 57/153/11 56/151/12
f 57/153/11 21/152/12 22/154/11
f 22/154/11 58/155/10 57/153/11
f 58/155/10 22/154/11 23/156/10
f 23/156/10 59/157/8 58/155/10
f 59/157/8 23/156/10 24/158/8
f 24/158/8 60/105/9 59/157/8
f 60/105/9 24/158/8 25/103/9
f 8/159/2 46/160/2 6/161/2
f 46/160/2 8/159/2 35/162/2
f 33/163/4 8/164/4 12/165/4
f 8/164/4 33/163/4 35/166/4
